<?xml version="1.0" encoding="UTF-8" standalone="no"?>
<!-- Created with Inkscape (http://www.inkscape.org/) -->
<svg
   xmlns:dc="http://purl.org/dc/elements/1.1/"
   xmlns:cc="http://creativecommons.org/ns#"
   xmlns:rdf="http://www.w3.org/1999/02/22-rdf-syntax-ns#"
   xmlns:svg="http://www.w3.org/2000/svg"
   xmlns="http://www.w3.org/2000/svg"
   xmlns:xlink="http://www.w3.org/1999/xlink"
   xmlns:sodipodi="http://sodipodi.sourceforge.net/DTD/sodipodi-0.dtd"
   xmlns:inkscape="http://www.inkscape.org/namespaces/inkscape"
   width="72"
   height="72"
   id="svg10643"
   sodipodi:version="0.32"
   inkscape:version="0.46"
   sodipodi:docbase="/home/me/git/oxy-cursors/src/svg"
   sodipodi:docname="plugin-mousetrails.svg"
   inkscape:output_extension="org.inkscape.output.svg.inkscape"
   inkscape:export-filename="/home/me/svn/oxygen-playground/ruphy/arrow-shadow.png"
   inkscape:export-xdpi="67.5"
   inkscape:export-ydpi="67.5"
   version="1.0">
  <defs
     id="defs10645">
    <inkscape:perspective
       sodipodi:type="inkscape:persp3d"
       inkscape:vp_x="-50 : 600 : 1"
       inkscape:vp_y="0 : 1000 : 0"
       inkscape:vp_z="700 : 600 : 1"
       inkscape:persp3d-origin="300 : 400 : 1"
       id="perspective24" />
    <linearGradient
       id="linearGradient3233">
      <stop
         style="stop-color:#b5b4b3;stop-opacity:1;"
         offset="0"
         id="stop3235" />
      <stop
         style="stop-color:#b5b4b3;stop-opacity:0;"
         offset="1"
         id="stop3237" />
    </linearGradient>
    <linearGradient
       id="linearGradient10711">
      <stop
         style="stop-color:#ffffff;stop-opacity:1;"
         offset="0"
         id="stop10713" />
      <stop
         style="stop-color:#ffffff;stop-opacity:0;"
         offset="1"
         id="stop10715" />
    </linearGradient>
    <filter
       inkscape:collect="always"
       x="-0.20028582"
       width="1.4005716"
       y="-0.11837127"
       height="1.2367425"
       id="filter3484">
      <feGaussianBlur
         inkscape:collect="always"
         stdDeviation="0.97202214"
         id="feGaussianBlur3486" />
    </filter>
    <clipPath
       clipPathUnits="userSpaceOnUse"
       id="clipPath3496">
      <rect
         style="opacity:0.62633481;fill:none;fill-opacity:1;fill-rule:nonzero;stroke:#000000;stroke-width:0.19602102;stroke-linecap:round;stroke-linejoin:miter;stroke-miterlimit:4;stroke-dasharray:none;stroke-opacity:1"
         id="rect3498"
         width="13.277639"
         height="22.63365"
         x="5.309958"
         y="1.2316679"
         ry="1.171887" />
    </clipPath>
    <linearGradient
       inkscape:collect="always"
       xlink:href="#linearGradient3233"
       id="linearGradient3240"
       x1="9.4485903"
       y1="2.761672"
       x2="7.6776314"
       y2="19.013866"
       gradientUnits="userSpaceOnUse" />
    <radialGradient
       inkscape:collect="always"
       xlink:href="#linearGradient10711"
       id="radialGradient3253"
       gradientUnits="userSpaceOnUse"
       gradientTransform="matrix(1.1297612,-0.3467295,0.6267361,2.042117,-9.0262396,-8.8441681)"
       spreadMethod="pad"
       cx="8.8133469"
       cy="14.235861"
       fx="8.8133469"
       fy="14.235861"
       r="5.3238101" />
    <radialGradient
       inkscape:collect="always"
       xlink:href="#linearGradient10711"
       id="radialGradient2416"
       gradientUnits="userSpaceOnUse"
       gradientTransform="matrix(1.1297612,-0.3467295,0.6267361,2.042117,-9.0262396,-8.8441681)"
       spreadMethod="pad"
       cx="8.8133469"
       cy="14.235861"
       fx="8.8133469"
       fy="14.235861"
       r="5.3238101" />
    <linearGradient
       inkscape:collect="always"
       xlink:href="#linearGradient3233"
       id="linearGradient2418"
       gradientUnits="userSpaceOnUse"
       x1="9.4485903"
       y1="2.761672"
       x2="7.6776314"
       y2="19.013866" />
    <radialGradient
       inkscape:collect="always"
       xlink:href="#linearGradient10711"
       id="radialGradient2432"
       gradientUnits="userSpaceOnUse"
       gradientTransform="matrix(1.1297612,-0.3467295,0.6267361,2.042117,-9.0262396,-8.8441681)"
       spreadMethod="pad"
       cx="8.8133469"
       cy="14.235861"
       fx="8.8133469"
       fy="14.235861"
       r="5.3238101" />
    <linearGradient
       inkscape:collect="always"
       xlink:href="#linearGradient3233"
       id="linearGradient2434"
       gradientUnits="userSpaceOnUse"
       x1="9.4485903"
       y1="2.761672"
       x2="7.6776314"
       y2="19.013866" />
    <radialGradient
       inkscape:collect="always"
       xlink:href="#linearGradient10711"
       id="radialGradient2448"
       gradientUnits="userSpaceOnUse"
       gradientTransform="matrix(1.1297612,-0.3467295,0.6267361,2.042117,-9.0262396,-8.8441681)"
       spreadMethod="pad"
       cx="8.8133469"
       cy="14.235861"
       fx="8.8133469"
       fy="14.235861"
       r="5.3238101" />
    <linearGradient
       inkscape:collect="always"
       xlink:href="#linearGradient3233"
       id="linearGradient2450"
       gradientUnits="userSpaceOnUse"
       x1="9.4485903"
       y1="2.761672"
       x2="7.6776314"
       y2="19.013866" />
    <radialGradient
       inkscape:collect="always"
       xlink:href="#linearGradient10711"
       id="radialGradient2464"
       gradientUnits="userSpaceOnUse"
       gradientTransform="matrix(1.1297612,-0.3467295,0.6267361,2.042117,-9.0262396,-8.8441681)"
       spreadMethod="pad"
       cx="8.8133469"
       cy="14.235861"
       fx="8.8133469"
       fy="14.235861"
       r="5.3238101" />
    <linearGradient
       inkscape:collect="always"
       xlink:href="#linearGradient3233"
       id="linearGradient2466"
       gradientUnits="userSpaceOnUse"
       x1="9.4485903"
       y1="2.761672"
       x2="7.6776314"
       y2="19.013866" />
    <radialGradient
       inkscape:collect="always"
       xlink:href="#linearGradient10711"
       id="radialGradient2480"
       gradientUnits="userSpaceOnUse"
       gradientTransform="matrix(1.1297612,-0.3467295,0.6267361,2.042117,-9.0262396,-8.8441681)"
       spreadMethod="pad"
       cx="8.8133469"
       cy="14.235861"
       fx="8.8133469"
       fy="14.235861"
       r="5.3238101" />
    <linearGradient
       inkscape:collect="always"
       xlink:href="#linearGradient3233"
       id="linearGradient2482"
       gradientUnits="userSpaceOnUse"
       x1="9.4485903"
       y1="2.761672"
       x2="7.6776314"
       y2="19.013866" />
    <radialGradient
       inkscape:collect="always"
       xlink:href="#linearGradient10711"
       id="radialGradient2496"
       gradientUnits="userSpaceOnUse"
       gradientTransform="matrix(1.1297612,-0.3467295,0.6267361,2.042117,-9.0262396,-8.8441681)"
       spreadMethod="pad"
       cx="8.8133469"
       cy="14.235861"
       fx="8.8133469"
       fy="14.235861"
       r="5.3238101" />
    <linearGradient
       inkscape:collect="always"
       xlink:href="#linearGradient3233"
       id="linearGradient2498"
       gradientUnits="userSpaceOnUse"
       x1="9.4485903"
       y1="2.761672"
       x2="7.6776314"
       y2="19.013866" />
    <radialGradient
       inkscape:collect="always"
       xlink:href="#linearGradient10711"
       id="radialGradient2544"
       gradientUnits="userSpaceOnUse"
       gradientTransform="matrix(1.1297612,-0.3467295,0.6267361,2.042117,-9.0262396,-8.8441681)"
       spreadMethod="pad"
       cx="8.8133469"
       cy="14.235861"
       fx="8.8133469"
       fy="14.235861"
       r="5.3238101" />
    <linearGradient
       inkscape:collect="always"
       xlink:href="#linearGradient3233"
       id="linearGradient2546"
       gradientUnits="userSpaceOnUse"
       x1="9.4485903"
       y1="2.761672"
       x2="7.6776314"
       y2="19.013866" />
  </defs>
  <sodipodi:namedview
     id="base"
     pagecolor="#ffffff"
     bordercolor="#666666"
     borderopacity="1.0"
     inkscape:pageopacity="0.0"
     inkscape:pageshadow="2"
     inkscape:zoom="1.9999999"
     inkscape:cx="-17.943788"
     inkscape:cy="84.952673"
     inkscape:current-layer="layer1"
     showgrid="false"
     inkscape:grid-bbox="true"
     inkscape:document-units="px"
     inkscape:window-width="1280"
     inkscape:window-height="739"
     inkscape:window-x="117"
     inkscape:window-y="100"
     showguides="false"
     inkscape:guide-bbox="true"
     width="24px"
     height="24px">
    <inkscape:grid
       type="xygrid"
       id="grid2402"
       visible="true"
       enabled="true" />
  </sodipodi:namedview>
  <metadata
     id="metadata10648">
    <rdf:RDF>
      <cc:Work
         rdf:about="">
        <dc:format>image/svg+xml</dc:format>
        <dc:type
           rdf:resource="http://purl.org/dc/dcmitype/StillImage" />
      </cc:Work>
    </rdf:RDF>
  </metadata>
  <g
     id="layer1"
     inkscape:label="Layer 1"
     inkscape:groupmode="layer"
     transform="translate(-4.9918371,39.549424)">
    <g
       id="g2532"
       transform="matrix(1.7088029,0,0,1.7088029,25.65387,-3.8418295)">
      <path
         style="opacity:0.72597866;fill:#000000;fill-opacity:1;fill-rule:evenodd;stroke:#000000;stroke-width:1;stroke-linecap:butt;stroke-linejoin:miter;stroke-miterlimit:4;stroke-dasharray:none;stroke-opacity:1;filter:url(#filter3484)"
         d="M 10.3366,13.200539 L 6,18.477013 L 9.9136329,18.882847 L 12.631023,21.530194 L 14.093411,21.069069 L 14.736374,16.839873 L 16.64762,14.827323 L 10.3366,13.200539 z"
         id="path2534"
         sodipodi:nodetypes="cccccccc"
         transform="matrix(1.0551164,5.3989101e-3,-5.3989101e-3,1.0551164,-0.4968868,-2.0741232)"
         clip-path="url(#clipPath3496)" />
      <path
         sodipodi:nodetypes="cccccccc"
         id="path2536"
         d="M 5.9918372,0.875 L 6.0310037,17.154155 L 9.9644836,17.60596 L 12.872697,19.718182 L 13.820937,19.363271 L 14.593599,15.923702 L 17.061329,12.365338 L 5.9918372,0.875 z"
         style="fill:#7f0000;fill-opacity:0;fill-rule:evenodd;stroke:#403f3f;stroke-width:2;stroke-linecap:butt;stroke-linejoin:round;stroke-miterlimit:4;stroke-dasharray:none;stroke-opacity:1" />
      <path
         style="fill:#b5b4b3;fill-opacity:1;fill-rule:evenodd;stroke:none;stroke-width:1;stroke-linecap:butt;stroke-linejoin:round;stroke-miterlimit:4;stroke-dasharray:none;stroke-opacity:1"
         d="M 5.9988381,1.0786288 L 5.904858,17.004495 L 9.9474386,17.362926 L 12.807145,19.847971 L 13.896313,19.36246 L 14.4157,15.803981 L 16.989046,12.530594 L 5.9988381,1.0786288 z"
         id="path2538"
         sodipodi:nodetypes="cccccccc" />
      <path
         sodipodi:nodetypes="cccccccc"
         id="path2540"
         d="M 5.9983584,1.1723776 L 5.904858,17.004495 L 9.9786201,17.348996 L 12.824041,19.80643 L 13.903888,19.284849 L 14.410984,15.743126 L 16.968868,12.56939 L 5.9983584,1.1723776 z"
         style="fill:url(#radialGradient2544);fill-opacity:1;fill-rule:evenodd;stroke:none;stroke-width:1;stroke-linecap:butt;stroke-linejoin:round;stroke-miterlimit:4;stroke-dasharray:none;stroke-opacity:1" />
      <path
         sodipodi:nodetypes="ccccccc"
         id="path2542"
         d="M 6.5058177,2.3050344 L 6.4947691,16.444478 L 10.275367,16.837168 L 13.453224,19.20555 L 14.005651,15.604788 L 16.376695,12.600649 L 6.5058177,2.3050344 z"
         style="opacity:1;fill:none;fill-rule:evenodd;stroke:url(#linearGradient2546);stroke-width:0.9866485px;stroke-linecap:butt;stroke-linejoin:miter;stroke-opacity:1" />
    </g>
    <g
       id="g2484"
       transform="matrix(1.7088029,0,0,1.7088029,29.580865,-9.1281696)">
      <path
         style="opacity:0.72597866;fill:#000000;fill-opacity:1;fill-rule:evenodd;stroke:#000000;stroke-width:1;stroke-linecap:butt;stroke-linejoin:miter;stroke-miterlimit:4;stroke-dasharray:none;stroke-opacity:1;filter:url(#filter3484)"
         d="M 10.3366,13.200539 L 6,18.477013 L 9.9136329,18.882847 L 12.631023,21.530194 L 14.093411,21.069069 L 14.736374,16.839873 L 16.64762,14.827323 L 10.3366,13.200539 z"
         id="path2486"
         sodipodi:nodetypes="cccccccc"
         transform="matrix(1.0551164,5.3989101e-3,-5.3989101e-3,1.0551164,-0.4968868,-2.0741232)"
         clip-path="url(#clipPath3496)" />
      <path
         sodipodi:nodetypes="cccccccc"
         id="path2488"
         d="M 5.9918372,0.875 L 6.0310037,17.154155 L 9.9644836,17.60596 L 12.872697,19.718182 L 13.820937,19.363271 L 14.593599,15.923702 L 17.061329,12.365338 L 5.9918372,0.875 z"
         style="fill:#7f0000;fill-opacity:0;fill-rule:evenodd;stroke:#403f3f;stroke-width:2;stroke-linecap:butt;stroke-linejoin:round;stroke-miterlimit:4;stroke-dasharray:none;stroke-opacity:1" />
      <path
         style="fill:#b5b4b3;fill-opacity:1;fill-rule:evenodd;stroke:none;stroke-width:1;stroke-linecap:butt;stroke-linejoin:round;stroke-miterlimit:4;stroke-dasharray:none;stroke-opacity:1"
         d="M 5.9988381,1.0786288 L 5.904858,17.004495 L 9.9474386,17.362926 L 12.807145,19.847971 L 13.896313,19.36246 L 14.4157,15.803981 L 16.989046,12.530594 L 5.9988381,1.0786288 z"
         id="path2490"
         sodipodi:nodetypes="cccccccc" />
      <path
         sodipodi:nodetypes="cccccccc"
         id="path2492"
         d="M 5.9983584,1.1723776 L 5.904858,17.004495 L 9.9786201,17.348996 L 12.824041,19.80643 L 13.903888,19.284849 L 14.410984,15.743126 L 16.968868,12.56939 L 5.9983584,1.1723776 z"
         style="fill:url(#radialGradient2496);fill-opacity:1;fill-rule:evenodd;stroke:none;stroke-width:1;stroke-linecap:butt;stroke-linejoin:round;stroke-miterlimit:4;stroke-dasharray:none;stroke-opacity:1" />
      <path
         sodipodi:nodetypes="ccccccc"
         id="path2494"
         d="M 6.5058177,2.3050344 L 6.4947691,16.444478 L 10.275367,16.837168 L 13.453224,19.20555 L 14.005651,15.604788 L 16.376695,12.600649 L 6.5058177,2.3050344 z"
         style="opacity:1;fill:none;fill-rule:evenodd;stroke:url(#linearGradient2498);stroke-width:0.9866485px;stroke-linecap:butt;stroke-linejoin:miter;stroke-opacity:1" />
    </g>
    <g
       id="g2468"
       transform="matrix(1.7088029,0,0,1.7088029,34.716168,-15.924892)">
      <path
         style="opacity:0.72597866;fill:#000000;fill-opacity:1;fill-rule:evenodd;stroke:#000000;stroke-width:1;stroke-linecap:butt;stroke-linejoin:miter;stroke-miterlimit:4;stroke-dasharray:none;stroke-opacity:1;filter:url(#filter3484)"
         d="M 10.3366,13.200539 L 6,18.477013 L 9.9136329,18.882847 L 12.631023,21.530194 L 14.093411,21.069069 L 14.736374,16.839873 L 16.64762,14.827323 L 10.3366,13.200539 z"
         id="path2470"
         sodipodi:nodetypes="cccccccc"
         transform="matrix(1.0551164,5.3989101e-3,-5.3989101e-3,1.0551164,-0.4968868,-2.0741232)"
         clip-path="url(#clipPath3496)" />
      <path
         sodipodi:nodetypes="cccccccc"
         id="path2472"
         d="M 5.9918372,0.875 L 6.0310037,17.154155 L 9.9644836,17.60596 L 12.872697,19.718182 L 13.820937,19.363271 L 14.593599,15.923702 L 17.061329,12.365338 L 5.9918372,0.875 z"
         style="fill:#7f0000;fill-opacity:0;fill-rule:evenodd;stroke:#403f3f;stroke-width:2;stroke-linecap:butt;stroke-linejoin:round;stroke-miterlimit:4;stroke-dasharray:none;stroke-opacity:1" />
      <path
         style="fill:#b5b4b3;fill-opacity:1;fill-rule:evenodd;stroke:none;stroke-width:1;stroke-linecap:butt;stroke-linejoin:round;stroke-miterlimit:4;stroke-dasharray:none;stroke-opacity:1"
         d="M 5.9988381,1.0786288 L 5.904858,17.004495 L 9.9474386,17.362926 L 12.807145,19.847971 L 13.896313,19.36246 L 14.4157,15.803981 L 16.989046,12.530594 L 5.9988381,1.0786288 z"
         id="path2474"
         sodipodi:nodetypes="cccccccc" />
      <path
         sodipodi:nodetypes="cccccccc"
         id="path2476"
         d="M 5.9983584,1.1723776 L 5.904858,17.004495 L 9.9786201,17.348996 L 12.824041,19.80643 L 13.903888,19.284849 L 14.410984,15.743126 L 16.968868,12.56939 L 5.9983584,1.1723776 z"
         style="fill:url(#radialGradient2480);fill-opacity:1;fill-rule:evenodd;stroke:none;stroke-width:1;stroke-linecap:butt;stroke-linejoin:round;stroke-miterlimit:4;stroke-dasharray:none;stroke-opacity:1" />
      <path
         sodipodi:nodetypes="ccccccc"
         id="path2478"
         d="M 6.5058177,2.3050344 L 6.4947691,16.444478 L 10.275367,16.837168 L 13.453224,19.20555 L 14.005651,15.604788 L 16.376695,12.600649 L 6.5058177,2.3050344 z"
         style="opacity:1;fill:none;fill-rule:evenodd;stroke:url(#linearGradient2482);stroke-width:0.9866485px;stroke-linecap:butt;stroke-linejoin:miter;stroke-opacity:1" />
    </g>
    <g
       id="g2452"
       transform="matrix(1.7088029,0,0,1.7088029,35.169283,-26.346533)">
      <path
         style="opacity:0.72597866;fill:#000000;fill-opacity:1;fill-rule:evenodd;stroke:#000000;stroke-width:1;stroke-linecap:butt;stroke-linejoin:miter;stroke-miterlimit:4;stroke-dasharray:none;stroke-opacity:1;filter:url(#filter3484)"
         d="M 10.3366,13.200539 L 6,18.477013 L 9.9136329,18.882847 L 12.631023,21.530194 L 14.093411,21.069069 L 14.736374,16.839873 L 16.64762,14.827323 L 10.3366,13.200539 z"
         id="path2454"
         sodipodi:nodetypes="cccccccc"
         transform="matrix(1.0551164,5.3989101e-3,-5.3989101e-3,1.0551164,-0.4968868,-2.0741232)"
         clip-path="url(#clipPath3496)" />
      <path
         sodipodi:nodetypes="cccccccc"
         id="path2456"
         d="M 5.9918372,0.875 L 6.0310037,17.154155 L 9.9644836,17.60596 L 12.872697,19.718182 L 13.820937,19.363271 L 14.593599,15.923702 L 17.061329,12.365338 L 5.9918372,0.875 z"
         style="fill:#7f0000;fill-opacity:0;fill-rule:evenodd;stroke:#403f3f;stroke-width:2;stroke-linecap:butt;stroke-linejoin:round;stroke-miterlimit:4;stroke-dasharray:none;stroke-opacity:1" />
      <path
         style="fill:#b5b4b3;fill-opacity:1;fill-rule:evenodd;stroke:none;stroke-width:1;stroke-linecap:butt;stroke-linejoin:round;stroke-miterlimit:4;stroke-dasharray:none;stroke-opacity:1"
         d="M 5.9988381,1.0786288 L 5.904858,17.004495 L 9.9474386,17.362926 L 12.807145,19.847971 L 13.896313,19.36246 L 14.4157,15.803981 L 16.989046,12.530594 L 5.9988381,1.0786288 z"
         id="path2458"
         sodipodi:nodetypes="cccccccc" />
      <path
         sodipodi:nodetypes="cccccccc"
         id="path2460"
         d="M 5.9983584,1.1723776 L 5.904858,17.004495 L 9.9786201,17.348996 L 12.824041,19.80643 L 13.903888,19.284849 L 14.410984,15.743126 L 16.968868,12.56939 L 5.9983584,1.1723776 z"
         style="fill:url(#radialGradient2464);fill-opacity:1;fill-rule:evenodd;stroke:none;stroke-width:1;stroke-linecap:butt;stroke-linejoin:round;stroke-miterlimit:4;stroke-dasharray:none;stroke-opacity:1" />
      <path
         sodipodi:nodetypes="ccccccc"
         id="path2462"
         d="M 6.5058177,2.3050344 L 6.4947691,16.444478 L 10.275367,16.837168 L 13.453224,19.20555 L 14.005651,15.604788 L 16.376695,12.600649 L 6.5058177,2.3050344 z"
         style="opacity:1;fill:none;fill-rule:evenodd;stroke:url(#linearGradient2466);stroke-width:0.9866485px;stroke-linecap:butt;stroke-linejoin:miter;stroke-opacity:1" />
    </g>
    <g
       id="g2436"
       transform="matrix(1.7088029,0,0,1.7088029,27.164255,-36.617136)">
      <path
         style="opacity:0.72597866;fill:#000000;fill-opacity:1;fill-rule:evenodd;stroke:#000000;stroke-width:1;stroke-linecap:butt;stroke-linejoin:miter;stroke-miterlimit:4;stroke-dasharray:none;stroke-opacity:1;filter:url(#filter3484)"
         d="M 10.3366,13.200539 L 6,18.477013 L 9.9136329,18.882847 L 12.631023,21.530194 L 14.093411,21.069069 L 14.736374,16.839873 L 16.64762,14.827323 L 10.3366,13.200539 z"
         id="path2438"
         sodipodi:nodetypes="cccccccc"
         transform="matrix(1.0551164,5.3989101e-3,-5.3989101e-3,1.0551164,-0.4968868,-2.0741232)"
         clip-path="url(#clipPath3496)" />
      <path
         sodipodi:nodetypes="cccccccc"
         id="path2440"
         d="M 5.9918372,0.875 L 6.0310037,17.154155 L 9.9644836,17.60596 L 12.872697,19.718182 L 13.820937,19.363271 L 14.593599,15.923702 L 17.061329,12.365338 L 5.9918372,0.875 z"
         style="fill:#7f0000;fill-opacity:0;fill-rule:evenodd;stroke:#403f3f;stroke-width:2;stroke-linecap:butt;stroke-linejoin:round;stroke-miterlimit:4;stroke-dasharray:none;stroke-opacity:1" />
      <path
         style="fill:#b5b4b3;fill-opacity:1;fill-rule:evenodd;stroke:none;stroke-width:1;stroke-linecap:butt;stroke-linejoin:round;stroke-miterlimit:4;stroke-dasharray:none;stroke-opacity:1"
         d="M 5.9988381,1.0786288 L 5.904858,17.004495 L 9.9474386,17.362926 L 12.807145,19.847971 L 13.896313,19.36246 L 14.4157,15.803981 L 16.989046,12.530594 L 5.9988381,1.0786288 z"
         id="path2442"
         sodipodi:nodetypes="cccccccc" />
      <path
         sodipodi:nodetypes="cccccccc"
         id="path2444"
         d="M 5.9983584,1.1723776 L 5.904858,17.004495 L 9.9786201,17.348996 L 12.824041,19.80643 L 13.903888,19.284849 L 14.410984,15.743126 L 16.968868,12.56939 L 5.9983584,1.1723776 z"
         style="fill:url(#radialGradient2448);fill-opacity:1;fill-rule:evenodd;stroke:none;stroke-width:1;stroke-linecap:butt;stroke-linejoin:round;stroke-miterlimit:4;stroke-dasharray:none;stroke-opacity:1" />
      <path
         sodipodi:nodetypes="ccccccc"
         id="path2446"
         d="M 6.5058177,2.3050344 L 6.4947691,16.444478 L 10.275367,16.837168 L 13.453224,19.20555 L 14.005651,15.604788 L 16.376695,12.600649 L 6.5058177,2.3050344 z"
         style="opacity:1;fill:none;fill-rule:evenodd;stroke:url(#linearGradient2450);stroke-width:0.9866485px;stroke-linecap:butt;stroke-linejoin:miter;stroke-opacity:1" />
    </g>
    <g
       id="g2420"
       transform="matrix(1.7088029,0,0,1.7088029,17.799881,-39.335824)">
      <path
         style="opacity:0.72597866;fill:#000000;fill-opacity:1;fill-rule:evenodd;stroke:#000000;stroke-width:1;stroke-linecap:butt;stroke-linejoin:miter;stroke-miterlimit:4;stroke-dasharray:none;stroke-opacity:1;filter:url(#filter3484)"
         d="M 10.3366,13.200539 L 6,18.477013 L 9.9136329,18.882847 L 12.631023,21.530194 L 14.093411,21.069069 L 14.736374,16.839873 L 16.64762,14.827323 L 10.3366,13.200539 z"
         id="path2422"
         sodipodi:nodetypes="cccccccc"
         transform="matrix(1.0551164,5.3989101e-3,-5.3989101e-3,1.0551164,-0.4968868,-2.0741232)"
         clip-path="url(#clipPath3496)" />
      <path
         sodipodi:nodetypes="cccccccc"
         id="path2424"
         d="M 5.9918372,0.875 L 6.0310037,17.154155 L 9.9644836,17.60596 L 12.872697,19.718182 L 13.820937,19.363271 L 14.593599,15.923702 L 17.061329,12.365338 L 5.9918372,0.875 z"
         style="fill:#7f0000;fill-opacity:0;fill-rule:evenodd;stroke:#403f3f;stroke-width:2;stroke-linecap:butt;stroke-linejoin:round;stroke-miterlimit:4;stroke-dasharray:none;stroke-opacity:1" />
      <path
         style="fill:#b5b4b3;fill-opacity:1;fill-rule:evenodd;stroke:none;stroke-width:1;stroke-linecap:butt;stroke-linejoin:round;stroke-miterlimit:4;stroke-dasharray:none;stroke-opacity:1"
         d="M 5.9988381,1.0786288 L 5.904858,17.004495 L 9.9474386,17.362926 L 12.807145,19.847971 L 13.896313,19.36246 L 14.4157,15.803981 L 16.989046,12.530594 L 5.9988381,1.0786288 z"
         id="path2426"
         sodipodi:nodetypes="cccccccc" />
      <path
         sodipodi:nodetypes="cccccccc"
         id="path2428"
         d="M 5.9983584,1.1723776 L 5.904858,17.004495 L 9.9786201,17.348996 L 12.824041,19.80643 L 13.903888,19.284849 L 14.410984,15.743126 L 16.968868,12.56939 L 5.9983584,1.1723776 z"
         style="fill:url(#radialGradient2432);fill-opacity:1;fill-rule:evenodd;stroke:none;stroke-width:1;stroke-linecap:butt;stroke-linejoin:round;stroke-miterlimit:4;stroke-dasharray:none;stroke-opacity:1" />
      <path
         sodipodi:nodetypes="ccccccc"
         id="path2430"
         d="M 6.5058177,2.3050344 L 6.4947691,16.444478 L 10.275367,16.837168 L 13.453224,19.20555 L 14.005651,15.604788 L 16.376695,12.600649 L 6.5058177,2.3050344 z"
         style="opacity:1;fill:none;fill-rule:evenodd;stroke:url(#linearGradient2434);stroke-width:0.9866485px;stroke-linecap:butt;stroke-linejoin:miter;stroke-opacity:1" />
    </g>
    <g
       id="g2404"
       transform="matrix(1.7088029,0,0,1.7088029,10.701082,-33.445332)">
      <path
         style="opacity:0.72597866;fill:#000000;fill-opacity:1;fill-rule:evenodd;stroke:#000000;stroke-width:1;stroke-linecap:butt;stroke-linejoin:miter;stroke-miterlimit:4;stroke-dasharray:none;stroke-opacity:1;filter:url(#filter3484)"
         d="M 10.3366,13.200539 L 6,18.477013 L 9.9136329,18.882847 L 12.631023,21.530194 L 14.093411,21.069069 L 14.736374,16.839873 L 16.64762,14.827323 L 10.3366,13.200539 z"
         id="path2406"
         sodipodi:nodetypes="cccccccc"
         transform="matrix(1.0551164,5.3989101e-3,-5.3989101e-3,1.0551164,-0.4968868,-2.0741232)"
         clip-path="url(#clipPath3496)" />
      <path
         sodipodi:nodetypes="cccccccc"
         id="path2408"
         d="M 5.9918372,0.875 L 6.0310037,17.154155 L 9.9644836,17.60596 L 12.872697,19.718182 L 13.820937,19.363271 L 14.593599,15.923702 L 17.061329,12.365338 L 5.9918372,0.875 z"
         style="fill:#7f0000;fill-opacity:0;fill-rule:evenodd;stroke:#403f3f;stroke-width:2;stroke-linecap:butt;stroke-linejoin:round;stroke-miterlimit:4;stroke-dasharray:none;stroke-opacity:1" />
      <path
         style="fill:#b5b4b3;fill-opacity:1;fill-rule:evenodd;stroke:none;stroke-width:1;stroke-linecap:butt;stroke-linejoin:round;stroke-miterlimit:4;stroke-dasharray:none;stroke-opacity:1"
         d="M 5.9988381,1.0786288 L 5.904858,17.004495 L 9.9474386,17.362926 L 12.807145,19.847971 L 13.896313,19.36246 L 14.4157,15.803981 L 16.989046,12.530594 L 5.9988381,1.0786288 z"
         id="path2410"
         sodipodi:nodetypes="cccccccc" />
      <path
         sodipodi:nodetypes="cccccccc"
         id="path2412"
         d="M 5.9983584,1.1723776 L 5.904858,17.004495 L 9.9786201,17.348996 L 12.824041,19.80643 L 13.903888,19.284849 L 14.410984,15.743126 L 16.968868,12.56939 L 5.9983584,1.1723776 z"
         style="fill:url(#radialGradient2416);fill-opacity:1;fill-rule:evenodd;stroke:none;stroke-width:1;stroke-linecap:butt;stroke-linejoin:round;stroke-miterlimit:4;stroke-dasharray:none;stroke-opacity:1" />
      <path
         sodipodi:nodetypes="ccccccc"
         id="path2414"
         d="M 6.5058177,2.3050344 L 6.4947691,16.444478 L 10.275367,16.837168 L 13.453224,19.20555 L 14.005651,15.604788 L 16.376695,12.600649 L 6.5058177,2.3050344 z"
         style="opacity:1;fill:none;fill-rule:evenodd;stroke:url(#linearGradient2418);stroke-width:0.9866485px;stroke-linecap:butt;stroke-linejoin:miter;stroke-opacity:1" />
    </g>
    <g
       id="g2397"
       transform="matrix(1.7088029,0,0,1.7088029,6.4617712,-23.001063)">
      <path
         style="opacity:0.72597866;fill:#000000;fill-opacity:1;fill-rule:evenodd;stroke:#000000;stroke-width:1;stroke-linecap:butt;stroke-linejoin:miter;stroke-miterlimit:4;stroke-dasharray:none;stroke-opacity:1;filter:url(#filter3484)"
         d="M 10.3366,13.200539 L 6,18.477013 L 9.9136329,18.882847 L 12.631023,21.530194 L 14.093411,21.069069 L 14.736374,16.839873 L 16.64762,14.827323 L 10.3366,13.200539 z"
         id="path3500"
         sodipodi:nodetypes="cccccccc"
         transform="matrix(1.0551164,5.3989101e-3,-5.3989101e-3,1.0551164,-0.4968868,-2.0741232)"
         clip-path="url(#clipPath3496)" />
      <path
         sodipodi:nodetypes="cccccccc"
         id="path3502"
         d="M 5.9918372,0.875 L 6.0310037,17.154155 L 9.9644836,17.60596 L 12.872697,19.718182 L 13.820937,19.363271 L 14.593599,15.923702 L 17.061329,12.365338 L 5.9918372,0.875 z"
         style="fill:#7f0000;fill-opacity:0;fill-rule:evenodd;stroke:#403f3f;stroke-width:2;stroke-linecap:butt;stroke-linejoin:round;stroke-miterlimit:4;stroke-dasharray:none;stroke-opacity:1" />
      <path
         style="fill:#b5b4b3;fill-opacity:1;fill-rule:evenodd;stroke:none;stroke-width:1;stroke-linecap:butt;stroke-linejoin:round;stroke-miterlimit:4;stroke-dasharray:none;stroke-opacity:1"
         d="M 5.9988381,1.0786288 L 5.904858,17.004495 L 9.9474386,17.362926 L 12.807145,19.847971 L 13.896313,19.36246 L 14.4157,15.803981 L 16.989046,12.530594 L 5.9988381,1.0786288 z"
         id="path3504"
         sodipodi:nodetypes="cccccccc" />
      <path
         sodipodi:nodetypes="cccccccc"
         id="path3506"
         d="M 5.9983584,1.1723776 L 5.904858,17.004495 L 9.9786201,17.348996 L 12.824041,19.80643 L 13.903888,19.284849 L 14.410984,15.743126 L 16.968868,12.56939 L 5.9983584,1.1723776 z"
         style="fill:url(#radialGradient3253);fill-opacity:1;fill-rule:evenodd;stroke:none;stroke-width:1;stroke-linecap:butt;stroke-linejoin:round;stroke-miterlimit:4;stroke-dasharray:none;stroke-opacity:1" />
      <path
         sodipodi:nodetypes="ccccccc"
         id="path2253"
         d="M 6.5058177,2.3050344 L 6.4947691,16.444478 L 10.275367,16.837168 L 13.453224,19.20555 L 14.005651,15.604788 L 16.376695,12.600649 L 6.5058177,2.3050344 z"
         style="opacity:1;fill:none;fill-rule:evenodd;stroke:url(#linearGradient3240);stroke-width:0.9866485px;stroke-linecap:butt;stroke-linejoin:miter;stroke-opacity:1" />
    </g>
  </g>
</svg>
