<?xml version="1.0" encoding="UTF-8" standalone="no"?>
<!-- Generator: Adobe Illustrator 12.0.0, SVG Export Plug-In . SVG Version: 6.00 Build 51448)  -->
<svg
   xmlns:ns="http://ns.adobe.com/SaveForWeb/1.0/"
   xmlns:dc="http://purl.org/dc/elements/1.1/"
   xmlns:cc="http://creativecommons.org/ns#"
   xmlns:rdf="http://www.w3.org/1999/02/22-rdf-syntax-ns#"
   xmlns:svg="http://www.w3.org/2000/svg"
   xmlns="http://www.w3.org/2000/svg"
   xmlns:xlink="http://www.w3.org/1999/xlink"
   xmlns:sodipodi="http://sodipodi.sourceforge.net/DTD/sodipodi-0.dtd"
   xmlns:inkscape="http://www.inkscape.org/namespaces/inkscape"
   version="1.0"
   id="Livello_1"
   width="72"
   height="71.999825"
   viewBox="0 0 119.999 120.061"
   overflow="visible"
   enable-background="new 0 0 119.999 120.061"
   xml:space="preserve"
   sodipodi:version="0.32"
   inkscape:version="0.46"
   sodipodi:docname="plugin-core.svg"
   sodipodi:docbase="/home/david/Progetti/sandbox"
   inkscape:output_extension="org.inkscape.output.svg.inkscape"
   inkscape:export-filename="/Users/david/Desktop/configure.png"
   inkscape:export-xdpi="11.249984"
   inkscape:export-ydpi="11.249984"
   sodipodi:modified="true"
   style="overflow:visible"><defs
   id="defs127"><inkscape:perspective
   sodipodi:type="inkscape:persp3d"
   inkscape:vp_x="0 : 64.000092 : 1"
   inkscape:vp_y="0 : 1000 : 0"
   inkscape:vp_z="128 : 64.000092 : 1"
   inkscape:persp3d-origin="64 : 42.666728 : 1"
   id="perspective102" /><linearGradient
   id="linearGradient3291"><stop
     style="stop-color:black;stop-opacity:1"
     offset="0"
     id="stop3293" /><stop
     style="stop-color:black;stop-opacity:0"
     offset="1"
     id="stop3295" /></linearGradient><radialGradient
   inkscape:collect="always"
   xlink:href="#linearGradient3291"
   id="radialGradient3336"
   gradientUnits="userSpaceOnUse"
   gradientTransform="matrix(1,0,0,0.197802,0,92.82166)"
   cx="63.912209"
   cy="115.70919"
   fx="33.953373"
   fy="115.70919"
   r="63.912209" /><linearGradient
   inkscape:collect="always"
   xlink:href="#XMLID_11_"
   id="linearGradient9291"
   gradientUnits="userSpaceOnUse"
   gradientTransform="matrix(1.125049,0.1245431,0.1244799,1.1244785,-2.8250774,-11.708765)"
   x1="41.188999"
   y1="80.101601"
   x2="27.6451"
   y2="66.557701" /><linearGradient
   id="linearGradient6141"><stop
     style="stop-color:#000000;stop-opacity:1;"
     offset="0"
     id="stop6143" /><stop
     style="stop-color:#ffffff;stop-opacity:0;"
     offset="1"
     id="stop6145" /></linearGradient><linearGradient
   gradientTransform="translate(-3.0255781e-2,3.056501e-4)"
   id="linearGradient5166"
   gradientUnits="userSpaceOnUse"
   x1="77.542931"
   y1="41.868668"
   x2="88.108376"
   y2="31.303225">
		<stop
   offset="0"
   style="stop-color:#323232;stop-opacity:1;"
   id="stop5168" />
		
		
		
		
		
		
		<stop
   offset="0.75739998"
   style="stop-color:#ffffff;stop-opacity:0;"
   id="stop5170" />
	</linearGradient>
	<linearGradient
   y2="31.303225"
   x2="88.108376"
   y1="41.868668"
   x1="77.542931"
   gradientUnits="userSpaceOnUse"
   id="XMLID_16_"
   gradientTransform="translate(-3.0255781e-2,3.056501e-4)">
		<stop
   id="stop92"
   style="stop-color:#ffffff;stop-opacity:1;"
   offset="0" />
		
		
		
		
		
		
		<stop
   id="stop106"
   style="stop-color:#ffffff;stop-opacity:0.01898734;"
   offset="0.75739998" />
	</linearGradient>
	
<linearGradient
   inkscape:collect="always"
   xlink:href="#XMLID_18_"
   id="linearGradient3295"
   gradientUnits="userSpaceOnUse"
   gradientTransform="matrix(0.7074656,-0.7074656,0.7071068,0.7071068,-18.749172,36.539651)"
   x1="-6.165"
   y1="112.5049"
   x2="11.0181"
   y2="112.5049" /><linearGradient
   inkscape:collect="always"
   xlink:href="#XMLID_17_"
   id="linearGradient3298"
   gradientUnits="userSpaceOnUse"
   gradientTransform="matrix(1.0002442,-2.5378062e-4,-2.5378062e-4,1.0002442,8.6347844,-24.632129)"
   x1="38.757801"
   y1="7.4277"
   x2="63.923302"
   y2="7.4277" /><linearGradient
   inkscape:collect="always"
   xlink:href="#XMLID_16_"
   id="linearGradient3301"
   gradientUnits="userSpaceOnUse"
   gradientTransform="matrix(0.7074645,-0.7074645,0.7071057,0.7071057,-24.895386,39.032542)"
   x1="76.281174"
   y1="43.060352"
   x2="86.611"
   y2="31.303225" /><linearGradient
   inkscape:collect="always"
   xlink:href="#XMLID_15_"
   id="linearGradient3304"
   gradientUnits="userSpaceOnUse"
   gradientTransform="matrix(0.7074656,-0.7074656,0.7071068,0.7071068,-24.895791,39.125846)"
   x1="76.919403"
   y1="43.1436"
   x2="100.6411"
   y2="19.4214" /><linearGradient
   inkscape:collect="always"
   xlink:href="#XMLID_14_"
   id="linearGradient3307"
   gradientUnits="userSpaceOnUse"
   gradientTransform="matrix(0.7074656,-0.7074656,0.7071068,0.7071068,-18.749172,36.539651)"
   x1="67.880402"
   y1="6.4331002"
   x2="105.3924"
   y2="43.945599" /><linearGradient
   inkscape:collect="always"
   xlink:href="#XMLID_13_"
   id="linearGradient3310"
   gradientUnits="userSpaceOnUse"
   gradientTransform="matrix(-0.7074656,0.7074656,-0.7071068,-0.7071068,101.2385,185.78751)"
   x1="-0.47799999"
   y1="105.0586"
   x2="6.3157001"
   y2="111.8523" /><linearGradient
   inkscape:collect="always"
   xlink:href="#XMLID_12_"
   id="linearGradient3313"
   gradientUnits="userSpaceOnUse"
   gradientTransform="matrix(-0.7074656,0.7074656,-0.7071068,-0.7071068,107.38512,183.20132)"
   x1="1.3501"
   y1="103.2324"
   x2="8.1437998"
   y2="110.0261" />
	

		
			<linearGradient
   id="XMLID_10_"
   gradientUnits="userSpaceOnUse"
   x1="61.9692"
   y1="88.430702"
   x2="40.815899"
   y2="88.430702"
   gradientTransform="matrix(0.7074589,0.7071,-0.7074589,0.7071,68.76314,-21.373694)">
			<stop
   offset="0.0533"
   style="stop-color:#555555"
   id="stop10" />
			<stop
   offset="0.21113414"
   style="stop-color:#BBBBBB"
   id="stop12" />
			<stop
   offset="0.36265489"
   style="stop-color:#ffffff;stop-opacity:1;"
   id="stop14" />
			<stop
   offset="0.60322773"
   style="stop-color:#ffffff;stop-opacity:1;"
   id="stop16" />
			<stop
   offset="0.84976584"
   style="stop-color:#e9e9e9;stop-opacity:1;"
   id="stop18" />
			<stop
   offset="1"
   style="stop-color:#555555"
   id="stop20" />
		</linearGradient>
		
	<linearGradient
   inkscape:collect="always"
   xlink:href="#XMLID_10_"
   id="linearGradient10168"
   gradientUnits="userSpaceOnUse"
   gradientTransform="matrix(1.5628683,-3.9649986e-4,-3.9652886e-4,1.562754,-20.23462,-103.35726)"
   x1="61.9692"
   y1="88.430702"
   x2="40.815899"
   y2="88.430702" /><linearGradient
   inkscape:collect="always"
   xlink:href="#XMLID_10_"
   id="linearGradient10170"
   gradientUnits="userSpaceOnUse"
   gradientTransform="matrix(1.0663866,2.7056218e-4,-2.7056218e-4,-1.0663866,9.2387294,154.26114)"
   x1="61.9692"
   y1="88.430702"
   x2="40.815899"
   y2="88.430702" /><linearGradient
   inkscape:collect="always"
   xlink:href="#XMLID_17_"
   id="linearGradient10203"
   x1="56.03125"
   y1="121.5"
   x2="72.03125"
   y2="121.5"
   gradientUnits="userSpaceOnUse" /><linearGradient
   inkscape:collect="always"
   xlink:href="#XMLID_17_"
   id="linearGradient10205"
   x1="56.03125"
   y1="110.5"
   x2="72.03125"
   y2="110.5"
   gradientUnits="userSpaceOnUse" /><linearGradient
   inkscape:collect="always"
   xlink:href="#XMLID_10_"
   id="linearGradient10219"
   gradientUnits="userSpaceOnUse"
   gradientTransform="matrix(1.0663866,2.7056218e-4,-2.7056218e-4,-1.0663866,9.2387294,154.26114)"
   x1="61.9692"
   y1="88.430702"
   x2="40.815899"
   y2="88.430702" /><linearGradient
   inkscape:collect="always"
   xlink:href="#XMLID_17_"
   id="linearGradient10221"
   gradientUnits="userSpaceOnUse"
   x1="56.03125"
   y1="110.5"
   x2="72.03125"
   y2="110.5" /><linearGradient
   inkscape:collect="always"
   xlink:href="#XMLID_14_"
   id="linearGradient10223"
   gradientUnits="userSpaceOnUse"
   gradientTransform="matrix(0.7074656,-0.7074656,0.7071068,0.7071068,-18.749172,36.539651)"
   x1="67.880402"
   y1="6.4331002"
   x2="105.3924"
   y2="43.945599" /><linearGradient
   inkscape:collect="always"
   xlink:href="#XMLID_15_"
   id="linearGradient10225"
   gradientUnits="userSpaceOnUse"
   gradientTransform="matrix(0.7074656,-0.7074656,0.7071068,0.7071068,-24.895791,39.125846)"
   x1="76.919403"
   y1="43.1436"
   x2="100.6411"
   y2="19.4214" /><linearGradient
   inkscape:collect="always"
   xlink:href="#XMLID_16_"
   id="linearGradient10227"
   gradientUnits="userSpaceOnUse"
   gradientTransform="matrix(0.7074656,-0.7074656,0.7071068,0.7071068,-24.895791,39.125846)"
   x1="76.281174"
   y1="43.060352"
   x2="86.611"
   y2="31.303225" /><linearGradient
   inkscape:collect="always"
   xlink:href="#XMLID_17_"
   id="linearGradient10229"
   gradientUnits="userSpaceOnUse"
   gradientTransform="matrix(1.0002442,-2.5378062e-4,-2.5378062e-4,1.0002442,8.6347844,-24.632129)"
   x1="38.757801"
   y1="7.4277"
   x2="63.923302"
   y2="7.4277" /><linearGradient
   inkscape:collect="always"
   xlink:href="#XMLID_17_"
   id="linearGradient10231"
   gradientUnits="userSpaceOnUse"
   x1="56.03125"
   y1="121.5"
   x2="72.03125"
   y2="121.5" /><linearGradient
   inkscape:collect="always"
   xlink:href="#XMLID_18_"
   id="linearGradient10233"
   gradientUnits="userSpaceOnUse"
   gradientTransform="matrix(0.7074656,-0.7074656,0.7071068,0.7071068,-18.749172,36.539651)"
   x1="-6.165"
   y1="112.5049"
   x2="11.0181"
   y2="112.5049" /><linearGradient
   inkscape:collect="always"
   xlink:href="#XMLID_18_"
   id="linearGradient10236"
   gradientUnits="userSpaceOnUse"
   gradientTransform="matrix(1.000506,0,0,0.9999986,6.1434191,2.5179016)"
   x1="-6.165"
   y1="112.5049"
   x2="11.0181"
   y2="112.5049" /><linearGradient
   inkscape:collect="always"
   xlink:href="#XMLID_17_"
   id="linearGradient10239"
   gradientUnits="userSpaceOnUse"
   x1="56.03125"
   y1="121.5"
   x2="72.03125"
   y2="121.5"
   gradientTransform="matrix(0.6632476,0.6632476,-0.6632476,0.6632476,45.216602,-10.083708)" /><linearGradient
   inkscape:collect="always"
   xlink:href="#XMLID_17_"
   id="linearGradient10242"
   gradientUnits="userSpaceOnUse"
   gradientTransform="matrix(0.7074589,0.7071,-0.7074589,0.7071,68.761161,-21.373784)"
   x1="38.757801"
   y1="7.4277"
   x2="63.923302"
   y2="7.4277" /><linearGradient
   inkscape:collect="always"
   xlink:href="#XMLID_16_"
   id="linearGradient10245"
   gradientUnits="userSpaceOnUse"
   gradientTransform="matrix(1.0005075,0,0,1.0000001,-3.223487e-2,2.1565487e-4)"
   x1="76.281174"
   y1="43.060352"
   x2="86.611"
   y2="31.303225" /><linearGradient
   inkscape:collect="always"
   xlink:href="#XMLID_15_"
   id="linearGradient10248"
   gradientUnits="userSpaceOnUse"
   gradientTransform="matrix(1.000506,0,0,0.9999986,-3.1603634e-2,3.0660104e-4)"
   x1="76.919403"
   y1="43.1436"
   x2="100.6411"
   y2="19.4214" /><linearGradient
   inkscape:collect="always"
   xlink:href="#XMLID_14_"
   id="linearGradient10251"
   gradientUnits="userSpaceOnUse"
   gradientTransform="matrix(1.000506,0,0,0.9999986,6.1434191,2.5179016)"
   x1="67.880402"
   y1="6.4331002"
   x2="105.3924"
   y2="43.945599" /><linearGradient
   inkscape:collect="always"
   xlink:href="#XMLID_17_"
   id="linearGradient10254"
   gradientUnits="userSpaceOnUse"
   x1="56.03125"
   y1="110.5"
   x2="72.03125"
   y2="110.5"
   gradientTransform="matrix(0.6632476,0.6632476,-0.6632476,0.6632476,45.216602,-10.083708)" /><linearGradient
   inkscape:collect="always"
   xlink:href="#XMLID_10_"
   id="linearGradient10257"
   gradientUnits="userSpaceOnUse"
   gradientTransform="matrix(0.7070989,0.7074579,0.7070989,-0.7074579,-50.969163,98.357178)"
   x1="61.9692"
   y1="88.430702"
   x2="40.815899"
   y2="88.430702" /><linearGradient
   inkscape:collect="always"
   xlink:href="#XMLID_17_"
   id="linearGradient10260"
   gradientUnits="userSpaceOnUse"
   gradientTransform="matrix(0.7074579,0.7070989,-0.7074579,0.7070989,68.761686,-21.373662)"
   x1="51.339096"
   y1="30.159527"
   x2="51.326984"
   y2="-17.582758" /><linearGradient
   inkscape:collect="always"
   xlink:href="#linearGradient6141"
   id="linearGradient6147"
   x1="7.2493796"
   y1="120.2508"
   x2="57.625931"
   y2="69.874252"
   gradientUnits="userSpaceOnUse"
   gradientTransform="matrix(0.9379738,0,0,0.9379738,-3.0282891e-2,8.9601042e-5)" /></defs><sodipodi:namedview
   inkscape:window-height="801"
   inkscape:window-width="898"
   inkscape:pageshadow="2"
   inkscape:pageopacity="0.0"
   guidetolerance="10.0"
   gridtolerance="10.0"
   objecttolerance="10.0"
   borderopacity="1.0"
   bordercolor="#666666"
   pagecolor="#ffffff"
   id="base"
   width="128px"
   height="128.00018px"
   inkscape:zoom="2"
   inkscape:cx="89.234459"
   inkscape:cy="46.128311"
   inkscape:window-x="7"
   inkscape:window-y="51"
   inkscape:current-layer="Livello_1"
   showgrid="false" />
<metadata
   id="metadata3">
	<ns:sfw>
		<ns:slices />
		<ns:sliceSourceBounds
   y="3.97"
   x="4"
   height="120.061"
   width="119.999"
   bottomLeftOrigin="true" />
	</ns:sfw>
<rdf:RDF><cc:Work
     rdf:about=""><dc:format>image/svg+xml</dc:format><dc:type
       rdf:resource="http://purl.org/dc/dcmitype/StillImage" /></cc:Work></rdf:RDF></metadata>

<linearGradient
   id="XMLID_11_"
   gradientUnits="userSpaceOnUse"
   x1="41.188999"
   y1="80.101601"
   x2="27.6451"
   y2="66.557701"
   gradientTransform="translate(8.7075442,3.5814057)">
	<stop
   offset="0.40830001"
   style="stop-color:#f0f0f0;stop-opacity:1;"
   id="stop25" />
	<stop
   offset="0.50628459"
   style="stop-color:#C3C3C3"
   id="stop27" />
	<stop
   offset="0.56008232"
   style="stop-color:#8b8b8b;stop-opacity:1;"
   id="stop29" /><stop
   id="stop12212"
   style="stop-color:#393939;stop-opacity:1;"
   offset="0.67944592" />
	
</linearGradient>

<linearGradient
   id="XMLID_12_"
   gradientUnits="userSpaceOnUse"
   x1="1.3501"
   y1="103.2324"
   x2="8.1437998"
   y2="110.0261"
   gradientTransform="matrix(-1,0,0,-1,18.150444,221.94371)">
	<stop
   offset="0"
   style="stop-color:#EEEEEE"
   id="stop36" />
	<stop
   offset="1"
   style="stop-color:#BBBBBB"
   id="stop38" />
</linearGradient>

<linearGradient
   id="XMLID_13_"
   gradientUnits="userSpaceOnUse"
   x1="-0.47799999"
   y1="105.0586"
   x2="6.3157001"
   y2="111.8523"
   gradientTransform="matrix(-1,0,0,-1,11.978544,219.42611)">
	<stop
   offset="0"
   style="stop-color:#BBBBBB"
   id="stop43" />
	<stop
   offset="1"
   style="stop-color:#555555"
   id="stop45" />
</linearGradient>

<linearGradient
   id="XMLID_14_"
   gradientUnits="userSpaceOnUse"
   x1="67.880402"
   y1="6.4331002"
   x2="105.3924"
   y2="43.945599"
   gradientTransform="translate(6.1416442,2.5179057)">
	<stop
   offset="0.0947"
   style="stop-color:#666666;stop-opacity:1;"
   id="stop50" /><stop
   id="stop3330"
   style="stop-color:#b7b7b7;stop-opacity:1;"
   offset="0.40963161" />
	
	
	<stop
   offset="0.50530702"
   style="stop-color:#ffffff;stop-opacity:1;"
   id="stop56" /><stop
   id="stop3328"
   style="stop-color:#a3a3a3;stop-opacity:1;"
   offset="0.63043118" />
	
	
	<stop
   offset="0.93489999"
   style="stop-color:#646464;stop-opacity:1;"
   id="stop62" />
</linearGradient>

<linearGradient
   id="XMLID_15_"
   gradientUnits="userSpaceOnUse"
   x1="76.919403"
   y1="43.1436"
   x2="100.6411"
   y2="19.4214"
   gradientTransform="translate(-3.0255781e-2,3.056501e-4)">
	<stop
   offset="0"
   style="stop-color:#aeaeae;stop-opacity:1;"
   id="stop67" />
	<stop
   offset="0.0602"
   style="stop-color:#b2b2b2;stop-opacity:1;"
   id="stop69" />
	<stop
   offset="0.18103883"
   style="stop-color:#d9d9d9;stop-opacity:1;"
   id="stop71" />
	<stop
   offset="0.3195"
   style="stop-color:#ffffff;stop-opacity:1;"
   id="stop73" />
	<stop
   offset="0.43529999"
   style="stop-color:#f4f4f4;stop-opacity:1;"
   id="stop75" />
	<stop
   offset="0.6028"
   style="stop-color:#D4D4D4"
   id="stop77" />
	<stop
   offset="0.7633"
   style="stop-color:#BBBBBB"
   id="stop79" />
	<stop
   offset="0.80790001"
   style="stop-color:#b9bcc1;stop-opacity:1;"
   id="stop81" />
	<stop
   offset="0.92970002"
   style="stop-color:#bdc0c3;stop-opacity:1;"
   id="stop83" />
	<stop
   offset="1"
   style="stop-color:#b5b9bb;stop-opacity:1;"
   id="stop85" />
</linearGradient>


<linearGradient
   id="XMLID_17_"
   gradientUnits="userSpaceOnUse"
   x1="38.757801"
   y1="7.4277"
   x2="63.923302"
   y2="7.4277"
   gradientTransform="matrix(0.7071,0.7071,-0.7071,0.7071,68.728244,-21.373694)">
	<stop
   offset="0"
   style="stop-color:#3a3a3a;stop-opacity:1;"
   id="stop111" />
	<stop
   offset="0.60194176"
   style="stop-color:#ffffff;stop-opacity:1;"
   id="stop113" />
	<stop
   offset="1"
   style="stop-color:#888888"
   id="stop115" />
</linearGradient>

<linearGradient
   id="XMLID_18_"
   gradientUnits="userSpaceOnUse"
   x1="-6.165"
   y1="112.5049"
   x2="11.0181"
   y2="112.5049"
   gradientTransform="translate(6.1416442,2.5179057)">
	<stop
   offset="0"
   style="stop-color:#BBBBBB"
   id="stop120" />
	<stop
   offset="1"
   style="stop-color:#000000"
   id="stop122" />
</linearGradient>
<path
   sodipodi:type="arc"
   style="opacity:0.38139535;fill:url(#radialGradient3336);fill-opacity:1;fill-rule:nonzero;stroke:none;stroke-width:0;stroke-linecap:round;stroke-linejoin:round;stroke-miterlimit:4;stroke-dasharray:none;stroke-dashoffset:4;stroke-opacity:1"
   id="path1563"
   sodipodi:cx="63.912209"
   sodipodi:cy="115.70919"
   sodipodi:rx="63.912209"
   sodipodi:ry="12.641975"
   d="M 127.82442,115.70919 A 63.912209,12.641975 0 1 1 0,115.70919 A 63.912209,12.641975 0 1 1 127.82442,115.70919 z"
   transform="matrix(0.9392625,0,0,0.3849247,-3.0305424e-2,70.65537)" /><path
   style="fill:url(#linearGradient10257)"
   d="M 76.409965,31.804521 C 75.443602,30.924647 74.358193,30.74814 72.741376,32.364138 L 2.6029446,103.87051 C 2.5709349,103.90251 2.5697802,103.93915 2.5407651,103.97414 C -0.95300024,107.73014 -0.88909101,113.60483 2.7687564,117.25983 C 6.4266061,120.91583 12.298532,120.98281 16.054435,117.48781 C 16.089454,117.45981 16.127052,117.45665 16.158067,117.42564 L 87.726626,47.307934 C 90.961262,44.07694 86.953983,42.972182 84.679833,40.696186 L 79.373852,35.390204 C 78.234777,34.251706 77.376328,32.684395 76.409965,31.804521 z M 16.054435,104.0156 C 18.985584,106.94681 18.986936,111.6981 16.054435,114.62757 C 13.125068,117.55544 8.3751817,117.55722 5.4424732,114.62757 C 2.5097631,111.69791 2.5115337,106.94662 5.4424732,104.0156 C 8.3733995,101.08617 13.121732,101.08593 16.054435,104.0156 z"
   id="path10166" /><path
   style="fill:url(#linearGradient10254)"
   d="M 17.380929,102.68911 C 14.448227,99.759441 9.6998947,99.759672 6.7689685,102.68911 C 6.5434272,102.91465 6.3380147,103.14841 6.1471739,103.39382 C 9.0911932,101.11022 13.349065,101.31303 16.054435,104.0156 C 18.760027,106.72126 18.966467,110.98012 16.676229,113.92286 C 16.921572,113.73224 17.155515,113.52636 17.380929,113.30106 C 20.313432,110.37162 20.312079,105.62033 17.380929,102.68911 z"
   id="path10186" /><path
   d="M 118.73145,16.620281 L 103.19559,32.150258 C 99.808888,35.534253 93.549724,33.235256 90.161009,29.850261 C 86.777299,26.465265 84.476133,20.211276 87.860847,16.825281 L 103.4007,1.2963046 C 92.524205,-2.8616904 79.068398,3.9452996 74.830255,8.1812926 C 63.636596,19.367278 62.838191,34.722253 74.065868,45.942236 C 85.286543,57.160218 100.64931,56.490219 111.84197,45.303238 C 116.08011,41.066244 122.89155,27.489265 118.73145,16.620281 z"
   id="path64"
   style="fill:url(#linearGradient10251)" /><path
   d="M 77.659687,11.00929 C 72.7412,15.925283 70.031829,21.867273 70.031829,27.741264 L 70.030829,27.742263 C 70.031829,33.311256 72.405028,38.626247 76.8953,43.113241 C 81.422589,47.639233 86.778299,50.03123 92.382134,50.03123 L 92.382134,50.03123 C 98.230091,50.03123 104.13507,47.348235 109.01153,42.474241 C 111.82296,39.664246 115.57185,32.245257 115.93503,25.071268 C 111.35672,29.647261 106.02403,34.977254 106.02403,34.977254 C 100.96247,40.037245 92.380132,37.724249 87.331579,32.680256 C 84.260026,29.607261 82.198983,25.228268 82.198981,21.129274 C 82.199982,18.494279 83.051415,15.977281 85.029413,13.997286 C 85.030414,13.996287 90.525193,8.5042936 94.983447,4.0492996 C 87.471649,4.3972996 80.050896,8.6212926 77.659687,11.00929 z"
   id="path87"
   style="fill:url(#linearGradient10248);fill-opacity:1" /><path
   d="M 85.387594,16.81828 C 81.792777,20.411275 84.662228,27.477265 88.593216,31.406258 C 92.528207,35.337253 99.594781,38.205248 103.19059,34.613254 C 103.19059,34.613254 118.96457,17.23428 118.73045,16.620281 L 103.19459,32.150258 C 99.807887,35.534253 93.548721,33.235256 90.160008,29.850261 C 86.776297,26.465265 84.475134,20.211276 87.859846,16.825281 L 103.3997,1.2963046 L 85.387594,16.81828 z"
   id="path117"
   style="fill:url(#linearGradient10260)"
   sodipodi:nodetypes="csccccccc" /><path
   style="fill:url(#linearGradient10239)"
   d="M 4.8206788,104.7203 C 4.5732966,104.91219 4.3431717,105.11502 4.1159781,105.34209 C 1.1850387,108.27311 1.1832679,113.0244 4.1159781,115.95406 C 7.0486866,118.88371 11.798573,118.88193 14.72794,115.95406 C 14.953601,115.72862 15.158803,115.49468 15.349734,115.24937 C 12.406745,117.53597 8.1495117,117.33178 5.4424732,114.62757 C 2.7354329,111.92335 2.5314737,107.66384 4.8206788,104.7203 z"
   id="path10190" /><path
   d="M 2.7698107,116.26114 C 1.0249254,114.51715 0.10446119,112.26914 -0.010594108,109.98615 C -0.15166736,112.60114 0.76779565,115.26315 2.7698085,117.26114 C 6.4276571,120.91714 12.302628,120.99014 16.058531,117.49514 C 16.09355,117.46714 16.135568,117.44614 16.166583,117.41514 L 17.167093,116.41613 C 13.411193,119.90912 6.4276593,119.91714 2.7698107,116.26114 z"
   id="path124"
   style="fill:url(#linearGradient10236)" />
<path
   style="opacity:0.5;fill:url(#linearGradient6147);fill-opacity:1;fill-rule:nonzero"
   d="M 40.507771,65.247889 L 2.6077682,103.88068 C 2.5757585,103.91268 2.57816,103.93363 2.5491449,103.96861 C -0.94462033,107.72461 -0.90352078,113.59181 2.7543267,117.24682 C 6.4121762,120.90281 12.305927,120.97629 16.061829,117.48131 C 16.09685,117.45331 16.118749,117.45368 16.149765,117.42267 L 53.727337,80.60721 C 50.310103,74.616552 45.800858,69.391185 40.507771,65.247889 z M 10.756415,101.82887 C 12.676452,101.82884 14.595478,102.5624 16.061829,104.02724 C 18.992979,106.95846 18.994332,111.70863 16.061829,114.63808 C 13.132463,117.56595 8.3837096,117.56772 5.4510012,114.63808 C 2.5182907,111.70843 2.5200618,106.95826 5.4510012,104.02724 C 6.9164642,102.56253 8.8363786,101.82889 10.756415,101.82887 z"
   id="path2236" /><path
   d="M 15.53853,96.062484 C 14.714272,96.978648 14.388771,98.224342 14.531425,99.522996 C 14.683291,100.89486 15.362425,102.33175 16.534111,103.49995 C 18.808747,105.77767 22.085493,106.19595 23.991747,104.45325 C 24.002743,104.47224 67.492602,61.011175 77.727424,50.782839 C 77.294557,50.416149 69.737775,42.875437 69.289231,42.347073 C 66.356562,45.277882 15.53853,96.062484 15.53853,96.062484 z"
   id="path33"
   style="opacity:0.5;fill:url(#linearGradient9291)" /><path
   style="fill:url(#linearGradient3301)"
   id="path108"
   d="M 94.304817,48.937987 C 88.699982,48.937987 83.345275,46.54599 78.817985,42.019997 C 74.327715,37.533004 71.954514,32.218012 71.953513,26.64902 L 71.954514,26.648021 C 71.954514,20.77403 74.663885,14.832041 79.582372,9.9160496 C 80.40779,9.0910496 81.842516,8.0490506 83.662436,7.0220526 C 80.92405,8.3390496 78.759956,9.8200476 77.6624,10.916047 C 72.743913,15.83204 70.034544,21.774029 70.034544,27.64802 L 70.033545,27.649019 C 70.034544,33.218011 72.407745,38.533003 76.898015,43.019996 C 81.425303,47.545989 86.781013,49.937985 92.384847,49.937985 C 96.062706,49.937985 99.763578,48.874986 103.21632,46.874989 C 100.32787,48.224987 97.309337,48.937987 94.304817,48.937987 z" /></svg>