<?xml version="1.0" encoding="UTF-8" standalone="no"?>
<!-- Created with Inkscape (http://www.inkscape.org/) -->
<svg
   xmlns:dc="http://purl.org/dc/elements/1.1/"
   xmlns:cc="http://creativecommons.org/ns#"
   xmlns:rdf="http://www.w3.org/1999/02/22-rdf-syntax-ns#"
   xmlns:svg="http://www.w3.org/2000/svg"
   xmlns="http://www.w3.org/2000/svg"
   xmlns:xlink="http://www.w3.org/1999/xlink"
   xmlns:sodipodi="http://sodipodi.sourceforge.net/DTD/sodipodi-0.dtd"
   xmlns:inkscape="http://www.inkscape.org/namespaces/inkscape"
   width="72"
   height="72"
   id="svg3611"
   sodipodi:version="0.32"
   inkscape:version="0.46"
   version="1.0"
   sodipodi:docname="plugin-newton.svg"
   inkscape:output_extension="org.inkscape.output.svg.inkscape">
  <defs
     id="defs3613">
    <inkscape:perspective
       sodipodi:type="inkscape:persp3d"
       inkscape:vp_x="0 : 16 : 1"
       inkscape:vp_y="0 : 1000 : 0"
       inkscape:vp_z="32 : 16 : 1"
       inkscape:persp3d-origin="16 : 10.666667 : 1"
       id="perspective3619" />
    <radialGradient
       r="2.171875"
       fy="-12.203125"
       fx="51.4375"
       cy="-12.203125"
       cx="51.4375"
       gradientTransform="matrix(-1.9576392,-9.2540676e-8,-1.2888861e-7,1.4565793,110.01781,62.73803)"
       gradientUnits="userSpaceOnUse"
       id="radialGradient8025"
       xlink:href="#linearGradient51765"
       inkscape:collect="always" />
    <radialGradient
       r="2.171875"
       fy="-12.203125"
       fx="51.4375"
       cy="-12.203125"
       cx="51.4375"
       gradientTransform="matrix(1.9576392,-8.146468e-7,6.6614241e-7,1.4565793,-59.017557,62.738067)"
       gradientUnits="userSpaceOnUse"
       id="radialGradient8023"
       xlink:href="#linearGradient51765"
       inkscape:collect="always" />
    <linearGradient
       y2="-5.5633383"
       x2="32.084972"
       y1="-14.402173"
       x1="32.084972"
       gradientTransform="matrix(0.9788196,0,0,0.7154223,-8.5008021,52.112719)"
       gradientUnits="userSpaceOnUse"
       id="linearGradient8021"
       xlink:href="#linearGradient47870"
       inkscape:collect="always" />
    <linearGradient
       y2="19.53867"
       x2="24.925514"
       y1="40.000107"
       x1="24.925514"
       gradientTransform="matrix(1.2446306,0,0,1.1767765,-7.0741541,-3.9826537)"
       gradientUnits="userSpaceOnUse"
       id="linearGradient8015"
       xlink:href="#linearGradient2781"
       inkscape:collect="always" />
    <linearGradient
       y2="8.1244717"
       x2="16.491102"
       y1="3.9467564"
       x1="16.440886"
       gradientTransform="matrix(1.2446306,0,0,1.2707947,-7.0741541,-5.3017617)"
       gradientUnits="userSpaceOnUse"
       id="linearGradient8012"
       xlink:href="#linearGradient3674"
       inkscape:collect="always" />
    <linearGradient
       y2="13.408723"
       x2="9.5"
       y1="16.26436"
       x1="9.5"
       gradientTransform="matrix(1.2605424,0,0,1.2058553,-7.4733927,-4.9459437)"
       gradientUnits="userSpaceOnUse"
       id="linearGradient8009"
       xlink:href="#linearGradient3690"
       inkscape:collect="always" />
    <linearGradient
       id="linearGradient3690">
      <stop
         style="stop-color:white;stop-opacity:1;"
         offset="0"
         id="stop3692" />
      <stop
         style="stop-color:white;stop-opacity:0.46875"
         offset="1"
         id="stop3694" />
    </linearGradient>
    <linearGradient
       id="linearGradient3674">
      <stop
         style="stop-color:#3465a4;stop-opacity:1"
         offset="0"
         id="stop3676" />
      <stop
         style="stop-color:#729fcf;stop-opacity:1;"
         offset="1"
         id="stop3678" />
    </linearGradient>
    <linearGradient
       id="linearGradient2781">
      <stop
         style="stop-color:#d3d7cf;stop-opacity:1"
         offset="0"
         id="stop2783" />
      <stop
         style="stop-color:#eeeeec;stop-opacity:1"
         offset="1"
         id="stop2785" />
    </linearGradient>
    <radialGradient
       gradientUnits="userSpaceOnUse"
       gradientTransform="matrix(-5.189409e-2,1.7251908,-2.0664067,-6.2888621e-2,77.196893,-35.974945)"
       r="8.7322731"
       fy="29.052198"
       fx="29.358974"
       cy="29.052198"
       cx="29.358974"
       id="radialGradient6152"
       xlink:href="#linearGradient6146"
       inkscape:collect="always" />
    <linearGradient
       id="linearGradient51765">
      <stop
         style="stop-color:#000000;stop-opacity:1"
         offset="0"
         id="stop51767" />
      <stop
         style="stop-color:#000000;stop-opacity:0"
         offset="1"
         id="stop51769" />
    </linearGradient>
    <linearGradient
       id="linearGradient47870">
      <stop
         style="stop-color:#000000;stop-opacity:0"
         offset="0"
         id="stop47872" />
      <stop
         style="stop-color:#000000;stop-opacity:1"
         offset="0.5"
         id="stop47878" />
      <stop
         style="stop-color:#000000;stop-opacity:0"
         offset="1"
         id="stop47874" />
    </linearGradient>
    <linearGradient
       id="linearGradient6146">
      <stop
         id="stop6148"
         offset="0"
         style="stop-color:#729fcf;stop-opacity:1" />
      <stop
         id="stop6150"
         offset="1"
         style="stop-color:#3465a4;stop-opacity:1" />
    </linearGradient>
    <inkscape:perspective
       id="perspective3662"
       inkscape:persp3d-origin="16 : 10.666667 : 1"
       inkscape:vp_z="32 : 16 : 1"
       inkscape:vp_y="0 : 1000 : 0"
       inkscape:vp_x="0 : 16 : 1"
       sodipodi:type="inkscape:persp3d" />
    <radialGradient
       r="21.535715"
       fy="44.051216"
       fx="25.304846"
       cy="44.051216"
       cx="25.304846"
       gradientTransform="matrix(0.928681,0,0,0.102029,1.804722,37.76401)"
       gradientUnits="userSpaceOnUse"
       id="radialGradient7927"
       xlink:href="#linearGradient2189"
       inkscape:collect="always" />
    <radialGradient
       r="20.978409"
       fy="15.445013"
       fx="16.981855"
       cy="15.445013"
       cx="16.981855"
       gradientTransform="matrix(-1.50631,4.232823e-3,3.006144e-3,1.069777,54.850852,-0.3745243)"
       gradientUnits="userSpaceOnUse"
       id="radialGradient7925"
       xlink:href="#linearGradient2097"
       inkscape:collect="always" />
    <radialGradient
       r="21.535715"
       fy="44.051216"
       fx="25.304846"
       cy="44.051216"
       cx="25.304846"
       gradientTransform="matrix(0.928681,0,0,0.102029,1.804722,37.76401)"
       gradientUnits="userSpaceOnUse"
       id="radialGradient7918"
       xlink:href="#linearGradient2189"
       inkscape:collect="always" />
    <radialGradient
       r="20.978409"
       fy="15.445013"
       fx="16.981855"
       cy="15.445013"
       cx="16.981855"
       gradientTransform="matrix(-1.50631,4.232823e-3,3.006144e-3,1.069777,54.81232,-0.459221)"
       gradientUnits="userSpaceOnUse"
       id="radialGradient7916"
       xlink:href="#linearGradient2097"
       inkscape:collect="always" />
    <radialGradient
       gradientUnits="userSpaceOnUse"
       gradientTransform="matrix(0.928681,0,0,0.102029,1.804722,37.76401)"
       r="21.535715"
       fy="44.051216"
       fx="25.304846"
       cy="44.051216"
       cx="25.304846"
       id="radialGradient2195"
       xlink:href="#linearGradient2189"
       inkscape:collect="always" />
    <radialGradient
       gradientUnits="userSpaceOnUse"
       gradientTransform="matrix(-1.50631,4.232823e-3,3.006144e-3,1.069777,54.81232,-0.459221)"
       r="20.978409"
       fy="15.445013"
       fx="16.981855"
       cy="15.445013"
       cx="16.981855"
       id="radialGradient2103"
       xlink:href="#linearGradient2097"
       inkscape:collect="always" />
    <linearGradient
       id="linearGradient2097"
       inkscape:collect="always">
      <stop
         id="stop2099"
         offset="0"
         style="stop-color:#ffffff;stop-opacity:1.0000000" />
      <stop
         id="stop2101"
         offset="1"
         style="stop-color:#e7e7e3;stop-opacity:1.0000000" />
    </linearGradient>
    <linearGradient
       id="linearGradient2189"
       inkscape:collect="always">
      <stop
         id="stop2191"
         offset="0"
         style="stop-color:#000000;stop-opacity:1;" />
      <stop
         id="stop2193"
         offset="1"
         style="stop-color:#000000;stop-opacity:0;" />
    </linearGradient>
    <inkscape:perspective
       id="perspective3730"
       inkscape:persp3d-origin="16 : 10.666667 : 1"
       inkscape:vp_z="32 : 16 : 1"
       inkscape:vp_y="0 : 1000 : 0"
       inkscape:vp_x="0 : 16 : 1"
       sodipodi:type="inkscape:persp3d" />
  </defs>
  <sodipodi:namedview
     id="base"
     pagecolor="#ffffff"
     bordercolor="#666666"
     borderopacity="1.0"
     inkscape:pageopacity="0.0"
     inkscape:pageshadow="2"
     inkscape:zoom="2.7994505"
     inkscape:cx="-7.0567244"
     inkscape:cy="40.643976"
     inkscape:current-layer="g3749"
     showgrid="true"
     inkscape:grid-bbox="true"
     inkscape:document-units="px"
     inkscape:window-width="1680"
     inkscape:window-height="1005"
     inkscape:window-x="0"
     inkscape:window-y="0" />
  <metadata
     id="metadata3616">
    <rdf:RDF>
      <cc:Work
         rdf:about="">
        <dc:format>image/svg+xml</dc:format>
        <dc:type
           rdf:resource="http://purl.org/dc/dcmitype/StillImage" />
      </cc:Work>
    </rdf:RDF>
  </metadata>
  <g
     id="layer1"
     inkscape:label="Layer 1"
     inkscape:groupmode="layer">
    <g
       inkscape:label="Layer 1"
       id="g3691"
       transform="matrix(2.1609422,0,0,2.1609422,1.1462217,-0.1359203)">
      <g
         id="g54724"
         transform="matrix(0.7831573,0,0,1.3618401,-3.9706075,-33.54888)">
        <rect
           id="rect46899"
           style="opacity:0.3;fill:url(#linearGradient8021);fill-opacity:1;fill-rule:evenodd;stroke:none;stroke-width:1.02400005;stroke-linecap:butt;stroke-linejoin:miter;stroke-miterlimit:4;stroke-dasharray:none;stroke-dashoffset:0;stroke-opacity:1"
           y="41.809082"
           x="9.3215466"
           height="6.3234997"
           width="32.357079" />
        <path
           id="path48849"
           style="opacity:0.3;fill:url(#radialGradient8023);fill-opacity:1;fill-rule:evenodd;stroke:none;stroke-width:1.02400005;stroke-linecap:butt;stroke-linejoin:miter;stroke-miterlimit:4;stroke-dasharray:none;stroke-dashoffset:0;stroke-opacity:1"
           d="M 41.6785,41.799698 L 41.6785,48.126714 C 44.022298,48.102828 45.930248,46.705313 45.930248,44.974385 C 45.930248,43.243458 44.022299,41.823584 41.6785,41.799698 z" />
        <path
           id="path52742"
           style="opacity:0.3;fill:url(#radialGradient8025);fill-opacity:1;fill-rule:evenodd;stroke:none;stroke-width:1.02400005;stroke-linecap:butt;stroke-linejoin:miter;stroke-miterlimit:4;stroke-dasharray:none;stroke-dashoffset:0;stroke-opacity:1"
           d="M 9.3217476,41.799698 L 9.3217476,48.126714 C 6.9779494,48.102828 5.07,46.705313 5.07,44.974385 C 5.07,43.243458 6.9779484,41.823584 9.3217476,41.799698 z" />
      </g>
      <rect
         ry="2"
         rx="1.9999999"
         y="2.3087864"
         x="1.5000011"
         height="26.191216"
         width="28.999998"
         id="rect1915"
         style="fill:url(#linearGradient8015);fill-opacity:1;stroke:#888a85;stroke-width:1.00000024;stroke-miterlimit:4;stroke-dasharray:none;stroke-opacity:1" />
      <path
         sodipodi:nodetypes="cccccc"
         id="path1917"
         d="M 1.5,6.6284773 L 1.5,3.3546753 C 1.5,2.3271863 2.283878,1.5000013 3.257574,1.5000013 L 28.742391,1.5000013 C 29.716086,1.5000013 30.499965,2.3271863 30.499965,3.3546753 L 30.499965,6.6284773"
         style="fill:url(#linearGradient8012);fill-opacity:1;stroke:#204a87;stroke-width:1.00000048;stroke-miterlimit:4;stroke-opacity:1" />
      <rect
         ry="1.5110158"
         rx="1.5110157"
         y="2.5019684"
         x="2.4871008"
         height="25.076571"
         width="27.042036"
         id="rect1919"
         style="opacity:0.8;fill:none;fill-opacity:1;stroke:url(#linearGradient8009);stroke-width:1.00000095;stroke-miterlimit:4;stroke-dasharray:none;stroke-opacity:1" />
    </g>
    <g
       inkscape:label="Layer 1"
       id="g3749"
       transform="matrix(1.8753568,0,0,2.1124953,-273.4992,22.067174)">
      <path
         sodipodi:nodetypes="csssc"
         id="path3668"
         d="M 15.523796,20.224456 C 14.918245,20.224456 14.431341,20.742826 14.431341,21.387509 C 14.431341,22.032192 14.918245,22.569321 15.523796,22.569321 C 16.129346,22.569321 16.568189,22.015109 16.568189,21.370426 C 16.568189,20.725743 16.129346,20.224456 15.523796,20.224456 z"
         style="opacity:0.35800003;fill:none;fill-opacity:1;stroke:#eeeeec;stroke-width:0.85735518;stroke-miterlimit:4;stroke-dasharray:none;stroke-opacity:1" />
      <path
         transform="matrix(0.8031632,-0.528882,0.6710926,0.8031632,198.65398,0.4815058)"
         style="font-size:9px;font-style:normal;font-weight:normal;fill:#000000;fill-opacity:1;stroke:none;stroke-width:1px;stroke-linecap:butt;stroke-linejoin:miter;stroke-opacity:1;font-family:Bitstream Vera Sans"
         d="M -43.58252,-10.650148 C -44.229984,-10.295656 -44.862796,-10.11841 -45.480957,-10.11841 C -46.228029,-10.11841 -46.811037,-10.333742 -47.22998,-10.764406 C -47.648926,-11.195069 -47.858399,-11.783936 -47.858398,-12.531007 C -47.858399,-13.245848 -47.66504,-13.822996 -47.27832,-14.262453 C -46.888673,-14.704831 -46.362795,-14.926022 -45.700684,-14.926027 C -45.10596,-14.926022 -44.619633,-14.720944 -44.241699,-14.310793 C -43.863774,-13.903562 -43.674809,-13.358641 -43.674805,-12.676027 L -43.674805,-12.469484 L -47.067383,-12.469484 C -47.043946,-11.921631 -46.897462,-11.502686 -46.62793,-11.212648 C -46.355471,-10.922608 -45.976076,-10.777589 -45.489746,-10.777589 C -44.91846,-10.777589 -44.357426,-10.943116 -43.806641,-11.274171 L -43.58252,-10.650148 M -44.483398,-13.062746 C -44.521488,-13.434813 -44.656254,-13.730711 -44.887695,-13.950441 C -45.119144,-14.170164 -45.393069,-14.280027 -45.709473,-14.280031 C -46.058108,-14.280027 -46.349611,-14.173093 -46.583984,-13.95923 C -46.818361,-13.748289 -46.970704,-13.449461 -47.041016,-13.062746 L -44.483398,-13.062746 M -38.449707,-13.844972 L -42.712402,-13.844972 L -42.712402,-14.530519 L -38.449707,-14.530519 L -38.449707,-13.844972 M -38.449707,-11.937746 L -42.712402,-11.937746 L -42.712402,-12.623293 L -38.449707,-12.623293 L -38.449707,-11.937746 M -31.049316,-10.237062 L -31.813965,-10.237062 L -31.813965,-13.155031 C -31.813971,-13.521239 -31.887213,-13.796629 -32.033691,-13.981203 C -32.177252,-14.165769 -32.392584,-14.258054 -32.679688,-14.258058 C -32.861333,-14.258054 -33.056157,-14.200925 -33.26416,-14.086671 C -33.469243,-13.97241 -33.655278,-13.814207 -33.822266,-13.612062 C -33.81641,-13.562254 -33.813481,-13.475828 -33.813477,-13.352785 L -33.813477,-10.237062 L -34.578125,-10.237062 L -34.578125,-13.155031 C -34.578128,-13.521239 -34.646976,-13.796629 -34.784668,-13.981203 C -34.919437,-14.165769 -35.12305,-14.258054 -35.395508,-14.258058 C -35.802737,-14.258054 -36.196779,-14.009031 -36.577637,-13.510988 L -36.577637,-10.237062 L -37.342285,-10.237062 L -37.342285,-14.816164 L -36.577637,-14.816164 L -36.577637,-14.170168 C -36.176271,-14.674069 -35.713381,-14.926022 -35.188965,-14.926027 C -34.570804,-14.926022 -34.154789,-14.67114 -33.940918,-14.161379 C -33.521977,-14.67114 -33.03272,-14.926022 -32.473145,-14.926027 C -32.016119,-14.926022 -31.664557,-14.791257 -31.418457,-14.52173 C -31.17237,-14.252195 -31.049323,-13.862547 -31.049316,-13.352785 L -31.049316,-10.237062 M -30.086914,-12.531007 C -30.086914,-13.286864 -29.870118,-13.874265 -29.436523,-14.293214 C -29.002931,-14.715085 -28.463869,-14.926022 -27.819336,-14.926027 C -27.274417,-14.926022 -26.755863,-14.782468 -26.263672,-14.495363 L -26.487793,-13.880129 C -26.912601,-14.140867 -27.353519,-14.271238 -27.810547,-14.271242 C -28.244143,-14.271238 -28.6001,-14.113035 -28.878418,-13.796632 C -29.15674,-13.480223 -29.2959,-13.058348 -29.295898,-12.531007 C -29.2959,-11.994873 -29.15381,-11.568604 -28.869629,-11.252199 C -28.585451,-10.935792 -28.229494,-10.777589 -27.801758,-10.777589 C -27.365237,-10.777589 -26.906742,-10.927003 -26.42627,-11.225832 L -26.188965,-10.623781 C -26.698734,-10.286867 -27.236331,-10.11841 -27.801758,-10.11841 C -28.478518,-10.11841 -29.029298,-10.338136 -29.454102,-10.777589 C -29.875977,-11.219971 -30.086914,-11.804443 -30.086914,-12.531007 M -21.952637,-13.036379 L -22.708496,-13.036379 L -23.833496,-15.734621 L -24.949707,-13.036379 L -25.705566,-13.036379 L -24.145508,-16.556398 L -23.508301,-16.556398 L -21.952637,-13.036379 M -17.246094,-10.237062 L -21.368164,-10.237062 L -21.368164,-10.883058 C -20.635743,-11.568604 -20.027834,-12.126709 -19.544434,-12.557375 C -19.061038,-12.988036 -18.706546,-13.374754 -18.480957,-13.717531 C -18.252445,-14.06323 -18.138187,-14.414792 -18.138184,-14.772218 C -18.138187,-15.112057 -18.255375,-15.381588 -18.489746,-15.580812 C -18.724124,-15.780025 -19.027346,-15.879635 -19.399414,-15.87964 C -19.912111,-15.879635 -20.454103,-15.730221 -21.025391,-15.431398 L -21.249512,-16.059816 C -20.637208,-16.390865 -19.998537,-16.556392 -19.333496,-16.556398 C -18.738773,-16.556392 -18.256839,-16.3894 -17.887695,-16.055421 C -17.515629,-15.721432 -17.329594,-15.293698 -17.32959,-14.772218 C -17.329594,-14.382566 -17.448246,-13.997312 -17.685547,-13.616457 C -17.922855,-13.235594 -18.308109,-12.80786 -18.841309,-12.333254 L -20.370605,-10.957765 L -17.246094,-10.957765 L -17.246094,-10.237062"
         id="flowRoot2434" />
    </g>
  </g>
</svg>
