<?xml version="1.0" encoding="UTF-8" standalone="no"?>
<!-- Created with Inkscape (http://www.inkscape.org/) -->
<svg
   xmlns:dc="http://purl.org/dc/elements/1.1/"
   xmlns:cc="http://creativecommons.org/ns#"
   xmlns:rdf="http://www.w3.org/1999/02/22-rdf-syntax-ns#"
   xmlns:svg="http://www.w3.org/2000/svg"
   xmlns="http://www.w3.org/2000/svg"
   xmlns:xlink="http://www.w3.org/1999/xlink"
   xmlns:sodipodi="http://sodipodi.sourceforge.net/DTD/sodipodi-0.dtd"
   xmlns:inkscape="http://www.inkscape.org/namespaces/inkscape"
   width="72"
   height="72"
   id="svg2"
   sodipodi:version="0.32"
   inkscape:version="0.46"
   version="1.0"
   sodipodi:docname="plugin-atlantis.svg"
   inkscape:output_extension="org.inkscape.output.svg.inkscape">
  <defs
     id="defs4">
    <linearGradient
       inkscape:collect="always"
       id="linearGradient3301">
      <stop
         style="stop-color:#ffff00;stop-opacity:1;"
         offset="0"
         id="stop3303" />
      <stop
         style="stop-color:#ffff00;stop-opacity:0;"
         offset="1"
         id="stop3305" />
    </linearGradient>
    <linearGradient
       id="linearGradient3287">
      <stop
         style="stop-color:#eeffff;stop-opacity:1"
         offset="0"
         id="stop3289" />
      <stop
         id="stop3295"
         offset="0.67075634"
         style="stop-color:#dddddd;stop-opacity:1" />
      <stop
         style="stop-color:#eeeeee;stop-opacity:1"
         offset="1"
         id="stop3291" />
    </linearGradient>
    <linearGradient
       id="linearGradient3275">
      <stop
         style="stop-color:#000000;stop-opacity:1"
         offset="0"
         id="stop3277" />
      <stop
         id="stop3285"
         offset="0.5"
         style="stop-color:#323232;stop-opacity:1" />
      <stop
         style="stop-color:#000000;stop-opacity:1"
         offset="1"
         id="stop3279" />
    </linearGradient>
    <linearGradient
       inkscape:collect="always"
       id="linearGradient3269">
      <stop
         style="stop-color:#ffffff;stop-opacity:1;"
         offset="0"
         id="stop3271" />
      <stop
         style="stop-color:#ffffff;stop-opacity:0;"
         offset="1"
         id="stop3273" />
    </linearGradient>
    <linearGradient
       inkscape:collect="always"
       id="linearGradient3259">
      <stop
         style="stop-color:#2e3436;stop-opacity:1;"
         offset="0"
         id="stop3261" />
      <stop
         style="stop-color:#2e3436;stop-opacity:0;"
         offset="1"
         id="stop3263" />
    </linearGradient>
    <linearGradient
       id="linearGradient3249">
      <stop
         style="stop-color:#323232;stop-opacity:1;"
         offset="0"
         id="stop3251" />
      <stop
         style="stop-color:#323232;stop-opacity:0;"
         offset="1"
         id="stop3253" />
    </linearGradient>
    <inkscape:perspective
       sodipodi:type="inkscape:persp3d"
       inkscape:vp_x="-364.28571 : 524.75252 : 1"
       inkscape:vp_y="0 : 1000 : 0"
       inkscape:vp_z="601.23734 : 690.46681 : 1"
       inkscape:persp3d-origin="372.04724 : 350.78739 : 1"
       id="perspective10" />
    <linearGradient
       inkscape:collect="always"
       xlink:href="#linearGradient3249"
       id="linearGradient3255"
       x1="199.84715"
       y1="874.93201"
       x2="269.09747"
       y2="782.78912"
       gradientUnits="userSpaceOnUse" />
    <linearGradient
       inkscape:collect="always"
       xlink:href="#linearGradient3259"
       id="linearGradient3265"
       x1="414.09714"
       y1="832.46796"
       x2="331.23999"
       y2="765.32507"
       gradientUnits="userSpaceOnUse" />
    <radialGradient
       inkscape:collect="always"
       xlink:href="#linearGradient3269"
       id="radialGradient3277"
       cx="223.57362"
       cy="676.00421"
       fx="223.57362"
       fy="676.00421"
       r="116.16487"
       gradientTransform="matrix(-0.9758465,1.0842071,-1.00842,-0.9076338,1144.4531,1023.059)"
       gradientUnits="userSpaceOnUse" />
    <linearGradient
       inkscape:collect="always"
       xlink:href="#linearGradient3249"
       id="linearGradient3290"
       gradientUnits="userSpaceOnUse"
       x1="199.84715"
       y1="874.93201"
       x2="269.09747"
       y2="782.78912" />
    <linearGradient
       inkscape:collect="always"
       xlink:href="#linearGradient3259"
       id="linearGradient3292"
       gradientUnits="userSpaceOnUse"
       x1="414.09714"
       y1="832.46796"
       x2="331.23999"
       y2="765.32507" />
    <radialGradient
       inkscape:collect="always"
       xlink:href="#linearGradient3269"
       id="radialGradient3294"
       gradientUnits="userSpaceOnUse"
       gradientTransform="matrix(-0.9758465,1.0842071,-1.00842,-0.9076338,1144.4531,1023.059)"
       cx="223.57362"
       cy="676.00421"
       fx="223.57362"
       fy="676.00421"
       r="116.16487" />
    <filter
       inkscape:collect="always"
       id="filter3350"
       x="-0.11022332"
       width="1.2204466"
       y="-0.13167985"
       height="1.2633597">
      <feGaussianBlur
         inkscape:collect="always"
         stdDeviation="10.670065"
         id="feGaussianBlur3352" />
    </filter>
    <inkscape:perspective
       id="perspective2495"
       inkscape:persp3d-origin="372.04724 : 350.78739 : 1"
       inkscape:vp_z="744.09448 : 526.18109 : 1"
       inkscape:vp_y="0 : 1000 : 0"
       inkscape:vp_x="0 : 526.18109 : 1"
       sodipodi:type="inkscape:persp3d" />
    <radialGradient
       inkscape:collect="always"
       xlink:href="#linearGradient3275"
       id="radialGradient3283"
       cx="210.19836"
       cy="814.96442"
       fx="210.19836"
       fy="814.96442"
       r="30.068237"
       gradientTransform="matrix(1.2775112,0.9681086,-1.0001456,1.319787,756.75066,-464.10983)"
       gradientUnits="userSpaceOnUse" />
    <radialGradient
       inkscape:collect="always"
       xlink:href="#linearGradient3287"
       id="radialGradient3293"
       cx="213.43152"
       cy="812.52484"
       fx="213.43152"
       fy="812.52484"
       r="30.068238"
       gradientTransform="matrix(1.6337148,1.4986199,-1.1712237,1.276805,816.39356,-546.36427)"
       gradientUnits="userSpaceOnUse" />
    <linearGradient
       inkscape:collect="always"
       xlink:href="#linearGradient3301"
       id="linearGradient3307"
       x1="264.7507"
       y1="806.48773"
       x2="245.22069"
       y2="806.8053"
       gradientUnits="userSpaceOnUse" />
    <radialGradient
       inkscape:collect="always"
       xlink:href="#linearGradient3287"
       id="radialGradient3313"
       gradientUnits="userSpaceOnUse"
       gradientTransform="matrix(1.6337148,1.4986199,-1.1712237,1.276805,816.39356,-546.36427)"
       cx="213.43152"
       cy="812.52484"
       fx="213.43152"
       fy="812.52484"
       r="30.068238" />
    <radialGradient
       inkscape:collect="always"
       xlink:href="#linearGradient3275"
       id="radialGradient3315"
       gradientUnits="userSpaceOnUse"
       gradientTransform="matrix(1.2775112,0.9681086,-1.0001456,1.319787,756.75066,-464.10983)"
       cx="210.19836"
       cy="814.96442"
       fx="210.19836"
       fy="814.96442"
       r="30.068237" />
  </defs>
  <sodipodi:namedview
     id="base"
     pagecolor="#ffffff"
     bordercolor="#666666"
     borderopacity="1.0"
     gridtolerance="10000"
     guidetolerance="10"
     objecttolerance="10"
     inkscape:pageopacity="0.0"
     inkscape:pageshadow="2"
     inkscape:zoom="3.959798"
     inkscape:cx="58.810535"
     inkscape:cy="24.160608"
     inkscape:document-units="px"
     inkscape:current-layer="layer1"
     showgrid="false"
     inkscape:window-width="1186"
     inkscape:window-height="755"
     inkscape:window-x="156"
     inkscape:window-y="93" />
  <metadata
     id="metadata7">
    <rdf:RDF>
      <cc:Work
         rdf:about="">
        <dc:format>image/svg+xml</dc:format>
        <dc:type
           rdf:resource="http://purl.org/dc/dcmitype/StillImage" />
      </cc:Work>
    </rdf:RDF>
  </metadata>
  <g
     inkscape:label="Layer 1"
     inkscape:groupmode="layer"
     id="layer1"
     transform="translate(-116.9897,-752.24304)">
    <g
       id="g3279"
       transform="matrix(0.2239201,0,0,0.2239201,91.311167,603.90589)">
      <path
         d="M 156.9897,873.89265 L 331.24004,983.999 L 389.31943,853.812 L 232.69059,789.52615 L 156.9897,873.89265 z"
         style="opacity:0.61000001;fill:#323232;fill-opacity:1;fill-rule:evenodd;stroke:none;stroke-width:1px;stroke-linecap:butt;stroke-linejoin:round;stroke-opacity:1;filter:url(#filter3350)"
         id="path3296" />
      <path
         d="M 156.9897,856.99414 L 331.24004,967.09976 L 389.31943,836.91364 L 232.69059,772.62809 L 156.9897,856.99414 z"
         style="opacity:0.61000001;fill:#afafde;fill-opacity:1;fill-rule:evenodd;stroke:none;stroke-width:1px;stroke-linecap:butt;stroke-linejoin:round;stroke-opacity:1"
         id="path3213" />
      <path
         d="M 156.9897,724.19198 L 156.9897,856.99414 L 232.69059,772.62809 L 232.69059,662.45575 L 156.9897,724.19198 z"
         style="opacity:0.61000001;fill:#353564;fill-opacity:1;fill-rule:evenodd;stroke:none;stroke-width:1px;stroke-linecap:butt;stroke-linejoin:round;stroke-opacity:1"
         id="path3215" />
      <path
         d="M 232.69059,662.45575 L 389.31943,697.83535 L 389.31943,836.91364 L 232.69059,772.62809 L 232.69059,662.45575 z"
         style="opacity:0.61000001;fill:#e9e9ff;fill-opacity:1;fill-rule:evenodd;stroke:none;stroke-width:1px;stroke-linecap:butt;stroke-linejoin:round;stroke-opacity:1"
         id="path3217" />
      <path
         d="M 156.9897,724.19198 L 331.24004,789.90492 L 389.31943,697.83535 L 232.69059,662.45575 L 156.9897,724.19198 z"
         style="opacity:0.61000001;fill:#0057ae;fill-opacity:1;fill-rule:evenodd;stroke:none;stroke-width:1px;stroke-linecap:butt;stroke-linejoin:round;stroke-opacity:1"
         id="path3219" />
      <path
         d="M 331.24004,789.90492 L 331.24004,967.09976 L 389.31943,836.91364 L 389.31943,697.83535 L 331.24004,789.90492 z"
         style="opacity:0.61000001;fill:#0057ae;fill-opacity:1;fill-rule:evenodd;stroke:none;stroke-width:1px;stroke-linecap:butt;stroke-linejoin:round;stroke-opacity:1"
         id="path3221" />
      <path
         d="M 156.9897,724.19198 L 331.24004,789.90492 L 331.24004,967.09976 L 156.9897,856.99414 L 156.9897,724.19198 z"
         style="opacity:0.61000001;fill:#0057ae;fill-opacity:1;fill-rule:evenodd;stroke:none;stroke-width:1px;stroke-linecap:butt;stroke-linejoin:round;stroke-opacity:1"
         id="path3223" />
      <path
         d="M 156.99,724.1924 L 331.24034,789.90534 L 331.24034,967.10018 L 156.99,856.99456 L 156.99,724.1924 z"
         style="opacity:0.61000001;fill:url(#linearGradient3290);fill-opacity:1;fill-rule:evenodd;stroke:none;stroke-width:1px;stroke-linecap:butt;stroke-linejoin:round;stroke-opacity:1"
         id="path3231" />
      <path
         d="M 331.24,789.90534 L 331.24,967.10018 L 389.31939,836.91406 L 389.31939,697.83577 L 331.24,789.90534 z"
         style="opacity:0.61000001;fill:url(#linearGradient3292);fill-opacity:1;fill-rule:evenodd;stroke:none;stroke-width:1px;stroke-linecap:butt;stroke-linejoin:round;stroke-opacity:1"
         id="path3257" />
      <path
         d="M 156.99,724.19224 L 331.24035,789.90518 L 389.31974,697.83561 L 232.69089,662.45601 L 156.99,724.19224 z"
         style="opacity:0.61000001;fill:url(#radialGradient3294);fill-opacity:1;fill-rule:evenodd;stroke:none;stroke-width:1px;stroke-linecap:butt;stroke-linejoin:round;stroke-opacity:1"
         id="path3267" />
    </g>
    <g
       id="g3309"
       transform="matrix(0.660181,0,0,0.660181,-0.9185638,248.65627)">
      <path
         sodipodi:nodetypes="cssccsssscccsssssssssssssccscccsssssssccssssccc"
         id="path2503"
         d="M 229.00239,863.29796 C 228.89372,862.49602 227.87553,859.8433 226.73973,857.40302 C 225.60394,854.96275 224.31631,851.85373 223.87834,850.49409 C 223.10336,848.08823 221.54589,841.74676 221.72999,841.74676 C 224.29896,846.16111 226.62451,850.71473 229.31846,855.05791 C 231.18411,857.93948 236.58583,863.80524 237.37379,863.80524 C 238.22912,863.80524 237.24232,862.20055 233.7453,857.90476 C 229.97664,853.27528 228.48908,850.48324 226.65626,844.59915 C 225.8744,842.08904 224.63665,838.83732 223.90571,837.37309 C 222.22196,834.00016 220.81808,830.28025 220.41535,828.12451 L 220.1021,826.44781 L 221.37274,826.654 C 224.89163,827.22504 226.49984,828.9417 230.87587,836.798 C 233.11199,840.8125 234.13791,842.18364 237.50626,845.65939 C 241.51362,849.79454 244.75703,852.19848 249.66167,854.6687 C 251.00856,855.34706 252.58953,856.2562 253.17495,856.68901 C 253.76036,857.12183 254.36374,857.35154 254.5158,857.19949 C 254.99433,856.72095 254.06886,855.66943 252.12886,854.48743 C 249.24672,852.73141 246.49275,849.76114 245.21601,847.0316 C 243.17543,842.66909 243.06475,841.7589 243.02408,829.00608 C 242.99255,819.11803 242.8833,816.87878 242.34684,815.12445 C 241.51346,812.39913 241.49058,812.51014 243.01707,811.87233 C 245.20589,810.95779 246.01341,811.18578 249.35137,813.66073 C 251.08675,814.94743 253.36922,816.39352 254.42352,816.87426 C 256.51555,817.82817 261.36615,818.94543 262.13486,818.65045 C 262.97511,818.32802 262.66393,817.01876 260.80919,813.07283 C 259.04624,808.72061 257.09663,804.34438 260.99935,797.72664 C 263.4776,792.89033 263.53044,792.30533 261.48901,792.30533 C 258.21214,792.30533 255.98125,793.6057 250.96452,798.44002 L 246.28112,802.95312 C 242.36691,801.60666 240.51077,800.80068 240.21273,797.22049 C 239.89901,795.82424 239.98414,795.25915 240.80599,793.28227 C 242.38245,789.49025 242.53048,788.86402 242.83494,784.69895 C 243.08693,781.25162 243.37479,780.05558 244.94021,775.95162 C 246.34908,772.2581 246.79384,770.55149 246.93404,768.30099 C 247.03328,766.70784 246.96009,765.30893 246.77139,765.19231 C 246.29016,764.8949 242.06506,768.22994 238.52891,771.69842 C 235.19146,774.972 232.58364,778.40167 231.17092,781.37529 C 230.02702,783.78308 222.77392,790.99537 217.50824,794.96112 C 212.85953,798.34574 209.61465,803.19149 205.30772,806.94155 C 201.7582,809.74573 201.8306,810.34285 206.55352,817.2162 C 209.85665,822.02329 211.45411,823.86695 213.22,824.91009 C 214.07629,825.41591 214.37548,825.96943 214.70375,827.65519 C 215.47341,831.60749 216.92824,836.28785 220.53369,846.41073 C 224.09871,856.42009 226.32708,861.40708 228.22121,863.61508 L 229.19997,864.75604 L 229.00239,863.29796 z"
         style="fill:url(#radialGradient3313);fill-opacity:1" />
      <path
         sodipodi:nodetypes="cssssssssscccsssssssssssssccscccsssssssccssssccccssssssccssssssssccssssssssscccccssssssssccssssssssccsccccsssssscccccczccccccssssssccsccccccccssssssssssc"
         id="path2501"
         d="M 229.00241,863.29747 C 228.89374,862.49553 227.87555,859.84281 226.73975,857.40253 C 225.60396,854.96226 224.31633,851.85324 223.87836,850.4936 C 223.10338,848.08774 221.54591,841.74627 221.73001,841.74627 C 221.78054,841.74627 223.1485,844.18506 224.76991,847.16581 C 226.39133,850.14656 228.43819,853.69778 229.31848,855.05742 C 231.18413,857.93899 236.58585,863.80475 237.37381,863.80475 C 238.22914,863.80475 237.24234,862.20006 233.74532,857.90427 C 229.97666,853.27479 228.4891,850.48275 226.65628,844.59866 C 225.87442,842.08855 224.63667,838.83683 223.90573,837.3726 C 222.22198,833.99967 220.8181,830.27976 220.41537,828.12402 L 220.10212,826.44732 L 221.37276,826.65351 C 224.89165,827.22455 226.49986,828.94121 230.87589,836.79751 C 233.11201,840.81201 234.13793,842.18315 237.50628,845.6589 C 241.51364,849.79405 244.75705,852.19799 249.66169,854.66821 C 251.00858,855.34657 252.58955,856.25571 253.17497,856.68852 C 253.76038,857.12134 254.36376,857.35105 254.51582,857.199 C 254.99435,856.72046 254.06888,855.66894 252.12888,854.48694 C 249.24674,852.73092 246.49277,849.76065 245.21603,847.03111 C 243.17545,842.6686 243.06477,841.75841 243.0241,829.00559 C 242.99257,819.11754 242.88332,816.87829 242.34686,815.12396 C 241.51348,812.39864 241.4906,812.50965 243.01709,811.87184 C 245.20591,810.9573 246.01343,811.18529 249.35139,813.66024 C 251.08677,814.94694 253.36924,816.39303 254.42354,816.87377 C 256.51557,817.82768 261.36617,818.94494 262.13488,818.64996 C 262.97513,818.32753 262.66395,817.01827 260.80921,813.07234 C 259.04626,808.72012 257.09665,804.34389 260.99937,797.72615 C 263.47762,792.88984 263.53046,792.30484 261.48903,792.30484 C 258.21216,792.30484 255.98127,793.60521 250.96454,798.43953 L 246.28114,802.95263 C 242.36693,801.60617 240.51079,800.80019 240.21275,797.22 C 239.89903,795.82375 239.98416,795.25866 240.80601,793.28178 C 242.38247,789.48976 242.5305,788.86353 242.83496,784.69846 C 243.08695,781.25113 243.37481,780.05509 244.94023,775.95113 C 246.3491,772.25761 246.79386,770.551 246.93406,768.3005 C 247.0333,766.70735 246.96011,765.30844 246.77141,765.19182 C 246.29018,764.89441 242.06508,768.22945 238.52893,771.69793 C 235.19148,774.97151 232.58366,778.40118 231.17094,781.3748 C 230.02704,783.78259 222.77394,790.99488 217.50826,794.96063 C 212.85955,798.34525 209.61467,803.191 205.30774,806.94106 C 201.75822,809.74524 201.83062,810.34236 206.55354,817.21571 C 209.85667,822.0228 211.45413,823.86646 213.22002,824.9096 C 214.07631,825.41542 214.3755,825.96894 214.70377,827.6547 C 215.47343,831.607 216.92826,836.28736 220.53371,846.41024 C 224.09873,856.4196 226.3271,861.40659 228.22123,863.61459 L 229.19999,864.75555 L 229.00241,863.29747 z M 226.16771,859.62125 C 224.29811,856.0955 217.42375,836.93217 216.04015,831.38913 C 214.70616,826.04485 214.9125,824.47307 216.37802,828.81543 C 216.97808,830.59342 218.22441,833.82481 219.14765,835.99629 C 220.07089,838.16778 221.25493,841.84736 221.77886,844.17314 C 223.0445,849.79149 224.22049,853.21355 226.70352,858.5036 C 227.83863,860.92193 228.76736,863.05511 228.76736,863.244 C 228.76736,863.96106 227.62433,862.36819 226.16771,859.62125 z M 228.76235,853.32203 C 225.65439,848.09262 221.66499,840.45458 219.76127,836.08873 C 218.03858,832.13803 216.21684,827.14241 216.21684,826.36908 C 216.21684,826.11572 216.86409,826.00904 217.90095,826.0915 C 219.55097,826.22273 219.59039,826.25742 219.84869,827.80568 C 220.22108,830.03782 221.79017,834.28691 223.29407,837.13581 C 223.99827,838.46981 225.34159,841.97825 226.27921,844.93234 C 228.20599,851.00293 229.55276,853.49974 233.38905,858.11347 C 237.15674,862.64471 237.33869,863.3972 233.7938,859.78745 C 231.95087,857.9108 229.99859,855.40212 228.76235,853.32203 z M 247.02265,852.59308 C 241.25294,849.35474 237.22258,845.49472 237.19626,843.182 C 237.18846,842.49694 236.83162,840.59268 236.40327,838.95031 C 234.56575,831.90499 234.99221,827.47332 238.31573,819.07682 C 240.18077,814.365 240.86148,813.01951 241.20596,813.36399 C 241.29396,813.452 241.63648,814.44021 241.96712,815.56002 C 242.45581,817.21515 242.57582,819.87273 242.60863,829.76623 C 242.64866,841.83826 242.65687,841.95794 243.62528,844.60322 C 245.10459,848.64407 247.02276,851.36503 249.77199,853.32246 C 253.43407,855.92984 254.33446,856.75211 252.15696,855.5005 C 251.11108,854.89934 248.80064,853.591 247.02265,852.59308 z M 230.89112,835.72694 C 229.23532,832.79081 227.1816,829.64951 226.3273,828.74627 L 224.77401,827.104 L 224.77886,821.20906 C 224.78486,813.92303 225.66442,805.96002 227.79522,793.90096 C 229.09969,786.51842 229.59174,784.46568 230.20359,783.85384 C 231.18526,782.87216 231.67631,783.19363 232.24435,785.18983 C 232.49483,786.07004 233.03407,787.16599 233.44267,787.62526 C 234.07974,788.34135 234.20865,789.1811 234.34763,793.5202 C 234.57394,800.58598 233.34031,816.57049 231.96121,824.44177 C 230.92537,830.35386 232.1259,836.42352 235.25918,841.11563 C 236.08136,842.34685 236.74703,843.54865 236.73845,843.78628 C 236.70087,844.82721 233.65791,840.63312 230.89112,835.72694 z M 214.41032,825.02593 C 214.35803,825.01841 214.31473,824.37046 214.31409,823.58605 C 214.31346,822.80164 213.97117,820.39956 213.55346,818.2481 C 212.65822,813.63716 212.61428,811.78048 213.37654,810.77268 C 213.68365,810.36665 213.93493,809.46577 213.93493,808.77075 C 213.93493,807.49279 214.77025,805.56925 217.66627,800.17838 C 218.70173,798.25091 219.26248,796.71994 219.26823,795.80472 C 219.276,794.56809 219.55392,794.15016 221.55015,792.37325 C 222.80033,791.26041 223.82321,790.44929 223.82321,790.57076 C 223.82321,790.69223 223.44785,792.37288 222.98907,794.30554 C 221.73113,800.8485 222.39648,807.54911 221.69029,814.17316 C 221.11334,818.77759 221.12368,823.94788 221.7128,825.42186 C 221.94582,826.0049 220.76646,825.94096 214.41032,825.02593 z M 207.00392,816.94233 C 202.82419,810.80252 202.56933,810.0079 204.31583,808.56095 C 207.38614,806.26034 209.72526,803.20104 212.28481,800.41623 C 212.34418,800.47561 212.02629,801.65137 211.57837,803.02904 C 210.90369,805.10417 210.56295,805.62249 209.59214,806.05034 C 207.94656,806.77557 207.20476,808.43981 207.84606,809.96768 C 208.11454,810.60729 208.46616,812.75647 208.62745,814.74364 C 208.78875,816.7308 209.10339,818.82731 209.32665,819.40254 C 209.54992,819.97778 209.65567,820.44842 209.56166,820.44842 C 209.46764,820.44842 208.31666,818.87068 207.00392,816.94233 z M 239.41723,801.62264 C 239.55775,798.90337 239.70341,797.10636 239.74092,797.6293 C 240.1832,800.02497 241.48009,801.36324 243.58954,802.41289 L 245.67104,803.24921 L 245.69218,807.09483 C 245.69218,807.09483 245.8544,810.86346 245.71331,810.94045 C 245.56186,811.0231 244.63766,810.94045 244.63766,810.94045 C 242.15065,810.94045 240.31327,812.67083 238.78206,816.45507 L 237.70485,819.1173 L 237.59319,816.13775 C 237.72036,811.23834 239.08389,806.52802 239.41723,801.62264 z M 258.59714,817.75518 C 257.35597,817.52894 255.35536,816.84645 254.15134,816.23852 C 252.13374,815.21979 247.18272,811.79906 246.53076,810.89246 C 246.09313,810.28389 246.33088,803.2551 246.64753,803.13233 C 246.84523,803.05568 248.8705,801.12926 251.11628,798.89932 C 253.98127,796.05454 255.8115,794.56366 257.25076,793.90231 C 259.58814,792.82826 262.61572,792.33451 262.61572,793.02737 C 262.61572,793.26999 261.65672,795.41052 260.48462,797.78409 C 257.63479,802.57535 257.88499,807.44735 260.08967,812.38429 C 261.03411,814.44468 261.92182,816.58857 262.06235,817.14848 C 262.36252,818.34446 262.09096,818.392 258.59714,817.75518 z M 209.57004,811.25557 C 206.76974,809.97967 208.6577,805.57765 211.56648,806.60061 C 214.60004,808.3176 212.66011,812.40668 209.57004,811.25557 z M 212.01995,808.25322 C 211.44283,807.17485 209.44861,807.25454 209.01471,808.3733 C 208.4273,811.61784 213.15834,811.30821 212.01995,808.25322 z M 239.25331,792.50619 C 238.90948,790.67341 237.48833,789.1279 235.26888,788.17313 C 233.50189,787.41299 233.34802,787.23297 232.77217,785.2521 C 232.43465,784.09107 231.91353,783.04714 231.61414,782.93225 C 229.65325,782.17979 237.43326,772.39381 243.89174,767.48904 C 245.20006,766.49546 246.35417,765.68253 246.45642,765.68253 C 246.55867,765.68253 246.64234,766.60742 246.64234,767.73785 C 246.64234,769.72348 246.40862,770.539 243.63455,778.23304 C 242.7587,780.66227 242.46721,782.12744 242.4618,784.12798 C 242.45783,785.59221 242.27528,787.47479 242.05613,788.31149 C 241.46305,790.57587 240.13022,793.82611 239.79475,793.82611 C 239.63315,793.82611 239.3895,793.23215 239.25331,792.50619 z"
         style="fill:url(#radialGradient3315);fill-opacity:1" />
    </g>
  </g>
</svg>
