<?xml version="1.0" encoding="UTF-8" standalone="no"?>
<!-- Created with Inkscape (http://www.inkscape.org/) -->
<svg
   xmlns:dc="http://purl.org/dc/elements/1.1/"
   xmlns:cc="http://creativecommons.org/ns#"
   xmlns:rdf="http://www.w3.org/1999/02/22-rdf-syntax-ns#"
   xmlns:svg="http://www.w3.org/2000/svg"
   xmlns="http://www.w3.org/2000/svg"
   xmlns:xlink="http://www.w3.org/1999/xlink"
   xmlns:sodipodi="http://sodipodi.sourceforge.net/DTD/sodipodi-0.dtd"
   xmlns:inkscape="http://www.inkscape.org/namespaces/inkscape"
   width="72"
   height="72"
   id="svg2"
   sodipodi:version="0.32"
   inkscape:version="0.46"
   version="1.0"
   sodipodi:docname="plugin-maze.svg"
   inkscape:output_extension="org.inkscape.output.svg.inkscape">
  <defs
     id="defs4">
    <linearGradient
       inkscape:collect="always"
       id="linearGradient3269">
      <stop
         style="stop-color:#ffffff;stop-opacity:1;"
         offset="0"
         id="stop3271" />
      <stop
         style="stop-color:#ffffff;stop-opacity:0;"
         offset="1"
         id="stop3273" />
    </linearGradient>
    <linearGradient
       inkscape:collect="always"
       id="linearGradient3259">
      <stop
         style="stop-color:#2e3436;stop-opacity:1;"
         offset="0"
         id="stop3261" />
      <stop
         style="stop-color:#2e3436;stop-opacity:0;"
         offset="1"
         id="stop3263" />
    </linearGradient>
    <linearGradient
       id="linearGradient3249">
      <stop
         style="stop-color:#323232;stop-opacity:1;"
         offset="0"
         id="stop3251" />
      <stop
         style="stop-color:#323232;stop-opacity:0;"
         offset="1"
         id="stop3253" />
    </linearGradient>
    <inkscape:perspective
       sodipodi:type="inkscape:persp3d"
       inkscape:vp_x="-364.28571 : 524.75252 : 1"
       inkscape:vp_y="0 : 1000 : 0"
       inkscape:vp_z="601.23734 : 690.46681 : 1"
       inkscape:persp3d-origin="372.04724 : 350.78739 : 1"
       id="perspective10" />
    <linearGradient
       inkscape:collect="always"
       xlink:href="#linearGradient3249"
       id="linearGradient3255"
       x1="199.84715"
       y1="874.93201"
       x2="269.09747"
       y2="782.78912"
       gradientUnits="userSpaceOnUse" />
    <linearGradient
       inkscape:collect="always"
       xlink:href="#linearGradient3259"
       id="linearGradient3265"
       x1="414.09714"
       y1="832.46796"
       x2="331.23999"
       y2="765.32507"
       gradientUnits="userSpaceOnUse" />
    <radialGradient
       inkscape:collect="always"
       xlink:href="#linearGradient3269"
       id="radialGradient3277"
       cx="223.57362"
       cy="676.00421"
       fx="223.57362"
       fy="676.00421"
       r="116.16487"
       gradientTransform="matrix(-0.9758465,1.0842071,-1.00842,-0.9076338,1144.4531,1023.059)"
       gradientUnits="userSpaceOnUse" />
    <linearGradient
       inkscape:collect="always"
       xlink:href="#linearGradient3249"
       id="linearGradient3290"
       gradientUnits="userSpaceOnUse"
       x1="199.84715"
       y1="874.93201"
       x2="269.09747"
       y2="782.78912" />
    <linearGradient
       inkscape:collect="always"
       xlink:href="#linearGradient3259"
       id="linearGradient3292"
       gradientUnits="userSpaceOnUse"
       x1="414.09714"
       y1="832.46796"
       x2="331.23999"
       y2="765.32507" />
    <radialGradient
       inkscape:collect="always"
       xlink:href="#linearGradient3269"
       id="radialGradient3294"
       gradientUnits="userSpaceOnUse"
       gradientTransform="matrix(-0.9758465,1.0842071,-1.00842,-0.9076338,1144.4531,1023.059)"
       cx="223.57362"
       cy="676.00421"
       fx="223.57362"
       fy="676.00421"
       r="116.16487" />
    <filter
       inkscape:collect="always"
       id="filter3350"
       x="-0.11022332"
       width="1.2204466"
       y="-0.13167985"
       height="1.2633597">
      <feGaussianBlur
         inkscape:collect="always"
         stdDeviation="10.670065"
         id="feGaussianBlur3352" />
    </filter>
    <linearGradient
       y2="34.0005"
       x2="60.0015"
       y1="86"
       x1="60.0015"
       gradientTransform="translate(145.71379,-238.21429)"
       gradientUnits="userSpaceOnUse"
       id="linearGradient2902"
       xlink:href="#XMLID_27_"
       inkscape:collect="always" />
    <linearGradient
       y2="28.0005"
       x2="60.0015"
       y1="92"
       x1="60.0015"
       gradientTransform="translate(145.71379,-238.21429)"
       gradientUnits="userSpaceOnUse"
       id="linearGradient2900"
       xlink:href="#XMLID_26_"
       inkscape:collect="always" />
    <linearGradient
       y2="26.0005"
       x2="60.0015"
       y1="94"
       x1="60.0015"
       gradientTransform="translate(145.71379,-238.21429)"
       gradientUnits="userSpaceOnUse"
       id="linearGradient2898"
       xlink:href="#XMLID_25_"
       inkscape:collect="always" />
    <linearGradient
       y2="120.2141"
       x2="60.0005"
       y1="12.8452"
       x1="60.0005"
       gradientTransform="translate(145.71379,-238.21429)"
       gradientUnits="userSpaceOnUse"
       id="linearGradient2896"
       xlink:href="#XMLID_24_"
       inkscape:collect="always" />
    <radialGradient
       r="125.1714"
       cy="124"
       cx="59.5107"
       gradientTransform="translate(145.71379,-238.21429)"
       gradientUnits="userSpaceOnUse"
       id="radialGradient2894"
       xlink:href="#XMLID_23_"
       inkscape:collect="always" />
    <filter
       id="filter2826"
       inkscape:collect="always">
      <feGaussianBlur
         id="feGaussianBlur2828"
         stdDeviation="2.40001"
         inkscape:collect="always" />
    </filter>
    <radialGradient
       gradientTransform="translate(145.71379,-238.21429)"
       gradientUnits="userSpaceOnUse"
       r="125.1714"
       cy="124"
       cx="59.5107"
       id="XMLID_23_">
      <stop
         id="stop9"
         style="stop-color:#F0F0F0"
         offset="0.1775" />
      <stop
         id="stop11"
         style="stop-color:#A5A5BB"
         offset="0.5325" />
    </radialGradient>
    <linearGradient
       gradientTransform="translate(145.71379,-238.21429)"
       y2="120.2141"
       x2="60.0005"
       y1="12.8452"
       x1="60.0005"
       gradientUnits="userSpaceOnUse"
       id="XMLID_24_">
      <stop
         id="stop16"
         style="stop-color:#FFFFFF"
         offset="0" />
      <stop
         id="stop18"
         style="stop-color:#ffffff;stop-opacity:0;"
         offset="1" />
    </linearGradient>
    <linearGradient
       gradientTransform="translate(145.71379,-238.21429)"
       y2="26.0005"
       x2="60.0015"
       y1="94"
       x1="60.0015"
       gradientUnits="userSpaceOnUse"
       id="XMLID_25_">
      <stop
         id="stop23"
         style="stop-color:#FFFFFF"
         offset="0.2959" />
      <stop
         id="stop25"
         style="stop-color:#4A4A55"
         offset="1" />
    </linearGradient>
    <linearGradient
       gradientTransform="translate(145.71379,-238.21429)"
       y2="28.0005"
       x2="60.0015"
       y1="92"
       x1="60.0015"
       gradientUnits="userSpaceOnUse"
       id="XMLID_26_">
      <stop
         id="stop30"
         style="stop-color:#E9E9F0"
         offset="0.1953" />
      <stop
         id="stop32"
         style="stop-color:#DADAE2"
         offset="0.2597" />
      <stop
         id="stop34"
         style="stop-color:#B1B1BB"
         offset="0.461" />
      <stop
         id="stop36"
         style="stop-color:#93939F"
         offset="0.6437" />
      <stop
         id="stop38"
         style="stop-color:#81818E"
         offset="0.7999" />
      <stop
         id="stop40"
         style="stop-color:#7A7A88"
         offset="0.9112" />
      <stop
         id="stop42"
         style="stop-color:#696975"
         offset="1" />
    </linearGradient>
    <linearGradient
       gradientTransform="translate(145.71379,-238.21429)"
       y2="34.0005"
       x2="60.0015"
       y1="86"
       x1="60.0015"
       gradientUnits="userSpaceOnUse"
       id="XMLID_27_">
      <stop
         id="stop47"
         style="stop-color:#BBBBBB"
         offset="0" />
      <stop
         id="stop49"
         style="stop-color:#555555"
         offset="1" />
    </linearGradient>
    <inkscape:perspective
       id="perspective2581"
       inkscape:persp3d-origin="64 : 42.666667 : 1"
       inkscape:vp_z="128 : 64 : 1"
       inkscape:vp_y="0 : 1000 : 0"
       inkscape:vp_x="0 : 64 : 1"
       sodipodi:type="inkscape:persp3d" />
    <radialGradient
       inkscape:collect="always"
       xlink:href="#linearGradient3269"
       id="radialGradient2631"
       gradientUnits="userSpaceOnUse"
       gradientTransform="matrix(-0.2185116,0.2427758,-0.2258055,-0.2032375,347.57722,832.98936)"
       cx="223.57362"
       cy="676.00421"
       fx="223.57362"
       fy="676.00421"
       r="116.16487" />
    <linearGradient
       inkscape:collect="always"
       xlink:href="#linearGradient3259"
       id="linearGradient2634"
       gradientUnits="userSpaceOnUse"
       x1="414.09714"
       y1="832.46796"
       x2="331.23999"
       y2="765.32507"
       gradientTransform="matrix(0.2239201,0,0,0.2239201,91.311167,603.90589)" />
    <linearGradient
       inkscape:collect="always"
       xlink:href="#linearGradient3249"
       id="linearGradient2637"
       gradientUnits="userSpaceOnUse"
       x1="199.84715"
       y1="874.93201"
       x2="269.09747"
       y2="782.78912"
       gradientTransform="matrix(0.2239201,0,0,0.2239201,91.311167,603.90589)" />
  </defs>
  <sodipodi:namedview
     id="base"
     pagecolor="#ffffff"
     bordercolor="#666666"
     borderopacity="1.0"
     gridtolerance="10000"
     guidetolerance="10"
     objecttolerance="10"
     inkscape:pageopacity="0.0"
     inkscape:pageshadow="2"
     inkscape:zoom="3.959798"
     inkscape:cx="90.474962"
     inkscape:cy="25.214823"
     inkscape:document-units="px"
     inkscape:current-layer="layer1"
     showgrid="false"
     inkscape:window-width="1186"
     inkscape:window-height="755"
     inkscape:window-x="84"
     inkscape:window-y="60" />
  <metadata
     id="metadata7">
    <rdf:RDF>
      <cc:Work
         rdf:about="">
        <dc:format>image/svg+xml</dc:format>
        <dc:type
           rdf:resource="http://purl.org/dc/dcmitype/StillImage" />
      </cc:Work>
    </rdf:RDF>
  </metadata>
  <g
     inkscape:label="Layer 1"
     inkscape:groupmode="layer"
     id="layer1"
     transform="translate(-116.9897,-752.24304)">
    <path
       id="path3296"
       style="opacity:0.61000001;fill:#323232;fill-opacity:1;fill-rule:evenodd;stroke:none;stroke-width:1px;stroke-linecap:butt;stroke-linejoin:round;stroke-opacity:1;filter:url(#filter3350)"
       d="M 156.9897,873.89265 L 331.24004,983.999 L 389.31943,853.812 L 232.69059,789.52615 L 156.9897,873.89265 z"
       transform="matrix(0.2239201,0,0,0.2239201,91.311167,603.90589)" />
    <path
       id="path3213"
       style="opacity:0.61000001;fill:#afafde;fill-opacity:1;fill-rule:evenodd;stroke:none;stroke-width:1px;stroke-linecap:butt;stroke-linejoin:round;stroke-opacity:1"
       d="M 126.46432,795.8041 L 165.48247,820.45896 L 178.48761,791.30768 L 143.41527,776.91285 L 126.46432,795.8041 z" />
    <path
       id="path3215"
       style="opacity:0.61000001;fill:#353564;fill-opacity:1;fill-rule:evenodd;stroke:none;stroke-width:1px;stroke-linecap:butt;stroke-linejoin:round;stroke-opacity:1"
       d="M 126.46432,766.06703 L 126.46432,795.8041 L 143.41527,776.91285 L 143.41527,752.24305 L 126.46432,766.06703 z" />
    <path
       id="path3217"
       style="opacity:0.61000001;fill:#e9e9ff;fill-opacity:1;fill-rule:evenodd;stroke:none;stroke-width:1px;stroke-linecap:butt;stroke-linejoin:round;stroke-opacity:1"
       d="M 143.41527,752.24305 L 178.48761,760.16525 L 178.48761,791.30768 L 143.41527,776.91285 L 143.41527,752.24305 z" />
    <path
       id="path3219"
       style="opacity:0.61000001;fill:#0057ae;fill-opacity:1;fill-rule:evenodd;stroke:none;stroke-width:1px;stroke-linecap:butt;stroke-linejoin:round;stroke-opacity:1"
       d="M 126.46432,766.06703 L 165.48247,780.78148 L 178.48761,760.16525 L 143.41527,752.24305 L 126.46432,766.06703 z" />
    <path
       id="path3221"
       style="opacity:0.61000001;fill:#0057ae;fill-opacity:1;fill-rule:evenodd;stroke:none;stroke-width:1px;stroke-linecap:butt;stroke-linejoin:round;stroke-opacity:1"
       d="M 165.48247,780.78148 L 165.48247,820.45896 L 178.48761,791.30768 L 178.48761,760.16525 L 165.48247,780.78148 z" />
    <path
       id="path3223"
       style="opacity:0.61000001;fill:#0057ae;fill-opacity:1;fill-rule:evenodd;stroke:none;stroke-width:1px;stroke-linecap:butt;stroke-linejoin:round;stroke-opacity:1"
       d="M 126.46432,766.06703 L 165.48247,780.78148 L 165.48247,820.45896 L 126.46432,795.8041 L 126.46432,766.06703 z" />
    <path
       id="path3231"
       style="opacity:0.61000001;fill:url(#linearGradient2637);fill-opacity:1;fill-rule:evenodd;stroke:none;stroke-width:1px;stroke-linecap:butt;stroke-linejoin:round;stroke-opacity:1"
       d="M 126.46438,766.06712 L 165.48254,780.78157 L 165.48254,820.45906 L 126.46438,795.8042 L 126.46438,766.06712 z" />
    <path
       id="path3257"
       style="opacity:0.61000001;fill:url(#linearGradient2634);fill-opacity:1;fill-rule:evenodd;stroke:none;stroke-width:1px;stroke-linecap:butt;stroke-linejoin:round;stroke-opacity:1"
       d="M 165.48246,780.78157 L 165.48246,820.45906 L 178.4876,791.30777 L 178.4876,760.16535 L 165.48246,780.78157 z" />
    <path
       id="path3267"
       style="opacity:0.61000001;fill:url(#radialGradient2631);fill-opacity:1;fill-rule:evenodd;stroke:none;stroke-width:1px;stroke-linecap:butt;stroke-linejoin:round;stroke-opacity:1"
       d="M 126.46438,766.06709 L 165.48254,780.78154 L 178.48768,760.16531 L 143.41533,752.24311 L 126.46438,766.06709 z" />
    <g
       id="g2611"
       inkscape:label="Livello 1"
       transform="matrix(0.2423857,0,0,0.2423857,138.91898,766.4743)">
      <g
         transform="matrix(0.9999917,0,0,1,-141.71258,242.21429)"
         id="g2876">
        <path
           d="M 265.71479,-171.21229 L 265.71479,-183.21429 L 253.27579,-183.62929 C 252.72379,-187.75629 251.65379,-191.71829 250.12279,-195.44529 L 260.67779,-202.01729 L 254.67779,-212.41129 L 243.69679,-206.55029 C 241.19379,-209.78629 238.28879,-212.69229 235.05179,-215.19529 L 240.91279,-226.17629 L 230.51979,-232.17529 L 223.94779,-221.62029 C 220.21979,-223.15229 216.25879,-224.22329 212.13079,-224.77529 L 211.71479,-237.21429 L 199.71479,-237.21429 L 199.29979,-224.77529 C 195.17179,-224.22329 191.20979,-223.15229 187.48279,-221.62129 L 180.91079,-232.17529 L 170.51779,-226.17529 L 176.37879,-215.19429 C 173.14279,-212.69129 170.23679,-209.78529 167.73279,-206.54829 L 156.75179,-212.40929 L 150.75179,-202.01729 L 161.30779,-195.44429 C 159.77579,-191.71729 158.70479,-187.75529 158.15379,-183.62729 L 145.71479,-183.21429 L 145.71379,-171.21429 L 158.15379,-170.79929 C 158.70579,-166.67129 159.77679,-162.70929 161.30779,-158.98229 L 150.75279,-152.40929 L 156.75179,-142.01629 L 167.73479,-147.87829 C 170.23779,-144.64229 173.14379,-141.73529 176.38079,-139.23229 L 170.51879,-128.25029 L 180.91079,-122.25029 L 187.48379,-132.80729 C 191.21079,-131.27629 195.17279,-130.20429 199.30079,-129.65329 L 199.71479,-117.21429 L 211.71479,-117.21429 L 212.12979,-129.65329 C 216.25779,-130.20529 220.21979,-131.27529 223.94579,-132.80729 L 230.51779,-122.25129 L 240.91079,-128.25129 L 235.04979,-139.23429 C 238.28479,-141.73729 241.19179,-144.64329 243.69479,-147.87929 L 254.67579,-142.01829 L 260.67679,-152.41129 L 250.12079,-158.98329 C 251.65179,-162.71029 252.72379,-166.67129 253.27479,-170.79929 L 265.71479,-171.21229 z M 205.71479,-147.21429 C 189.17279,-147.21429 175.71479,-160.67229 175.71479,-177.21429 C 175.71479,-193.75629 189.17279,-207.21429 205.71479,-207.21429 C 222.25679,-207.21429 235.71479,-193.75629 235.71479,-177.21429 C 235.71479,-160.67229 222.25679,-147.21429 205.71479,-147.21429 z"
           id="path6"
           style="filter:url(#filter2826)" />
        <path
           d="M 265.71479,-172.21229 L 265.71479,-184.21429 L 253.27579,-184.62929 C 252.72379,-188.75629 251.65379,-192.71829 250.12279,-196.44529 L 260.67779,-203.01729 L 254.67779,-213.41129 L 243.69679,-207.55029 C 241.19379,-210.78629 238.28879,-213.69229 235.05179,-216.19529 L 240.91279,-227.17629 L 230.51979,-233.17529 L 223.94779,-222.62029 C 220.21979,-224.15229 216.25879,-225.22329 212.13079,-225.77529 L 211.71479,-238.21429 L 199.71479,-238.21429 L 199.29979,-225.77529 C 195.17179,-225.22329 191.20979,-224.15229 187.48279,-222.62129 L 180.91079,-233.17529 L 170.51779,-227.17529 L 176.37879,-216.19429 C 173.14279,-213.69129 170.23679,-210.78529 167.73279,-207.54829 L 156.75179,-213.40929 L 150.75179,-203.01729 L 161.30779,-196.44429 C 159.77579,-192.71729 158.70479,-188.75529 158.15379,-184.62729 L 145.71479,-184.21429 L 145.71379,-172.21429 L 158.15379,-171.79929 C 158.70579,-167.67129 159.77679,-163.70929 161.30779,-159.98229 L 150.75279,-153.40929 L 156.75179,-143.01629 L 167.73479,-148.87829 C 170.23779,-145.64229 173.14379,-142.73529 176.38079,-140.23229 L 170.51879,-129.25029 L 180.91079,-123.25029 L 187.48379,-133.80729 C 191.21079,-132.27629 195.17279,-131.20429 199.30079,-130.65329 L 199.71479,-118.21429 L 211.71479,-118.21429 L 212.12979,-130.65329 C 216.25779,-131.20529 220.21979,-132.27529 223.94579,-133.80729 L 230.51779,-123.25129 L 240.91079,-129.25129 L 235.04979,-140.23429 C 238.28479,-142.73729 241.19179,-145.64329 243.69479,-148.87929 L 254.67579,-143.01829 L 260.67679,-153.41129 L 250.12079,-159.98329 C 251.65179,-163.71029 252.72379,-167.67129 253.27479,-171.79929 L 265.71479,-172.21229 z M 205.71479,-148.21429 C 189.17279,-148.21429 175.71479,-161.67229 175.71479,-178.21429 C 175.71479,-194.75629 189.17279,-208.21429 205.71479,-208.21429 C 222.25679,-208.21429 235.71479,-194.75629 235.71479,-178.21429 C 235.71479,-161.67229 222.25679,-148.21429 205.71479,-148.21429 z"
           id="path13"
           style="fill:url(#radialGradient2894)" />
        <path
           d="M 200.68179,-237.21429 C 200.62679,-235.56929 200.29979,-225.74129 200.29979,-225.74129 C 200.28379,-225.25329 199.91679,-224.84829 199.43279,-224.78329 C 195.44379,-224.25029 191.55179,-223.21129 187.86379,-221.69529 C 187.41179,-221.50929 186.89179,-221.67729 186.63479,-222.09129 C 186.63479,-222.09129 181.44379,-230.42929 180.57379,-231.82529 C 179.28179,-231.07929 173.14879,-227.53829 171.85679,-226.79229 C 172.63179,-225.34029 177.26279,-216.66429 177.26279,-216.66429 C 177.34279,-216.51529 177.38079,-216.35329 177.38079,-216.19429 C 177.38079,-215.89329 177.24479,-215.59729 176.99279,-215.40229 C 173.82579,-212.95229 170.97679,-210.10329 168.52679,-206.93629 C 168.22879,-206.55029 167.69479,-206.43629 167.26479,-206.66529 C 167.26479,-206.66529 158.58779,-211.29629 157.13679,-212.07129 C 156.39079,-210.77929 152.84979,-204.64629 152.10379,-203.35429 C 153.49979,-202.48429 161.83779,-197.29329 161.83779,-197.29329 C 162.13879,-197.10529 162.30979,-196.78029 162.30979,-196.44329 C 162.30979,-196.31629 162.28579,-196.18729 162.23479,-196.06329 C 160.71779,-192.37429 159.67879,-188.48129 159.14679,-184.49429 C 159.08279,-184.01029 158.67679,-183.64329 158.18879,-183.62729 C 158.18879,-183.62729 148.36079,-183.29929 146.71579,-183.24529 C 146.71579,-182.25129 146.71579,-180.95629 146.71579,-180.07429 C 155.59579,-178.28529 165.04779,-176.91229 174.84379,-175.97929 C 174.78379,-177.00329 174.71479,-178.21429 174.71479,-178.21429 C 174.71479,-195.30729 188.62179,-209.21429 205.71479,-209.21429 C 222.80879,-209.21429 236.71479,-195.30729 236.71479,-178.21429 C 236.71479,-178.21429 236.64479,-176.99129 236.58579,-175.96329 C 246.37479,-176.88829 255.82579,-178.25529 264.71479,-180.03729 C 264.71479,-180.92429 264.71479,-182.24529 264.71479,-183.24629 C 263.06979,-183.30129 253.24179,-183.62829 253.24179,-183.62829 C 252.75379,-183.64429 252.34779,-184.01129 252.28379,-184.49529 C 251.75079,-188.48329 250.71179,-192.37529 249.19679,-196.06329 C 249.14579,-196.18729 249.12179,-196.31529 249.12179,-196.44229 C 249.12179,-196.77929 249.29279,-197.10429 249.59379,-197.29229 C 249.59379,-197.29229 257.93079,-202.48329 259.32679,-203.35329 C 258.58079,-204.64529 255.03979,-210.77929 254.29379,-212.07129 C 252.84279,-211.29729 244.16579,-206.66529 244.16579,-206.66529 C 243.73579,-206.43629 243.20279,-206.55029 242.90379,-206.93629 C 240.45379,-210.10429 237.60479,-212.95329 234.43879,-215.40229 C 234.18579,-215.59729 234.04979,-215.89229 234.04979,-216.19429 C 234.04979,-216.35429 234.08779,-216.51529 234.16779,-216.66429 C 234.16779,-216.66429 238.79879,-225.34029 239.57279,-226.79229 C 238.28079,-227.53829 232.14779,-231.08029 230.85579,-231.82629 C 229.98579,-230.43029 224.79379,-222.09229 224.79379,-222.09229 C 224.53579,-221.67829 224.01679,-221.51029 223.56479,-221.69629 C 219.87579,-223.21229 215.98279,-224.25129 211.99479,-224.78429 C 211.51179,-224.84929 211.14379,-225.25429 211.12879,-225.74229 C 211.12879,-225.74229 210.80079,-235.57029 210.74579,-237.21529 C 209.25579,-237.21429 202.17379,-237.21429 200.68179,-237.21429 z"
           id="path20"
           style="fill:url(#linearGradient2896)" />
        <path
           d="M 205.71479,-212.21429 C 186.93779,-212.21429 171.71479,-196.99129 171.71479,-178.21429 C 171.71479,-159.43629 186.93779,-144.21429 205.71479,-144.21429 C 224.49279,-144.21429 239.71479,-159.43629 239.71479,-178.21429 C 239.71479,-196.99129 224.49279,-212.21429 205.71479,-212.21429 z M 205.71479,-153.21429 C 191.92979,-153.21429 180.71479,-164.42929 180.71479,-178.21429 C 180.71479,-191.99929 191.92979,-203.21429 205.71479,-203.21429 C 219.49979,-203.21429 230.71479,-191.99929 230.71479,-178.21429 C 230.71479,-164.42929 219.49979,-153.21429 205.71479,-153.21429 z"
           id="path27"
           style="fill:url(#linearGradient2898)" />
        <path
           d="M 205.71479,-210.21429 C 188.06979,-210.21429 173.71479,-195.85929 173.71479,-178.21429 C 173.71479,-160.56929 188.06979,-146.21429 205.71479,-146.21429 C 223.35979,-146.21429 237.71479,-160.56929 237.71479,-178.21429 C 237.71479,-195.85929 223.35979,-210.21429 205.71479,-210.21429 z M 205.71479,-153.21429 C 191.92979,-153.21429 180.71479,-164.42929 180.71479,-178.21429 C 180.71479,-191.99929 191.92979,-203.21429 205.71479,-203.21429 C 219.49979,-203.21429 230.71479,-191.99929 230.71479,-178.21429 C 230.71479,-164.42929 219.49979,-153.21429 205.71479,-153.21429 z"
           id="path44"
           style="fill:url(#linearGradient2900)" />
        <path
           d="M 205.71479,-204.21429 C 191.37879,-204.21429 179.71479,-192.55029 179.71479,-178.21429 C 179.71479,-163.87729 191.37879,-152.21429 205.71479,-152.21429 C 220.05179,-152.21429 231.71479,-163.87729 231.71479,-178.21429 C 231.71479,-192.55029 220.05179,-204.21429 205.71479,-204.21429 z M 205.71479,-154.21429 C 192.48179,-154.21429 181.71479,-164.98129 181.71479,-178.21429 C 181.71479,-191.44729 192.48179,-202.21429 205.71479,-202.21429 C 218.94779,-202.21429 229.71479,-191.44729 229.71479,-178.21429 C 229.71479,-164.98129 218.94779,-154.21429 205.71479,-154.21429 z"
           id="path51"
           style="fill:url(#linearGradient2902)" />
        <path
           d="M 161.00579,-159.79329 L 150.75279,-153.40929 L 151.17779,-152.67429 L 161.30879,-158.98229 C 161.19879,-159.24829 161.10979,-159.52529 161.00579,-159.79329 z"
           id="path53"
           style="fill:#ffffff" />
        <path
           d="M 180.91079,-232.17529 L 187.48279,-221.62029 C 191.20979,-223.15229 195.17179,-224.22329 199.29979,-224.77429 L 199.71479,-237.21429 L 211.71479,-237.21429 L 212.12979,-224.77529 C 216.25779,-224.22329 220.21979,-223.15229 223.94679,-221.62029 L 230.51879,-232.17529 L 240.50279,-226.40929 L 240.91079,-227.17429 L 230.51979,-233.17529 L 223.94779,-222.62029 C 220.21979,-224.15229 216.25879,-225.22329 212.13079,-225.77529 L 211.71479,-238.21429 L 199.71479,-238.21429 L 199.29979,-225.77529 C 195.17179,-225.22329 191.20979,-224.15229 187.48279,-222.62129 L 180.91079,-233.17529 L 170.51779,-227.17529 L 170.92579,-226.41029 L 180.91079,-232.17529 z"
           id="path55"
           style="fill:#ffffff" />
        <path
           d="M 235.42079,-215.88729 L 235.05079,-215.19329 C 238.28679,-212.69029 241.19279,-209.78429 243.69579,-206.54829 L 254.67679,-212.40929 L 260.25179,-202.75129 L 260.67679,-203.01629 L 254.67679,-213.41029 L 243.69579,-207.54929 C 241.28979,-210.65729 238.50579,-213.45229 235.42079,-215.88729 z"
           id="path57"
           style="fill:#ffffff" />
        <path
           d="M 176.00979,-139.53929 L 170.51879,-129.25129 L 170.92679,-129.01629 L 176.38079,-139.23429 C 176.25379,-139.33129 176.13579,-139.44129 176.00979,-139.53929 z"
           id="path59"
           style="fill:#ffffff" />
        <path
           d="M 249.69579,-176.83029 C 249.30179,-152.90729 229.72979,-133.56329 205.71479,-133.56329 C 181.69879,-133.56329 162.12779,-152.90729 161.73379,-176.83029 C 161.72979,-176.58629 161.71479,-176.34329 161.71479,-176.09829 C 161.71479,-151.83629 181.45279,-132.09829 205.71479,-132.09829 C 229.97679,-132.09829 249.71479,-151.83629 249.71479,-176.09829 C 249.71479,-176.34329 249.69979,-176.58629 249.69579,-176.83029 z"
           id="path61"
           style="opacity:0.5;fill:#ffffff" />
        <path
           d="M 253.27579,-184.62829 C 252.76279,-188.46129 251.78679,-192.14229 250.42579,-195.63329 L 250.12179,-195.44429 C 251.65279,-191.71729 252.72379,-187.75629 253.27479,-183.62829 L 265.71479,-183.21429 L 265.71479,-184.21429 L 253.27579,-184.62829 z"
           id="path63"
           style="fill:#ffffff" />
        <path
           d="M 250.12079,-158.98229 L 260.25179,-152.67429 L 260.67679,-153.40929 L 250.42479,-159.79329 C 250.31879,-159.52529 250.23079,-159.24829 250.12079,-158.98229 z"
           id="path65"
           style="fill:#ffffff" />
        <path
           d="M 156.75279,-212.41029 L 167.73379,-206.54929 C 170.23679,-209.78529 173.14279,-212.69129 176.37979,-215.19529 L 176.00879,-215.88929 C 172.92479,-213.45429 170.13879,-210.65929 167.73379,-207.55029 L 156.75279,-213.41129 L 150.75279,-203.01929 L 151.17779,-202.75429 L 156.75279,-212.41029 z"
           id="path67"
           style="fill:#ffffff" />
        <path
           d="M 235.04979,-139.23429 L 240.50279,-129.01729 L 240.91079,-129.25229 L 235.41979,-139.53929 C 235.29479,-139.44129 235.17679,-139.33129 235.04979,-139.23429 z"
           id="path69"
           style="fill:#ffffff" />
        <path
           d="M 145.71479,-183.21429 L 158.15379,-183.62929 C 158.70479,-187.75729 159.77679,-191.71929 161.30779,-195.44629 L 161.00479,-195.63529 C 159.64379,-192.14429 158.66579,-188.46229 158.15379,-184.62929 L 145.71479,-184.21429 L 145.71379,-172.21429 L 145.71379,-172.21429 L 145.71479,-183.21429 z"
           id="path71"
           style="fill:#ffffff" />
      </g>
    </g>
  </g>
</svg>
