<?xml version="1.0" encoding="UTF-8" standalone="no"?>
<svg
   xmlns:dc="http://purl.org/dc/elements/1.1/"
   xmlns:cc="http://creativecommons.org/ns#"
   xmlns:rdf="http://www.w3.org/1999/02/22-rdf-syntax-ns#"
   xmlns:svg="http://www.w3.org/2000/svg"
   xmlns="http://www.w3.org/2000/svg"
   xmlns:xlink="http://www.w3.org/1999/xlink"
   xmlns:sodipodi="http://sodipodi.sourceforge.net/DTD/sodipodi-0.dtd"
   xmlns:inkscape="http://www.inkscape.org/namespaces/inkscape"
   width="72"
   height="72"
   viewBox="0 0 300 300"
   version="1.0"
   id="svg2"
   sodipodi:version="0.32"
   inkscape:version="0.46"
   sodipodi:docname="plugin-autumn.svg"
   sodipodi:docbase="/home/Sam/Desktop/unofficial icons"
   inkscape:output_extension="org.inkscape.output.svg.inkscape">
  <metadata
     id="metadata195">
    <rdf:RDF>
      <cc:Work
         rdf:about="">
        <dc:format>image/svg+xml</dc:format>
        <dc:type
           rdf:resource="http://purl.org/dc/dcmitype/StillImage" />
      </cc:Work>
    </rdf:RDF>
  </metadata>
  <sodipodi:namedview
     inkscape:window-height="716"
     inkscape:window-width="872"
     inkscape:pageshadow="2"
     inkscape:pageopacity="0.0"
     guidetolerance="10.0"
     gridtolerance="10.0"
     objecttolerance="10.0"
     borderopacity="1.0"
     bordercolor="#666666"
     pagecolor="#ffffff"
     id="base"
     width="72px"
     height="72px"
     inkscape:zoom="2.8284271"
     inkscape:cx="177.50459"
     inkscape:cy="135.95227"
     inkscape:window-x="64"
     inkscape:window-y="102"
     inkscape:current-layer="svg2"
     showgrid="false" />
  <defs
     id="defs4">
    <linearGradient
       inkscape:collect="always"
       id="linearGradient3443">
      <stop
         style="stop-color:#ffffff;stop-opacity:1;"
         offset="0"
         id="stop3445" />
      <stop
         style="stop-color:#ffffff;stop-opacity:0;"
         offset="1"
         id="stop3447" />
    </linearGradient>
    <linearGradient
       inkscape:collect="always"
       id="linearGradient3431">
      <stop
         style="stop-color:#000000;stop-opacity:1;"
         offset="0"
         id="stop3433" />
      <stop
         style="stop-color:#000000;stop-opacity:0;"
         offset="1"
         id="stop3435" />
    </linearGradient>
    <linearGradient
       inkscape:collect="always"
       id="linearGradient3417">
      <stop
         style="stop-color:#ffffff;stop-opacity:1;"
         offset="0"
         id="stop3419" />
      <stop
         style="stop-color:#ffffff;stop-opacity:0;"
         offset="1"
         id="stop3421" />
    </linearGradient>
    <linearGradient
       inkscape:collect="always"
       id="linearGradient3405">
      <stop
         style="stop-color:#eb7331;stop-opacity:1;"
         offset="0"
         id="stop3407" />
      <stop
         style="stop-color:#ffeb55;stop-opacity:1"
         offset="1"
         id="stop3409" />
    </linearGradient>
    <inkscape:perspective
       sodipodi:type="inkscape:persp3d"
       inkscape:vp_x="0 : 36 : 1"
       inkscape:vp_y="0 : 1000 : 0"
       inkscape:vp_z="72 : 36 : 1"
       inkscape:persp3d-origin="36 : 24 : 1"
       id="perspective101" />
    <clipPath
       id="clip0">
      <rect
         width="300"
         height="300"
         id="rect7"
         x="0"
         y="0" />
    </clipPath>
    <inkscape:perspective
       id="perspective2605"
       inkscape:persp3d-origin="372.04724 : 350.78739 : 1"
       inkscape:vp_z="744.09448 : 526.18109 : 1"
       inkscape:vp_y="0 : 1000 : 0"
       inkscape:vp_x="0 : 526.18109 : 1"
       sodipodi:type="inkscape:persp3d" />
    <radialGradient
       inkscape:collect="always"
       xlink:href="#linearGradient3405"
       id="radialGradient3411"
       cx="1167.3798"
       cy="8.8427429"
       fx="1167.3798"
       fy="8.8427429"
       r="66.446445"
       gradientTransform="matrix(0.9055377,1.3123591e-7,-4.0113451e-7,2.7678585,110.27327,-15.63287)"
       gradientUnits="userSpaceOnUse" />
    <radialGradient
       inkscape:collect="always"
       xlink:href="#linearGradient3417"
       id="radialGradient3425"
       cx="1127.4673"
       cy="-48.550373"
       fx="1127.4673"
       fy="-48.550373"
       r="66.446442"
       gradientTransform="matrix(-0.5040987,1.2458655,-1.696151,-0.6862917,1611.719,-1523.407)"
       gradientUnits="userSpaceOnUse" />
    <radialGradient
       inkscape:collect="always"
       xlink:href="#linearGradient3431"
       id="radialGradient3437"
       cx="1180.9214"
       cy="96.751572"
       fx="1180.9214"
       fy="96.751572"
       r="66.446445"
       gradientTransform="matrix(0.7962025,-2.8345723,2.0522306,0.5764506,42.112255,3409.3315)"
       gradientUnits="userSpaceOnUse" />
    <radialGradient
       inkscape:collect="always"
       xlink:href="#linearGradient3443"
       id="radialGradient3449"
       cx="1166.448"
       cy="100.92609"
       fx="1166.448"
       fy="100.92609"
       r="66.446445"
       gradientTransform="matrix(1.4349504,-1.3463808,1.3843094,1.4753736,-639.35738,1547.0889)"
       gradientUnits="userSpaceOnUse" />
    <radialGradient
       inkscape:collect="always"
       xlink:href="#linearGradient3405"
       id="radialGradient3458"
       gradientUnits="userSpaceOnUse"
       gradientTransform="matrix(0.9055377,1.3123591e-7,-4.0113451e-7,2.7678585,110.27327,-15.63287)"
       cx="1167.3798"
       cy="8.8427429"
       fx="1167.3798"
       fy="8.8427429"
       r="66.446445" />
    <radialGradient
       inkscape:collect="always"
       xlink:href="#linearGradient3417"
       id="radialGradient3460"
       gradientUnits="userSpaceOnUse"
       gradientTransform="matrix(-0.5040987,1.2458655,-1.696151,-0.6862917,1611.719,-1523.407)"
       cx="1127.4673"
       cy="-48.550373"
       fx="1127.4673"
       fy="-48.550373"
       r="66.446442" />
    <radialGradient
       inkscape:collect="always"
       xlink:href="#linearGradient3431"
       id="radialGradient3462"
       gradientUnits="userSpaceOnUse"
       gradientTransform="matrix(0.7962025,-2.8345723,2.0522306,0.5764506,42.112255,3409.3315)"
       cx="1180.9214"
       cy="96.751572"
       fx="1180.9214"
       fy="96.751572"
       r="66.446445" />
    <radialGradient
       inkscape:collect="always"
       xlink:href="#linearGradient3443"
       id="radialGradient3464"
       gradientUnits="userSpaceOnUse"
       gradientTransform="matrix(1.4349504,-1.3463808,1.3843094,1.4753736,-639.35738,1547.0889)"
       cx="1166.448"
       cy="100.92609"
       fx="1166.448"
       fy="100.92609"
       r="66.446445" />
  </defs>
  <g
     id="g3451"
     transform="matrix(1.8230811,0,0,1.8230811,-1982.0908,133.87861)">
    <path
       sodipodi:nodetypes="csssssssssssssssssssssscccssssssssssssssssssccssssssssssccssssssssscccc"
       id="path2613"
       d="M 1233.4646,-34.389882 C 1232.7637,-33.694154 1231.4653,-32.136235 1230.7332,-30.365582 C 1229.5664,-27.543646 1229.701,-26.769662 1231.8234,-24.095105 C 1234.2197,-21.075227 1234.2151,-21.02743 1231.3774,-19.431829 C 1228.2514,-17.674155 1226.1446,-14.158652 1226.2142,-10.816649 C 1226.2488,-9.1525488 1227.0492,-8.3922648 1229.8886,-7.3265988 C 1231.8852,-6.5771758 1233.6538,-5.7237868 1233.819,-5.4300388 C 1233.9841,-5.1363778 1231.2811,-3.6301698 1227.8122,-2.0829628 C 1220.3515,1.2447922 1213.9482,5.9776562 1214.2379,7.9502532 C 1214.3515,8.7239562 1218.4939,11.813306 1223.4432,14.815579 C 1228.3925,17.817767 1232.3426,20.628708 1232.2212,21.061932 C 1232.0998,21.495239 1229.9831,22.184536 1227.5174,22.593723 C 1220.229,23.80314 1213.3426,27.174582 1211.4355,30.467051 C 1209.8433,33.216045 1209.7029,33.262633 1206.3057,32.170025 C 1200.1439,30.188385 1197.4801,34.132231 1199.92,41.624461 C 1200.4754,43.329842 1200.4424,44.999261 1199.8467,45.334214 C 1199.251,45.669167 1194.4859,43.05685 1189.2576,39.529066 C 1184.0293,36.001282 1178.6398,32.449418 1177.2809,31.636036 C 1175.922,30.822654 1173.9077,29.134328 1172.8046,27.88422 C 1170.8655,25.686584 1170.7767,25.98336 1170.1259,36.847498 C 1169.2555,51.376272 1170.0671,66.702258 1172.3803,79.415278 C 1173.9782,88.197458 1173.9629,89.706038 1172.2668,90.664668 C 1169.2186,92.387228 1168.4875,89.821818 1167.1314,72.645958 C 1165.789,55.6434 1165.7228,51.553646 1166.5536,36.956066 L 1167.1013,27.33193 L 1165.1313,30.242996 C 1163.1952,33.103968 1161.3129,34.44701 1146.3869,43.617936 C 1138.0239,48.756364 1136.507,48.507586 1139.2433,42.446361 C 1140.1137,40.518336 1140.7806,37.579594 1140.7254,35.915823 C 1140.6379,33.279083 1140.3519,32.814298 1138.4972,32.294635 C 1135.9496,31.58085 1132.7816,32.35499 1130.0016,34.370496 C 1128.0867,35.758708 1127.8602,35.623649 1126.2388,32.125809 C 1124.8725,29.178362 1123.7227,28.107145 1120.7122,26.977224 C 1118.6214,26.192441 1115.9674,25.746462 1114.8144,25.986024 C 1113.1972,26.322078 1112.5675,25.870058 1112.0597,24.008341 C 1111.305,21.241964 1108.7467,19.318828 1103.673,17.704063 C 1099.051,16.232985 1100.1746,14.716896 1107.8255,12.101172 C 1116.9374,8.9859722 1120.774,6.4457662 1121.0834,3.3231092 C 1121.4854,-0.73262185 1118.8906,-4.4345978 1112.7854,-8.5157998 C 1106.1715,-12.937053 1106.001,-13.180306 1108.5221,-14.597892 C 1110.4837,-15.700892 1113.0446,-19.883078 1113.2809,-22.369749 C 1113.3479,-23.075012 1112.3611,-25.518587 1111.0881,-27.799918 C 1109.0913,-31.378092 1109.0157,-32.084081 1110.5382,-32.940157 C 1112.6961,-34.153503 1112.2588,-38.268476 1109.4105,-43.550734 C 1108.1431,-45.901222 1108.1838,-46.353519 1108.7261,-46.607627 C 1110.1489,-47.036067 1110.9541,-46.960155 1113.9963,-46.360178 C 1117.2408,-45.271086 1119.8699,-45.070643 1121.1881,-45.811816 C 1122.3308,-46.45436 1123.5553,-46.465104 1123.9092,-45.835681 C 1125.1302,-43.664297 1131.8573,-42.659074 1133.6408,-44.381531 C 1135.1591,-45.848022 1135.4702,-45.678197 1137.3322,-42.366687 C 1139.4198,-38.653953 1143.2275,-35.246652 1147.1966,-33.539499 C 1149.2906,-32.638883 1149.5359,-32.748978 1150.78,-35.147342 C 1152.4863,-38.436448 1152.2037,-49.751806 1150.2843,-55.001857 C 1148.5282,-59.805035 1149.6669,-60.77042 1154.1928,-58.315374 C 1158.9116,-55.755716 1160.8227,-56.812735 1162.6497,-62.993314 C 1164.0911,-67.869513 1164.3688,-68.213673 1166.1987,-67.391979 C 1168.5814,-66.322069 1170.9178,-67.536115 1172.9223,-70.885739 C 1173.6696,-72.469104 1175.9507,-73.852497 1177.5772,-73.31878 C 1177.175,-72.067439 1177.5531,-71.598244 1178.5967,-69.457251 C 1180.6692,-65.205612 1183.5667,-63.677664 1186.4658,-65.307755 C 1188.4703,-66.434825 1188.7122,-66.131339 1188.5403,-62.705275 C 1188.2908,-57.732798 1189.2579,-55.660992 1192.2153,-54.832341 C 1193.7516,-54.401942 1195.9891,-54.601173 1197.1876,-55.275085 C 1200.6572,-57.225943 1200.8463,-54.749144 1197.7361,-48.091631 C 1194.5263,-41.221175 1193.8437,-35.718048 1195.7752,-32.282937 C 1197.7261,-28.813308 1202.6384,-30.825193 1211.0726,-38.54829 C 1213.0505,-40.359309 1213.3293,-40.346183 1213.8349,-38.41811 C 1214.5176,-35.81477 1218.9327,-35.121166 1227.858,-36.215167 C 1229.8215,-36.30329 1233.1716,-35.008439 1233.4646,-34.389882 z M 1140.9152,44.053154 L 1140.9152,44.053154 z"
       style="fill:url(#radialGradient3458);fill-opacity:1" />
    <path
       sodipodi:nodetypes="csssssssssssssssssssssscccssssssssssssssssssccssssssssssccssssssssscccsccscccsssccsssssssssscccssssscccssssscccccccccssccscccccccccccccccccccccsssssscccccccssccscccssssccccccssssc"
       id="path2611"
       d="M 1233.4667,-34.38949 C 1232.7658,-33.693762 1231.4674,-32.135843 1230.7353,-30.365191 C 1229.5685,-27.543255 1229.7031,-26.769271 1231.8255,-24.094714 C 1234.2218,-21.074836 1234.2172,-21.027039 1231.3795,-19.431438 C 1228.2535,-17.673764 1226.1467,-14.158261 1226.2163,-10.816258 C 1226.2509,-9.1521592 1227.0513,-8.3918743 1229.8907,-7.3262087 C 1231.8873,-6.5767856 1233.6559,-5.7233967 1233.8211,-5.4296485 C 1233.9862,-5.1359874 1231.2832,-3.6297801 1227.8143,-2.0825726 C 1220.3536,1.2451828 1213.9503,5.9780469 1214.24,7.9506439 C 1214.3536,8.7243466 1218.496,11.813697 1223.4453,14.815971 C 1228.3946,17.818159 1232.3447,20.6291 1232.2233,21.062324 C 1232.1019,21.495631 1229.9852,22.184928 1227.5195,22.594115 C 1220.2311,23.803532 1213.3447,27.174974 1211.4376,30.467443 C 1209.8454,33.216437 1209.705,33.263025 1206.3078,32.170417 C 1200.146,30.188777 1197.4822,34.132623 1199.9221,41.624853 C 1200.4775,43.330234 1200.4445,44.999653 1199.8488,45.334606 C 1199.2531,45.669559 1194.488,43.057242 1189.2597,39.529458 C 1184.0314,36.001674 1178.6419,32.44981 1177.283,31.636428 C 1175.9241,30.823046 1173.9098,29.13472 1172.8067,27.884612 C 1170.8676,25.686976 1170.7788,25.983752 1170.128,36.84789 C 1169.2576,51.376664 1170.0692,66.70265 1172.3824,79.415674 C 1173.9803,88.197858 1173.965,89.706434 1172.2689,90.665061 C 1169.2207,92.387627 1168.4896,89.822214 1167.1335,72.646345 C 1165.7911,55.643792 1165.7249,51.554038 1166.5557,36.956458 L 1167.1034,27.332322 L 1165.1334,30.243388 C 1163.1973,33.10436 1161.315,34.447402 1146.389,43.618328 C 1138.026,48.756756 1136.5091,48.507978 1139.2454,42.446753 C 1140.1158,40.518728 1140.7827,37.579986 1140.7275,35.916215 C 1140.64,33.279475 1140.354,32.81469 1138.4993,32.295027 C 1135.9517,31.581242 1132.7837,32.355382 1130.0037,34.370888 C 1128.0888,35.7591 1127.8623,35.624041 1126.2409,32.126201 C 1124.8746,29.178754 1123.7248,28.107537 1120.7143,26.977616 C 1118.6235,26.192833 1115.9695,25.746854 1114.8165,25.986416 C 1113.1993,26.32247 1112.5696,25.87045 1112.0618,24.008733 C 1111.3071,21.242356 1108.7488,19.31922 1103.6751,17.704455 C 1099.0531,16.233377 1100.1767,14.717288 1107.8276,12.101563 C 1116.9395,8.9863633 1120.7761,6.4461566 1121.0855,3.3234992 C 1121.4875,-0.7322313 1118.8927,-4.4342079 1112.7875,-8.5154098 C 1106.1736,-12.936662 1106.0031,-13.179915 1108.5242,-14.597501 C 1110.4858,-15.700501 1113.0467,-19.882687 1113.283,-22.369358 C 1113.35,-23.074621 1112.3632,-25.518196 1111.0902,-27.799527 C 1109.0934,-31.3777 1109.0178,-32.083689 1110.5403,-32.939765 C 1112.6982,-34.153111 1112.2609,-38.268084 1109.4126,-43.550342 C 1108.1452,-45.90083 1108.1859,-46.353127 1108.7282,-46.607235 C 1110.151,-47.035675 1110.9562,-46.959763 1113.9984,-46.359786 C 1117.2429,-45.270694 1119.872,-45.070251 1121.1902,-45.811424 C 1122.3329,-46.453968 1123.5574,-46.464712 1123.9113,-45.835289 C 1125.1323,-43.663905 1131.8594,-42.658682 1133.6429,-44.381139 C 1135.1612,-45.84763 1135.4723,-45.677805 1137.3343,-42.366295 C 1139.4219,-38.653561 1143.2296,-35.24626 1147.1987,-33.539107 C 1149.2927,-32.638491 1149.538,-32.748586 1150.7821,-35.14695 C 1152.4884,-38.436056 1152.2058,-49.751414 1150.2864,-55.001465 C 1148.5303,-59.804643 1149.669,-60.770028 1154.1949,-58.314982 C 1158.9137,-55.755324 1160.8248,-56.812343 1162.6518,-62.992922 C 1164.0932,-67.869121 1164.3709,-68.213281 1166.2008,-67.391587 C 1168.5835,-66.321677 1170.9199,-67.535723 1172.9244,-70.885347 C 1173.6717,-72.468712 1175.9528,-73.852105 1177.5793,-73.318388 C 1177.1771,-72.067047 1177.5552,-71.597852 1178.5988,-69.456859 C 1180.6713,-65.20522 1183.5688,-63.677272 1186.4679,-65.307363 C 1188.4724,-66.434433 1188.7143,-66.130947 1188.5424,-62.704883 C 1188.2929,-57.732406 1189.26,-55.6606 1192.2174,-54.831949 C 1193.7537,-54.40155 1195.9912,-54.600781 1197.1897,-55.274693 C 1200.6593,-57.225551 1200.8484,-54.748752 1197.7382,-48.091239 C 1194.5284,-41.220783 1193.8458,-35.717656 1195.7773,-32.282545 C 1197.7282,-28.812917 1202.6405,-30.824801 1211.0747,-38.547898 C 1213.0526,-40.358917 1213.3314,-40.345791 1213.837,-38.417718 C 1214.5197,-35.814378 1218.9348,-35.120774 1227.8601,-36.214775 C 1229.8236,-36.302898 1233.1737,-35.008047 1233.4667,-34.38949 z M 1226.2205,-33.721682 C 1224.5916,-32.831577 1215.0144,-34.121595 1212.7992,-35.529395 C 1210.9857,-36.681888 1210.8668,-36.62912 1210.5038,-34.510945 C 1210.3179,-33.495893 1207.2567,-31.910069 1204.4478,-30.674772 C 1197.4667,-26.749392 1192.9661,-28.98296 1192.7437,-36.48348 C 1192.6493,-39.665398 1194.5342,-46.444549 1196.6878,-50.669315 L 1197.9454,-53.136396 L 1194.841,-52.581689 C 1190.448,-51.796876 1187.8494,-53.680283 1186.9432,-58.305824 C 1186.2742,-61.721137 1185.9671,-62.052126 1182.7527,-62.823266 C 1180.1466,-63.448487 1178.8055,-64.506709 1177.3589,-67.079403 C 1175.8522,-69.758962 1175.2116,-70.235442 1174.4122,-69.271186 C 1172.8623,-67.056509 1171.9119,-66.299446 1171.1542,-65.687872 C 1169.3315,-64.58934 1167.1225,-64.329078 1166.5974,-64.619378 C 1166.0723,-64.909592 1164.9566,-63.195194 1164.1179,-60.80948 C 1162.3339,-55.734694 1160.5903,-54.49296 1156.2057,-55.174914 C 1152.1789,-55.801155 1151.7289,-55.532206 1153.0054,-53.261977 C 1153.5712,-52.255737 1154.1503,-49.754679 1154.2924,-47.704014 C 1154.6146,-43.05265 1152.4127,-32.39181 1150.9612,-31.575681 C 1148.1475,-29.993566 1139.0632,-35.21081 1136.4073,-39.934229 C 1135.0566,-42.336514 1134.455,-42.726083 1133.631,-41.732037 C 1132.9589,-40.921245 1130.6704,-41.049583 1127.2924,-42.087623 C 1124.3847,-42.981196 1121.0326,-43.510016 1119.8432,-43.262839 C 1118.6537,-43.015661 1116.016,-43.438173 1113.9814,-44.201812 L 1110.6232,-45.359492 L 1112.2975,-42.006108 C 1114.4623,-38.156176 1114.6713,-32.968064 1112.7062,-31.863129 C 1111.8828,-31.400144 1112.1104,-30.097018 1113.4219,-27.764552 C 1115.3775,-24.286556 1115.0293,-17.128608 1112.8428,-15.860993 C 1110.073,-14.255027 1110.4651,-12.717706 1114.3152,-10.088601 C 1119.7663,-6.3663348 1122.8302,-1.982343 1122.9804,2.3100391 C 1123.1384,6.8258829 1120.95,8.8747196 1111.9846,12.604723 L 1104.8702,15.564467 L 1107.9691,16.955479 C 1109.6735,17.720522 1111.8757,19.713351 1112.8629,21.384017 C 1114.0841,23.450626 1115.2185,24.306106 1116.4119,24.060242 C 1119.5734,23.408946 1125.4676,26.30362 1127.1796,29.348316 C 1128.6667,31.993009 1129.0774,32.1168 1132.3591,30.908703 C 1136.8577,29.252764 1141.1158,29.649392 1142.347,31.83908 C 1142.8701,32.769312 1142.7624,35.898156 1142.1077,38.792038 L 1140.9173,44.053546 L 1150.3638,38.682775 C 1157.9593,34.364461 1160.5874,32.375269 1163.7765,28.531383 C 1171.3441,19.507808 1146.681,23.020198 1121.3585,18.150776 C 1115.5713,17.334687 1115.49,15.481625 1121.2381,15.875114 C 1124.2542,16.27671 1135.5689,18.094479 1156.2807,19.314502 L 1162.9216,19.3242 L 1159.5776,17.344473 C 1155.3432,14.83768 1144.9922,5.0987876 1140.9819,-0.15152892 C 1138.2481,-3.7305948 1136.9816,-4.4109025 1129.2625,-6.4467361 C 1124.5027,-7.7021579 1122.8356,-8.9907797 1122.4898,-9.0203962 C 1115.8842,-10.712584 1122.9547,-10.857595 1126.2256,-9.8996383 C 1129.7235,-9.1825789 1132.6527,-8.8358348 1132.7349,-9.1292696 C 1132.8171,-9.4226178 1130.6336,-12.704823 1127.8828,-16.423079 C 1126.0818,-19.026558 1117.4556,-34.807272 1124.1701,-26.55182 C 1127.1356,-23.105824 1133.956,-16.112044 1140.378,-7.2690504 C 1142.9658,-4.0861981 1151.1608,10.800032 1164.1647,15.339986 L 1167.0638,16.997323 L 1167.4354,11.862446 C 1167.7959,6.8815999 1167.6255,6.414219 1161.7554,-3.7190599 L 1155.7038,-14.165601 C 1163.9034,-3.9454481 1168.888,2.2124166 1168.8542,-2.662511 C 1168.8613,-5.0542168 1168.8279,-10.268988 1169.5714,-15.739903 L 1170.2032,-24.919042 L 1166.0255,-30.036404 C 1163.7273,-32.851216 1160.4542,-36.702094 1161.0822,-37.428848 C 1162.5771,-37.779068 1166.4818,-33.196102 1168.9157,-30.912821 L 1170.8364,-28.691455 L 1171.4518,-35.480631 C 1172.3051,-43.517979 1174.362,-58.434768 1175.7891,-61.848861 C 1176.9982,-62.026372 1177.2175,-60.952409 1176.8346,-56.728751 C 1175.7059,-49.443398 1174.0722,-33.986834 1173.886,-28.368512 C 1173.9274,-21.151396 1167.153,-0.2468521 1178.1561,-5.4719103 L 1176.2341,-2.7692101 C 1175.1769,-1.2827163 1173.734,0.2827112 1173.0275,0.70954679 C 1172.3211,1.1363824 1171.6347,3.9978053 1171.5024,7.0682547 C 1171.37,10.138704 1171.2001,13.864565 1171.1248,15.347947 C 1170.9896,18.01183 1171.0264,18.01613 1174.1285,15.699394 C 1175.8558,14.409331 1179.7345,11.660885 1182.7477,9.591678 C 1187.3852,6.4072856 1188.194,5.4482865 1188.0156,3.3464877 C 1187.8195,1.0370988 1190.4181,-1.8695818 1190.8192,0.21050938 C 1190.0901,1.2526836 1188.7474,4.9362788 1192.1692,2.2471002 C 1197.066,-0.49935646 1216.7313,-25.040162 1221.4928,-28.013756 C 1225.8521,-30.611126 1225.207,-29.835846 1219.5616,-21.930486 C 1202.8606,-2.2376083 1188.2298,10.842065 1180.5547,15.629999 C 1169.846,20.150727 1182.0834,19.046263 1187.0998,18.971839 C 1198.5224,19.567202 1209.7541,18.922565 1221.6433,19.244918 C 1224.3813,19.918951 1216.9559,21.938371 1211.4022,22.030085 C 1207.9637,22.086834 1204.1264,22.148377 1202.8747,22.166692 C 1201.6231,22.185006 1197.3281,22.350736 1193.3302,22.534883 C 1186.4106,22.563581 1179.5911,23.196302 1172.7035,22.738995 C 1172.0989,23.078968 1172.5483,24.158905 1173.9609,25.760523 C 1176.5105,28.651326 1190.0932,38.39633 1194.6763,40.622932 L 1197.8045,42.142793 L 1197.4459,39.015858 C 1196.6385,31.977287 1199.9308,28.281012 1205.4601,30.018052 C 1208.2003,30.878812 1208.7853,30.723107 1210.0475,28.79639 C 1211.8037,26.115929 1221.9713,20.65788 1225.3394,20.587738 C 1226.677,20.559882 1227.6255,20.27767 1227.4473,19.960736 C 1227.269,19.643714 1223.727,17.239229 1219.5761,14.617462 L 1212.0291,9.8506188 C 1211.9627,7.4809088 1213.3925,5.9008392 1214.3086,4.2025606 C 1215.3897,2.9796531 1217.1878,1.6687323 1220.3584,-0.36380311 C 1223.9643,-2.0016077 1227.4242,-3.8990787 1231.1916,-5.2495853 L 1229.5748,-5.3302269 C 1225.1671,-5.8651631 1223.1346,-10.519028 1225.208,-15.329309 C 1226.1237,-17.453774 1227.8467,-19.739466 1229.0368,-20.408638 C 1230.9468,-21.482593 1230.9824,-21.907612 1229.3404,-24.032313 C 1227.866,-25.940136 1227.7443,-27.239906 1228.7534,-30.29892 C 1229.9828,-34.02531 1228.3923,-34.247453 1226.2205,-33.721682 z"
       style="fill:#803f00" />
    <path
       sodipodi:nodetypes="csssssssssssssssssssssscccssssssssssssssssssccssssssssssccssssssssscccc"
       id="path3413"
       d="M 1233.4646,-34.389878 C 1232.7637,-33.694158 1231.4653,-32.136235 1230.7332,-30.365582 C 1229.5664,-27.543646 1229.701,-26.769662 1231.8234,-24.095105 C 1234.2197,-21.075227 1234.2151,-21.02743 1231.3774,-19.431829 C 1228.2514,-17.674155 1226.1446,-14.158652 1226.2142,-10.816649 C 1226.2488,-9.1525488 1227.0492,-8.3922648 1229.8886,-7.3265988 C 1231.8852,-6.5771758 1233.6538,-5.7237868 1233.819,-5.4300388 C 1233.9841,-5.1363778 1231.2811,-3.6301698 1227.8122,-2.0829628 C 1220.3515,1.2447922 1213.9482,5.9776562 1214.2379,7.9502532 C 1214.3515,8.7239562 1218.4939,11.813306 1223.4432,14.815579 C 1228.3925,17.817767 1232.3426,20.628708 1232.2212,21.061932 C 1232.0998,21.495239 1229.9831,22.184536 1227.5174,22.593723 C 1220.229,23.80314 1213.3426,27.174582 1211.4355,30.467051 C 1209.8433,33.216045 1209.7029,33.262633 1206.3057,32.170025 C 1200.1439,30.188385 1197.4801,34.132231 1199.92,41.624461 C 1200.4754,43.329842 1200.4424,44.999261 1199.8467,45.334214 C 1199.251,45.669167 1194.4859,43.05685 1189.2576,39.529066 C 1184.0293,36.001282 1178.6398,32.449418 1177.2809,31.636036 C 1175.922,30.822654 1173.9077,29.134328 1172.8046,27.88422 C 1170.8655,25.686584 1170.7767,25.98336 1170.1259,36.847498 C 1169.2555,51.376272 1170.0671,66.702259 1172.3803,79.415278 C 1173.9782,88.197458 1173.9629,89.706038 1172.2668,90.664668 C 1169.2186,92.387228 1168.4875,89.821818 1167.1314,72.645959 C 1165.789,55.6434 1165.7228,51.553646 1166.5536,36.956066 L 1167.1013,27.33193 L 1165.1313,30.242996 C 1163.1952,33.103968 1161.3129,34.44701 1146.3869,43.617936 C 1138.0239,48.756364 1136.507,48.507586 1139.2433,42.446361 C 1140.1137,40.518336 1140.7806,37.579594 1140.7254,35.915823 C 1140.6379,33.279083 1140.3519,32.814298 1138.4972,32.294635 C 1135.9496,31.58085 1132.7816,32.35499 1130.0016,34.370496 C 1128.0867,35.758708 1127.8602,35.623649 1126.2388,32.125809 C 1124.8725,29.178362 1123.7227,28.107145 1120.7122,26.977224 C 1118.6214,26.192441 1115.9674,25.746462 1114.8144,25.986024 C 1113.1972,26.322078 1112.5675,25.870058 1112.0597,24.008341 C 1111.305,21.241964 1108.7467,19.318828 1103.673,17.704063 C 1099.051,16.232985 1100.1746,14.716896 1107.8255,12.101172 C 1116.9374,8.9859722 1120.774,6.4457662 1121.0834,3.3231092 C 1121.4854,-0.73262185 1118.8906,-4.4345978 1112.7854,-8.5157998 C 1106.1715,-12.937053 1106.001,-13.180306 1108.5221,-14.597892 C 1110.4837,-15.700892 1113.0446,-19.883078 1113.2809,-22.369749 C 1113.3479,-23.075012 1112.3611,-25.518587 1111.0881,-27.799918 C 1109.0913,-31.378092 1109.0157,-32.084081 1110.5382,-32.940157 C 1112.6961,-34.153498 1112.2588,-38.268478 1109.4105,-43.550738 C 1108.1431,-45.901218 1108.1838,-46.353518 1108.7261,-46.607628 C 1110.1489,-47.036068 1110.9541,-46.960158 1113.9963,-46.360178 C 1117.2408,-45.271088 1119.8699,-45.070638 1121.1881,-45.811818 C 1122.3308,-46.454358 1123.5553,-46.465108 1123.9092,-45.835678 C 1125.1302,-43.664298 1131.8573,-42.659078 1133.6408,-44.381528 C 1135.1591,-45.848018 1135.4702,-45.678198 1137.3322,-42.366688 C 1139.4198,-38.653948 1143.2275,-35.246648 1147.1966,-33.539498 C 1149.2906,-32.638883 1149.5359,-32.748978 1150.78,-35.147338 C 1152.4863,-38.436448 1152.2037,-49.751808 1150.2843,-55.001858 C 1148.5282,-59.805038 1149.6669,-60.770428 1154.1928,-58.315378 C 1158.9116,-55.755718 1160.8227,-56.812738 1162.6497,-62.993318 C 1164.0911,-67.869518 1164.3688,-68.213678 1166.1987,-67.391978 C 1168.5814,-66.322068 1170.9178,-67.536118 1172.9223,-70.885738 C 1173.6696,-72.469108 1175.9507,-73.852498 1177.5772,-73.318788 C 1177.175,-72.067438 1177.5531,-71.598248 1178.5967,-69.457258 C 1180.6692,-65.205618 1183.5667,-63.677668 1186.4658,-65.307758 C 1188.4703,-66.434828 1188.7122,-66.131338 1188.5403,-62.705278 C 1188.2908,-57.732798 1189.2579,-55.660998 1192.2153,-54.832348 C 1193.7516,-54.401948 1195.9891,-54.601178 1197.1876,-55.275088 C 1200.6572,-57.225948 1200.8463,-54.749148 1197.7361,-48.091628 C 1194.5263,-41.221178 1193.8437,-35.718048 1195.7752,-32.282937 C 1197.7261,-28.813308 1202.6384,-30.825193 1211.0726,-38.548288 C 1213.0505,-40.359308 1213.3293,-40.346178 1213.8349,-38.418108 C 1214.5176,-35.814768 1218.9327,-35.121168 1227.858,-36.215168 C 1229.8215,-36.303288 1233.1716,-35.008438 1233.4646,-34.389878 z M 1140.9152,44.053154 L 1140.9152,44.053154 z"
       style="fill:url(#radialGradient3460);fill-opacity:1" />
    <path
       sodipodi:nodetypes="csssssssssssssssssssssscccssssssssssssssssssccssssssssssccssssssssscccc"
       id="path3427"
       d="M 1233.4646,-34.38988 C 1232.7637,-33.69416 1231.4653,-32.136237 1230.7332,-30.365584 C 1229.5664,-27.543648 1229.701,-26.769664 1231.8234,-24.095107 C 1234.2197,-21.075229 1234.2151,-21.027432 1231.3774,-19.431831 C 1228.2514,-17.674157 1226.1446,-14.158654 1226.2142,-10.816651 C 1226.2488,-9.1525508 1227.0492,-8.3922668 1229.8886,-7.3266008 C 1231.8852,-6.5771778 1233.6538,-5.7237888 1233.819,-5.4300408 C 1233.9841,-5.1363798 1231.2811,-3.6301718 1227.8122,-2.0829648 C 1220.3515,1.2447902 1213.9482,5.9776542 1214.2379,7.9502512 C 1214.3515,8.7239542 1218.4939,11.813304 1223.4432,14.815577 C 1228.3925,17.817765 1232.3426,20.628706 1232.2212,21.06193 C 1232.0998,21.495237 1229.9831,22.184534 1227.5174,22.593721 C 1220.229,23.803138 1213.3426,27.17458 1211.4355,30.467049 C 1209.8433,33.216043 1209.7029,33.262631 1206.3057,32.170023 C 1200.1439,30.188383 1197.4801,34.132229 1199.92,41.624459 C 1200.4754,43.32984 1200.4424,44.999259 1199.8467,45.334212 C 1199.251,45.669165 1194.4859,43.056848 1189.2576,39.529064 C 1184.0293,36.00128 1178.6398,32.449416 1177.2809,31.636034 C 1175.922,30.822652 1173.9077,29.134326 1172.8046,27.884218 C 1170.8655,25.686582 1170.7767,25.983358 1170.1259,36.847496 C 1169.2555,51.376268 1170.0671,66.702258 1172.3803,79.415278 C 1173.9782,88.197458 1173.9629,89.706038 1172.2668,90.664668 C 1169.2186,92.387228 1168.4875,89.821818 1167.1314,72.645958 C 1165.789,55.643398 1165.7228,51.553648 1166.5536,36.956064 L 1167.1013,27.331928 L 1165.1313,30.242994 C 1163.1952,33.103966 1161.3129,34.447008 1146.3869,43.617934 C 1138.0239,48.756358 1136.507,48.507588 1139.2433,42.446359 C 1140.1137,40.518334 1140.7806,37.579592 1140.7254,35.915821 C 1140.6379,33.279081 1140.3519,32.814296 1138.4972,32.294633 C 1135.9496,31.580848 1132.7816,32.354988 1130.0016,34.370494 C 1128.0867,35.758706 1127.8602,35.623647 1126.2388,32.125807 C 1124.8725,29.17836 1123.7227,28.107143 1120.7122,26.977222 C 1118.6214,26.192439 1115.9674,25.74646 1114.8144,25.986022 C 1113.1972,26.322076 1112.5675,25.870056 1112.0597,24.008339 C 1111.305,21.241962 1108.7467,19.318826 1103.673,17.704061 C 1099.051,16.232983 1100.1746,14.716894 1107.8255,12.10117 C 1116.9374,8.9859702 1120.774,6.4457642 1121.0834,3.3231072 C 1121.4854,-0.73262385 1118.8906,-4.4345998 1112.7854,-8.5158018 C 1106.1715,-12.937055 1106.001,-13.180308 1108.5221,-14.597894 C 1110.4837,-15.700894 1113.0446,-19.88308 1113.2809,-22.369751 C 1113.3479,-23.075014 1112.3611,-25.518589 1111.0881,-27.79992 C 1109.0913,-31.378094 1109.0157,-32.084083 1110.5382,-32.940159 C 1112.6961,-34.1535 1112.2588,-38.26848 1109.4105,-43.55074 C 1108.1431,-45.90122 1108.1838,-46.35352 1108.7261,-46.60763 C 1110.1489,-47.03607 1110.9541,-46.96016 1113.9963,-46.36018 C 1117.2408,-45.27109 1119.8699,-45.07064 1121.1881,-45.81182 C 1122.3308,-46.45436 1123.5553,-46.46511 1123.9092,-45.83568 C 1125.1302,-43.6643 1131.8573,-42.65908 1133.6408,-44.38153 C 1135.1591,-45.84802 1135.4702,-45.6782 1137.3322,-42.36669 C 1139.4198,-38.65395 1143.2275,-35.24665 1147.1966,-33.5395 C 1149.2906,-32.638885 1149.5359,-32.74898 1150.78,-35.14734 C 1152.4863,-38.43645 1152.2037,-49.75181 1150.2843,-55.00186 C 1148.5282,-59.80504 1149.6669,-60.77043 1154.1928,-58.31538 C 1158.9116,-55.75572 1160.8227,-56.81274 1162.6497,-62.99332 C 1164.0911,-67.869519 1164.3688,-68.213679 1166.1987,-67.391979 C 1168.5814,-66.322069 1170.9178,-67.536119 1172.9223,-70.885739 C 1173.6696,-72.469109 1175.9507,-73.852499 1177.5772,-73.318789 C 1177.175,-72.067439 1177.5531,-71.598249 1178.5967,-69.457259 C 1180.6692,-65.20562 1183.5667,-63.67767 1186.4658,-65.30776 C 1188.4703,-66.434829 1188.7122,-66.131339 1188.5403,-62.70528 C 1188.2908,-57.7328 1189.2579,-55.661 1192.2153,-54.83235 C 1193.7516,-54.40195 1195.9891,-54.60118 1197.1876,-55.27509 C 1200.6572,-57.22595 1200.8463,-54.74915 1197.7361,-48.09163 C 1194.5263,-41.22118 1193.8437,-35.71805 1195.7752,-32.282939 C 1197.7261,-28.81331 1202.6384,-30.825195 1211.0726,-38.54829 C 1213.0505,-40.35931 1213.3293,-40.34618 1213.8349,-38.41811 C 1214.5176,-35.81477 1218.9327,-35.12117 1227.858,-36.21517 C 1229.8215,-36.30329 1233.1716,-35.00844 1233.4646,-34.38988 z M 1140.9152,44.053152 L 1140.9152,44.053152 z"
       style="opacity:0.23999999;fill:url(#radialGradient3462);fill-opacity:1" />
    <path
       sodipodi:nodetypes="csssssssssssssssssssssscccssssssssssssssssssccssssssssssccssssssssscccc"
       id="path3439"
       d="M 1233.4646,-34.389885 C 1232.7637,-33.694165 1231.4653,-32.136242 1230.7332,-30.365589 C 1229.5664,-27.543653 1229.701,-26.769669 1231.8234,-24.095112 C 1234.2197,-21.075234 1234.2151,-21.027437 1231.3774,-19.431836 C 1228.2514,-17.674162 1226.1446,-14.158659 1226.2142,-10.816656 C 1226.2488,-9.1525558 1227.0492,-8.3922718 1229.8886,-7.3266058 C 1231.8852,-6.5771828 1233.6538,-5.7237938 1233.819,-5.4300458 C 1233.9841,-5.1363848 1231.2811,-3.6301768 1227.8122,-2.0829698 C 1220.3515,1.2447852 1213.9482,5.9776492 1214.2379,7.9502462 C 1214.3515,8.7239492 1218.4939,11.813299 1223.4432,14.815572 C 1228.3925,17.81776 1232.3426,20.628701 1232.2212,21.061925 C 1232.0998,21.495232 1229.9831,22.184529 1227.5174,22.593716 C 1220.229,23.803133 1213.3426,27.174575 1211.4355,30.467044 C 1209.8433,33.216038 1209.7029,33.262626 1206.3057,32.170018 C 1200.1439,30.188378 1197.4801,34.132224 1199.92,41.624454 C 1200.4754,43.329835 1200.4424,44.999254 1199.8467,45.334207 C 1199.251,45.66916 1194.4859,43.056843 1189.2576,39.529059 C 1184.0293,36.001275 1178.6398,32.449411 1177.2809,31.636029 C 1175.922,30.822647 1173.9077,29.134321 1172.8046,27.884213 C 1170.8655,25.686577 1170.7767,25.983353 1170.1259,36.847491 C 1169.2555,51.376263 1170.0671,66.702258 1172.3803,79.415278 C 1173.9782,88.197458 1173.9629,89.706038 1172.2668,90.664668 C 1169.2186,92.387228 1168.4875,89.821818 1167.1314,72.645958 C 1165.789,55.643393 1165.7228,51.553643 1166.5536,36.956059 L 1167.1013,27.331923 L 1165.1313,30.242989 C 1163.1952,33.103961 1161.3129,34.447003 1146.3869,43.617929 C 1138.0239,48.756353 1136.507,48.507583 1139.2433,42.446354 C 1140.1137,40.518329 1140.7806,37.579587 1140.7254,35.915816 C 1140.6379,33.279076 1140.3519,32.814291 1138.4972,32.294628 C 1135.9496,31.580843 1132.7816,32.354983 1130.0016,34.370489 C 1128.0867,35.758701 1127.8602,35.623642 1126.2388,32.125802 C 1124.8725,29.178355 1123.7227,28.107138 1120.7122,26.977217 C 1118.6214,26.192434 1115.9674,25.746455 1114.8144,25.986017 C 1113.1972,26.322071 1112.5675,25.870051 1112.0597,24.008334 C 1111.305,21.241957 1108.7467,19.318821 1103.673,17.704056 C 1099.051,16.232978 1100.1746,14.716889 1107.8255,12.101165 C 1116.9374,8.9859652 1120.774,6.4457592 1121.0834,3.3231022 C 1121.4854,-0.73262885 1118.8906,-4.4346048 1112.7854,-8.5158068 C 1106.1715,-12.93706 1106.001,-13.180313 1108.5221,-14.597899 C 1110.4837,-15.700899 1113.0446,-19.883085 1113.2809,-22.369756 C 1113.3479,-23.075019 1112.3611,-25.518594 1111.0881,-27.799925 C 1109.0913,-31.378099 1109.0157,-32.084088 1110.5382,-32.940164 C 1112.6961,-34.153505 1112.2588,-38.268485 1109.4105,-43.550745 C 1108.1431,-45.901225 1108.1838,-46.353525 1108.7261,-46.607635 C 1110.1489,-47.036075 1110.9541,-46.960165 1113.9963,-46.360185 C 1117.2408,-45.271095 1119.8699,-45.070645 1121.1881,-45.811825 C 1122.3308,-46.454365 1123.5553,-46.465115 1123.9092,-45.835685 C 1125.1302,-43.664305 1131.8573,-42.659085 1133.6408,-44.381535 C 1135.1591,-45.848025 1135.4702,-45.678205 1137.3322,-42.366695 C 1139.4198,-38.653955 1143.2275,-35.246655 1147.1966,-33.539505 C 1149.2906,-32.63889 1149.5359,-32.748985 1150.78,-35.147345 C 1152.4863,-38.436455 1152.2037,-49.751815 1150.2843,-55.001865 C 1148.5282,-59.805045 1149.6669,-60.770435 1154.1928,-58.315385 C 1158.9116,-55.755725 1160.8227,-56.812745 1162.6497,-62.993325 C 1164.0911,-67.869524 1164.3688,-68.213684 1166.1987,-67.391984 C 1168.5814,-66.322074 1170.9178,-67.536124 1172.9223,-70.885744 C 1173.6696,-72.469114 1175.9507,-73.852504 1177.5772,-73.318794 C 1177.175,-72.067444 1177.5531,-71.598254 1178.5967,-69.457264 C 1180.6692,-65.205625 1183.5667,-63.677675 1186.4658,-65.307765 C 1188.4703,-66.434834 1188.7122,-66.131344 1188.5403,-62.705285 C 1188.2908,-57.732805 1189.2579,-55.661005 1192.2153,-54.832355 C 1193.7516,-54.401955 1195.9891,-54.601185 1197.1876,-55.275095 C 1200.6572,-57.225955 1200.8463,-54.749155 1197.7361,-48.091635 C 1194.5263,-41.221185 1193.8437,-35.718055 1195.7752,-32.282944 C 1197.7261,-28.813315 1202.6384,-30.8252 1211.0726,-38.548295 C 1213.0505,-40.359315 1213.3293,-40.346185 1213.8349,-38.418115 C 1214.5176,-35.814775 1218.9327,-35.121175 1227.858,-36.215175 C 1229.8215,-36.303295 1233.1716,-35.008445 1233.4646,-34.389885 z M 1140.9152,44.053147 L 1140.9152,44.053147 z"
       style="opacity:1;fill:url(#radialGradient3464);fill-opacity:1" />
  </g>
</svg>
