<?xml version="1.0" encoding="UTF-8" standalone="no"?>
<!-- Created with Inkscape (http://www.inkscape.org/) -->
<svg
   xmlns:dc="http://purl.org/dc/elements/1.1/"
   xmlns:cc="http://creativecommons.org/ns#"
   xmlns:rdf="http://www.w3.org/1999/02/22-rdf-syntax-ns#"
   xmlns:svg="http://www.w3.org/2000/svg"
   xmlns="http://www.w3.org/2000/svg"
   xmlns:xlink="http://www.w3.org/1999/xlink"
   xmlns:sodipodi="http://sodipodi.sourceforge.net/DTD/sodipodi-0.dtd"
   xmlns:inkscape="http://www.inkscape.org/namespaces/inkscape"
   inkscape:export-ydpi="90.000000"
   inkscape:export-xdpi="90.000000"
   inkscape:export-filename="/home/patrick/Desktop/desktop.png"
   width="72"
   height="72"
   id="svg11300"
   sodipodi:version="0.32"
   inkscape:version="0.46"
   sodipodi:docbase="/home/patrick/Projects/Beryl/svn/beryl/trunk/beryl-settings/images"
   sodipodi:docname="plugin-glib.svg"
   inkscape:output_extension="org.inkscape.output.svg.inkscape"
   version="1.0">
  <defs
     id="defs3">
    <linearGradient
       inkscape:collect="always"
       id="linearGradient3505">
      <stop
         style="stop-color:#ffffff;stop-opacity:1;"
         offset="0"
         id="stop3507" />
      <stop
         style="stop-color:#ffffff;stop-opacity:0;"
         offset="1"
         id="stop3509" />
    </linearGradient>
    <linearGradient
       inkscape:collect="always"
       id="linearGradient3493">
      <stop
         style="stop-color:#00316e;stop-opacity:1"
         offset="0"
         id="stop3495" />
      <stop
         style="stop-color:#2c72c7;stop-opacity:1"
         offset="1"
         id="stop3497" />
    </linearGradient>
    <inkscape:perspective
       sodipodi:type="inkscape:persp3d"
       inkscape:vp_x="0 : 16 : 1"
       inkscape:vp_y="0 : 1000 : 0"
       inkscape:vp_z="32 : 16 : 1"
       inkscape:persp3d-origin="16 : 10.666667 : 1"
       id="perspective61" />
    <linearGradient
       inkscape:collect="always"
       id="linearGradient8700">
      <stop
         style="stop-color:#000000;stop-opacity:1;"
         offset="0"
         id="stop8702" />
      <stop
         style="stop-color:#000000;stop-opacity:0;"
         offset="1"
         id="stop8704" />
    </linearGradient>
    <linearGradient
       id="linearGradient4362">
      <stop
         style="stop-color:#83a9d8;stop-opacity:1;"
         offset="0"
         id="stop4364" />
      <stop
         style="stop-color:#3465a4;stop-opacity:1;"
         offset="1"
         id="stop4366" />
    </linearGradient>
    <linearGradient
       id="linearGradient8440">
      <stop
         style="stop-color:#edeeec;stop-opacity:1;"
         offset="0"
         id="stop8442" />
      <stop
         style="stop-color:#babdb6;stop-opacity:1;"
         offset="1"
         id="stop8444" />
    </linearGradient>
    <radialGradient
       inkscape:collect="always"
       xlink:href="#linearGradient4362"
       id="radialGradient7917"
       gradientUnits="userSpaceOnUse"
       gradientTransform="matrix(-0.4145162,1.4695513,-2.0469306,-0.5788028,31.56793,58.958808)"
       cx="-30.094473"
       cy="19.634174"
       fx="-30.094473"
       fy="19.634174"
       r="12.989234" />
    <radialGradient
       inkscape:collect="always"
       xlink:href="#linearGradient8700"
       id="radialGradient8706"
       cx="-3.8750002"
       cy="35.4375"
       fx="-3.8750002"
       fy="35.4375"
       r="8"
       gradientTransform="matrix(1,0,0,0.3671875,0,22.425292)"
       gradientUnits="userSpaceOnUse" />
    <linearGradient
       y2="39.999443"
       x2="25.058096"
       y1="47.027729"
       x1="25.058096"
       gradientUnits="userSpaceOnUse"
       id="linearGradient8388"
       xlink:href="#linearGradient3702"
       inkscape:collect="always" />
    <radialGradient
       r="2.5"
       fy="43.5"
       fx="4.9929786"
       cy="43.5"
       cx="4.9929786"
       gradientTransform="matrix(2.003784,0,0,1.4,-20.01187,-104.4)"
       gradientUnits="userSpaceOnUse"
       id="radialGradient8386"
       xlink:href="#linearGradient3688"
       inkscape:collect="always" />
    <radialGradient
       r="2.5"
       fy="43.5"
       fx="4.9929786"
       cy="43.5"
       cx="4.9929786"
       gradientTransform="matrix(2.003784,0,0,1.4,27.98813,-17.4)"
       gradientUnits="userSpaceOnUse"
       id="radialGradient8384"
       xlink:href="#linearGradient3688"
       inkscape:collect="always" />
    <radialGradient
       r="38.158695"
       fy="7.2678967"
       fx="8.1435566"
       cy="7.2678967"
       cx="8.1435566"
       gradientTransform="matrix(0.9767883,0,0,1.0291075,3.3156277,0.9781569)"
       gradientUnits="userSpaceOnUse"
       id="radialGradient8382"
       xlink:href="#linearGradient15662"
       inkscape:collect="always" />
    <radialGradient
       r="37.751713"
       fy="3.7561285"
       fx="8.824419"
       cy="3.7561285"
       cx="8.824419"
       gradientTransform="matrix(0.9988117,0,0,1.0519401,2.8016713,0.4602236)"
       gradientUnits="userSpaceOnUse"
       id="radialGradient8380"
       xlink:href="#linearGradient269"
       inkscape:collect="always" />
    <radialGradient
       r="86.70845"
       fy="35.736916"
       fx="33.966679"
       cy="35.736916"
       cx="33.966679"
       gradientTransform="matrix(0.9907871,0,0,1.0604597,-0.6576517,-0.1982243)"
       gradientUnits="userSpaceOnUse"
       id="radialGradient8378"
       xlink:href="#linearGradient259"
       inkscape:collect="always" />
    <linearGradient
       y2="38.070381"
       x2="34.170048"
       y1="36.921333"
       x1="33.396004"
       gradientTransform="matrix(-2.48131e-2,-0.756771,0.756567,-2.481981e-2,8.221918,36.1682)"
       gradientUnits="userSpaceOnUse"
       id="linearGradient8376"
       xlink:href="#linearGradient2251"
       inkscape:collect="always" />
    <radialGradient
       r="37.751713"
       fy="2.3667307"
       fx="31.863327"
       cy="2.3667307"
       cx="31.863327"
       gradientTransform="matrix(0.331735,0,0,0.353831,20.10526,9.5823)"
       gradientUnits="userSpaceOnUse"
       id="radialGradient8374"
       xlink:href="#linearGradient269"
       inkscape:collect="always" />
    <radialGradient
       r="86.70845"
       fy="14.9373"
       fx="30.653816"
       cy="14.9373"
       cx="30.653816"
       gradientTransform="matrix(0.148355,1.009137e-2,-1.104438e-2,0.162365,25.06011,12.81706)"
       gradientUnits="userSpaceOnUse"
       id="radialGradient8372"
       xlink:href="#linearGradient259"
       inkscape:collect="always" />
    <radialGradient
       r="4.2929163"
       fy="12.98915"
       fx="37.030354"
       cy="12.98915"
       cx="37.030354"
       gradientTransform="matrix(1.744653,0,0,1.283833,-26.58256,-3.478359)"
       gradientUnits="userSpaceOnUse"
       id="radialGradient8370"
       xlink:href="#linearGradient4790"
       inkscape:collect="always" />
    <linearGradient
       id="linearGradient3702">
      <stop
         style="stop-color:black;stop-opacity:0;"
         offset="0"
         id="stop3704" />
      <stop
         id="stop3710"
         offset="0.5"
         style="stop-color:black;stop-opacity:1;" />
      <stop
         style="stop-color:black;stop-opacity:0;"
         offset="1"
         id="stop3706" />
    </linearGradient>
    <linearGradient
       inkscape:collect="always"
       id="linearGradient3688">
      <stop
         style="stop-color:black;stop-opacity:1;"
         offset="0"
         id="stop3690" />
      <stop
         style="stop-color:black;stop-opacity:0;"
         offset="1"
         id="stop3692" />
    </linearGradient>
    <linearGradient
       inkscape:collect="always"
       id="linearGradient4790">
      <stop
         style="stop-color:#000000;stop-opacity:1;"
         offset="0"
         id="stop4792" />
      <stop
         style="stop-color:#000000;stop-opacity:0;"
         offset="1"
         id="stop4794" />
    </linearGradient>
    <linearGradient
       inkscape:collect="always"
       id="linearGradient2251">
      <stop
         style="stop-color:#ffffff;stop-opacity:1;"
         offset="0"
         id="stop2253" />
      <stop
         style="stop-color:#ffffff;stop-opacity:0;"
         offset="1"
         id="stop2255" />
    </linearGradient>
    <linearGradient
       id="linearGradient15662">
      <stop
         id="stop15664"
         offset="0.0000000"
         style="stop-color:#ffffff;stop-opacity:1.0000000;" />
      <stop
         id="stop15666"
         offset="1.0000000"
         style="stop-color:#f8f8f8;stop-opacity:1.0000000;" />
    </linearGradient>
    <linearGradient
       id="linearGradient269">
      <stop
         id="stop270"
         offset="0.0000000"
         style="stop-color:#a3a3a3;stop-opacity:1.0000000;" />
      <stop
         id="stop271"
         offset="1"
         style="stop-color:#8a8a8a;stop-opacity:1;" />
    </linearGradient>
    <linearGradient
       id="linearGradient259">
      <stop
         id="stop260"
         offset="0.0000000"
         style="stop-color:#fafafa;stop-opacity:1.0000000;" />
      <stop
         id="stop261"
         offset="1.0000000"
         style="stop-color:#bbbbbb;stop-opacity:1.0000000;" />
    </linearGradient>
    <linearGradient
       id="linearGradient3990">
      <stop
         id="stop3992"
         offset="0"
         style="stop-color:#6795cf;stop-opacity:1;" />
      <stop
         id="stop3994"
         offset="1"
         style="stop-color:#3465a4;stop-opacity:1;" />
    </linearGradient>
    <radialGradient
       inkscape:collect="always"
       xlink:href="#linearGradient3990"
       id="radialGradient8129"
       gradientUnits="userSpaceOnUse"
       gradientTransform="matrix(8.7606339e-2,1.3143805,-1.7009086,0.1161372,65.817413,67.547452)"
       cx="-45.669922"
       cy="10.424097"
       fx="-45.669922"
       fy="10.424097"
       r="13.104429" />
    <radialGradient
       r="2.171875"
       fy="-12.203125"
       fx="51.4375"
       cy="-12.203125"
       cx="51.4375"
       gradientTransform="matrix(-1.9576392,-9.2540676e-8,-1.2888861e-7,1.4565793,110.01781,62.73803)"
       gradientUnits="userSpaceOnUse"
       id="radialGradient8114"
       xlink:href="#linearGradient51765"
       inkscape:collect="always" />
    <radialGradient
       r="2.171875"
       fy="-12.203125"
       fx="51.4375"
       cy="-12.203125"
       cx="51.4375"
       gradientTransform="matrix(1.9576392,-8.146468e-7,6.6614241e-7,1.4565793,-59.017557,62.738067)"
       gradientUnits="userSpaceOnUse"
       id="radialGradient8112"
       xlink:href="#linearGradient51765"
       inkscape:collect="always" />
    <linearGradient
       y2="-5.5633383"
       x2="32.084972"
       y1="-14.402173"
       x1="32.084972"
       gradientTransform="matrix(0.9788196,0,0,0.7154223,-8.5008021,52.112719)"
       gradientUnits="userSpaceOnUse"
       id="linearGradient8110"
       xlink:href="#linearGradient47870"
       inkscape:collect="always" />
    <linearGradient
       id="linearGradient3690">
      <stop
         style="stop-color:white;stop-opacity:1;"
         offset="0"
         id="stop3157" />
      <stop
         style="stop-color:white;stop-opacity:0.46875"
         offset="1"
         id="stop3694" />
    </linearGradient>
    <linearGradient
       id="linearGradient3674">
      <stop
         style="stop-color:#3465a4;stop-opacity:1"
         offset="0"
         id="stop3676" />
      <stop
         style="stop-color:#729fcf;stop-opacity:1;"
         offset="1"
         id="stop3678" />
    </linearGradient>
    <linearGradient
       id="linearGradient2781">
      <stop
         style="stop-color:#d3d7cf;stop-opacity:1"
         offset="0"
         id="stop2783" />
      <stop
         style="stop-color:#eeeeec;stop-opacity:1"
         offset="1"
         id="stop2785" />
    </linearGradient>
    <linearGradient
       id="linearGradient51765">
      <stop
         style="stop-color:#000000;stop-opacity:1"
         offset="0"
         id="stop51767" />
      <stop
         style="stop-color:#000000;stop-opacity:0"
         offset="1"
         id="stop51769" />
    </linearGradient>
    <linearGradient
       id="linearGradient47870">
      <stop
         style="stop-color:#000000;stop-opacity:0"
         offset="0"
         id="stop47872" />
      <stop
         style="stop-color:#000000;stop-opacity:1"
         offset="0.5"
         id="stop47878" />
      <stop
         style="stop-color:#000000;stop-opacity:0"
         offset="1"
         id="stop47874" />
    </linearGradient>
    <inkscape:perspective
       id="perspective3140"
       inkscape:persp3d-origin="16 : 10.666667 : 1"
       inkscape:vp_z="32 : 16 : 1"
       inkscape:vp_y="0 : 1000 : 0"
       inkscape:vp_x="0 : 16 : 1"
       sodipodi:type="inkscape:persp3d" />
    <linearGradient
       inkscape:collect="always"
       xlink:href="#linearGradient3690"
       id="linearGradient3284"
       gradientUnits="userSpaceOnUse"
       gradientTransform="matrix(1.2605424,0,0,1.2058553,34.332587,-1.6435364)"
       x1="9.5"
       y1="16.26436"
       x2="9.5"
       y2="13.408723" />
    <linearGradient
       inkscape:collect="always"
       xlink:href="#linearGradient3674"
       id="linearGradient3287"
       gradientUnits="userSpaceOnUse"
       gradientTransform="matrix(1.2446306,0,0,1.2707947,34.731826,-1.9993544)"
       x1="16.440886"
       y1="3.9467564"
       x2="16.491102"
       y2="8.1244717" />
    <linearGradient
       inkscape:collect="always"
       xlink:href="#linearGradient2781"
       id="linearGradient3290"
       gradientUnits="userSpaceOnUse"
       gradientTransform="matrix(1.2446306,0,0,1.1767765,34.731826,-0.6802464)"
       x1="24.925514"
       y1="40.000107"
       x2="24.925514"
       y2="19.53867" />
    <radialGradient
       inkscape:collect="always"
       xlink:href="#linearGradient8700"
       id="radialGradient3355"
       gradientUnits="userSpaceOnUse"
       gradientTransform="matrix(1.0000001,4.8887115e-7,-1.319373e-7,0.3671875,4.4615611e-6,22.425294)"
       cx="-3.8750002"
       cy="35.4375"
       fx="-3.8750002"
       fy="35.4375"
       r="8" />
    <radialGradient
       inkscape:collect="always"
       xlink:href="#linearGradient3493"
       id="radialGradient3499"
       cx="35.704742"
       cy="-7.1539626"
       fx="35.704742"
       fy="-7.1539626"
       r="23.621214"
       gradientTransform="matrix(-0.3675041,-1.4471162,1.8951848,-0.481294,57.593867,46.374052)"
       gradientUnits="userSpaceOnUse" />
    <radialGradient
       inkscape:collect="always"
       xlink:href="#linearGradient3505"
       id="radialGradient3511"
       cx="9.422967"
       cy="-11.900172"
       fx="9.422967"
       fy="-11.900172"
       r="23.121214"
       gradientTransform="matrix(-0.4918085,1.579235,-1.5680498,-0.4883254,1.1668565,-51.01535)"
       gradientUnits="userSpaceOnUse" />
    <radialGradient
       inkscape:collect="always"
       xlink:href="#linearGradient3505"
       id="radialGradient3515"
       gradientUnits="userSpaceOnUse"
       gradientTransform="matrix(1,-0.9865284,0.9737975,0.9870961,13.104309,98.235409)"
       cx="41.097347"
       cy="-28.634323"
       fx="41.097347"
       fy="-28.634323"
       r="23.121214" />
    <linearGradient
       gradientTransform="matrix(0.2239201,0,0,0.2239201,91.311167,603.90589)"
       y2="782.78912"
       x2="269.09747"
       y1="874.93201"
       x1="199.84715"
       gradientUnits="userSpaceOnUse"
       id="linearGradient2637"
       xlink:href="#linearGradient3249"
       inkscape:collect="always" />
    <linearGradient
       gradientTransform="matrix(0.2239201,0,0,0.2239201,91.311167,603.90589)"
       y2="765.32507"
       x2="331.23999"
       y1="832.46796"
       x1="414.09714"
       gradientUnits="userSpaceOnUse"
       id="linearGradient2634"
       xlink:href="#linearGradient3259"
       inkscape:collect="always" />
    <radialGradient
       r="116.16487"
       fy="676.00421"
       fx="223.57362"
       cy="676.00421"
       cx="223.57362"
       gradientTransform="matrix(-0.2185116,0.2427758,-0.2258055,-0.2032375,347.57722,832.98936)"
       gradientUnits="userSpaceOnUse"
       id="radialGradient2631"
       xlink:href="#linearGradient3269"
       inkscape:collect="always" />
    <inkscape:perspective
       sodipodi:type="inkscape:persp3d"
       inkscape:vp_x="0 : 64 : 1"
       inkscape:vp_y="0 : 1000 : 0"
       inkscape:vp_z="128 : 64 : 1"
       inkscape:persp3d-origin="64 : 42.666667 : 1"
       id="perspective2581" />
    <linearGradient
       id="XMLID_27_"
       gradientUnits="userSpaceOnUse"
       x1="60.0015"
       y1="86"
       x2="60.0015"
       y2="34.0005"
       gradientTransform="translate(145.71379,-238.21429)">
      <stop
         offset="0"
         style="stop-color:#BBBBBB"
         id="stop47" />
      <stop
         offset="1"
         style="stop-color:#555555"
         id="stop49" />
    </linearGradient>
    <linearGradient
       id="XMLID_26_"
       gradientUnits="userSpaceOnUse"
       x1="60.0015"
       y1="92"
       x2="60.0015"
       y2="28.0005"
       gradientTransform="translate(145.71379,-238.21429)">
      <stop
         offset="0.1953"
         style="stop-color:#E9E9F0"
         id="stop30" />
      <stop
         offset="0.2597"
         style="stop-color:#DADAE2"
         id="stop32" />
      <stop
         offset="0.461"
         style="stop-color:#B1B1BB"
         id="stop34" />
      <stop
         offset="0.6437"
         style="stop-color:#93939F"
         id="stop36" />
      <stop
         offset="0.7999"
         style="stop-color:#81818E"
         id="stop38" />
      <stop
         offset="0.9112"
         style="stop-color:#7A7A88"
         id="stop40" />
      <stop
         offset="1"
         style="stop-color:#696975"
         id="stop42" />
    </linearGradient>
    <linearGradient
       id="XMLID_25_"
       gradientUnits="userSpaceOnUse"
       x1="60.0015"
       y1="94"
       x2="60.0015"
       y2="26.0005"
       gradientTransform="translate(145.71379,-238.21429)">
      <stop
         offset="0.2959"
         style="stop-color:#FFFFFF"
         id="stop23" />
      <stop
         offset="1"
         style="stop-color:#4A4A55"
         id="stop25" />
    </linearGradient>
    <linearGradient
       id="XMLID_24_"
       gradientUnits="userSpaceOnUse"
       x1="60.0005"
       y1="12.8452"
       x2="60.0005"
       y2="120.2141"
       gradientTransform="translate(145.71379,-238.21429)">
      <stop
         offset="0"
         style="stop-color:#FFFFFF"
         id="stop16" />
      <stop
         offset="1"
         style="stop-color:#ffffff;stop-opacity:0;"
         id="stop18" />
    </linearGradient>
    <radialGradient
       id="XMLID_23_"
       cx="59.5107"
       cy="124"
       r="125.1714"
       gradientUnits="userSpaceOnUse"
       gradientTransform="translate(145.71379,-238.21429)">
      <stop
         offset="0.1775"
         style="stop-color:#F0F0F0"
         id="stop9" />
      <stop
         offset="0.5325"
         style="stop-color:#A5A5BB"
         id="stop11" />
    </radialGradient>
    <filter
       inkscape:collect="always"
       id="filter2826">
      <feGaussianBlur
         inkscape:collect="always"
         stdDeviation="2.40001"
         id="feGaussianBlur2828" />
    </filter>
    <radialGradient
       inkscape:collect="always"
       xlink:href="#XMLID_23_"
       id="radialGradient2894"
       gradientUnits="userSpaceOnUse"
       gradientTransform="translate(145.71379,-238.21429)"
       cx="59.5107"
       cy="124"
       r="125.1714" />
    <linearGradient
       inkscape:collect="always"
       xlink:href="#XMLID_24_"
       id="linearGradient2896"
       gradientUnits="userSpaceOnUse"
       gradientTransform="translate(145.71379,-238.21429)"
       x1="60.0005"
       y1="12.8452"
       x2="60.0005"
       y2="120.2141" />
    <linearGradient
       inkscape:collect="always"
       xlink:href="#XMLID_25_"
       id="linearGradient2898"
       gradientUnits="userSpaceOnUse"
       gradientTransform="translate(145.71379,-238.21429)"
       x1="60.0015"
       y1="94"
       x2="60.0015"
       y2="26.0005" />
    <linearGradient
       inkscape:collect="always"
       xlink:href="#XMLID_26_"
       id="linearGradient2900"
       gradientUnits="userSpaceOnUse"
       gradientTransform="translate(145.71379,-238.21429)"
       x1="60.0015"
       y1="92"
       x2="60.0015"
       y2="28.0005" />
    <linearGradient
       inkscape:collect="always"
       xlink:href="#XMLID_27_"
       id="linearGradient2902"
       gradientUnits="userSpaceOnUse"
       gradientTransform="translate(145.71379,-238.21429)"
       x1="60.0015"
       y1="86"
       x2="60.0015"
       y2="34.0005" />
    <filter
       height="1.2633597"
       y="-0.13167985"
       width="1.2204466"
       x="-0.11022332"
       id="filter3350"
       inkscape:collect="always">
      <feGaussianBlur
         id="feGaussianBlur3352"
         stdDeviation="10.670065"
         inkscape:collect="always" />
    </filter>
    <radialGradient
       r="116.16487"
       fy="676.00421"
       fx="223.57362"
       cy="676.00421"
       cx="223.57362"
       gradientTransform="matrix(-0.9758465,1.0842071,-1.00842,-0.9076338,1144.4531,1023.059)"
       gradientUnits="userSpaceOnUse"
       id="radialGradient3294"
       xlink:href="#linearGradient3269"
       inkscape:collect="always" />
    <linearGradient
       y2="765.32507"
       x2="331.23999"
       y1="832.46796"
       x1="414.09714"
       gradientUnits="userSpaceOnUse"
       id="linearGradient3292"
       xlink:href="#linearGradient3259"
       inkscape:collect="always" />
    <linearGradient
       y2="782.78912"
       x2="269.09747"
       y1="874.93201"
       x1="199.84715"
       gradientUnits="userSpaceOnUse"
       id="linearGradient12457"
       xlink:href="#linearGradient3249"
       inkscape:collect="always" />
    <radialGradient
       gradientUnits="userSpaceOnUse"
       gradientTransform="matrix(-0.9758465,1.0842071,-1.00842,-0.9076338,1144.4531,1023.059)"
       r="116.16487"
       fy="676.00421"
       fx="223.57362"
       cy="676.00421"
       cx="223.57362"
       id="radialGradient3277"
       xlink:href="#linearGradient3269"
       inkscape:collect="always" />
    <linearGradient
       gradientUnits="userSpaceOnUse"
       y2="765.32507"
       x2="331.23999"
       y1="832.46796"
       x1="414.09714"
       id="linearGradient3265"
       xlink:href="#linearGradient3259"
       inkscape:collect="always" />
    <linearGradient
       gradientUnits="userSpaceOnUse"
       y2="782.78912"
       x2="269.09747"
       y1="874.93201"
       x1="199.84715"
       id="linearGradient3255"
       xlink:href="#linearGradient3249"
       inkscape:collect="always" />
    <inkscape:perspective
       id="perspective10"
       inkscape:persp3d-origin="372.04724 : 350.78739 : 1"
       inkscape:vp_z="601.23734 : 690.46681 : 1"
       inkscape:vp_y="0 : 1000 : 0"
       inkscape:vp_x="-364.28571 : 524.75252 : 1"
       sodipodi:type="inkscape:persp3d" />
    <linearGradient
       id="linearGradient3249">
      <stop
         id="stop3251"
         offset="0"
         style="stop-color:#323232;stop-opacity:1;" />
      <stop
         id="stop3253"
         offset="1"
         style="stop-color:#323232;stop-opacity:0;" />
    </linearGradient>
    <linearGradient
       id="linearGradient3259"
       inkscape:collect="always">
      <stop
         id="stop3261"
         offset="0"
         style="stop-color:#2e3436;stop-opacity:1;" />
      <stop
         id="stop3263"
         offset="1"
         style="stop-color:#2e3436;stop-opacity:0;" />
    </linearGradient>
    <linearGradient
       id="linearGradient3269"
       inkscape:collect="always">
      <stop
         id="stop3271"
         offset="0"
         style="stop-color:#ffffff;stop-opacity:1;" />
      <stop
         id="stop3273"
         offset="1"
         style="stop-color:#ffffff;stop-opacity:0;" />
    </linearGradient>
    <radialGradient
       inkscape:collect="always"
       xlink:href="#XMLID_23_"
       id="radialGradient12542"
       gradientUnits="userSpaceOnUse"
       gradientTransform="translate(145.71379,-238.21429)"
       cx="59.5107"
       cy="124"
       r="125.1714" />
    <linearGradient
       inkscape:collect="always"
       xlink:href="#XMLID_24_"
       id="linearGradient12544"
       gradientUnits="userSpaceOnUse"
       gradientTransform="translate(145.71379,-238.21429)"
       x1="60.0005"
       y1="12.8452"
       x2="60.0005"
       y2="120.2141" />
    <linearGradient
       inkscape:collect="always"
       xlink:href="#XMLID_25_"
       id="linearGradient12546"
       gradientUnits="userSpaceOnUse"
       gradientTransform="translate(145.71379,-238.21429)"
       x1="60.0015"
       y1="94"
       x2="60.0015"
       y2="26.0005" />
    <linearGradient
       inkscape:collect="always"
       xlink:href="#XMLID_26_"
       id="linearGradient12548"
       gradientUnits="userSpaceOnUse"
       gradientTransform="translate(145.71379,-238.21429)"
       x1="60.0015"
       y1="92"
       x2="60.0015"
       y2="28.0005" />
    <linearGradient
       inkscape:collect="always"
       xlink:href="#XMLID_27_"
       id="linearGradient12550"
       gradientUnits="userSpaceOnUse"
       gradientTransform="translate(145.71379,-238.21429)"
       x1="60.0015"
       y1="86"
       x2="60.0015"
       y2="34.0005" />
    <radialGradient
       inkscape:collect="always"
       xlink:href="#linearGradient8700"
       id="radialGradient12576"
       gradientUnits="userSpaceOnUse"
       gradientTransform="matrix(1.0000001,4.8887115e-7,-1.319373e-7,0.3671875,4.4615611e-6,22.425294)"
       cx="-3.8750002"
       cy="35.4375"
       fx="-3.8750002"
       fy="35.4375"
       r="8" />
    <radialGradient
       inkscape:collect="always"
       xlink:href="#linearGradient3493"
       id="radialGradient12578"
       gradientUnits="userSpaceOnUse"
       gradientTransform="matrix(-0.3675041,-1.4471162,1.8951848,-0.481294,57.593867,46.374052)"
       cx="35.704742"
       cy="-7.1539626"
       fx="35.704742"
       fy="-7.1539626"
       r="23.621214" />
    <radialGradient
       inkscape:collect="always"
       xlink:href="#linearGradient3505"
       id="radialGradient12580"
       gradientUnits="userSpaceOnUse"
       gradientTransform="matrix(-0.4918085,1.579235,-1.5680498,-0.4883254,1.1668565,-51.01535)"
       cx="9.422967"
       cy="-11.900172"
       fx="9.422967"
       fy="-11.900172"
       r="23.121214" />
    <radialGradient
       inkscape:collect="always"
       xlink:href="#linearGradient3505"
       id="radialGradient12582"
       gradientUnits="userSpaceOnUse"
       gradientTransform="matrix(1,-0.9865284,0.9737975,0.9870961,13.104309,98.235409)"
       cx="41.097347"
       cy="-28.634323"
       fx="41.097347"
       fy="-28.634323"
       r="23.121214" />
    <radialGradient
       inkscape:collect="always"
       xlink:href="#XMLID_23_"
       id="radialGradient12584"
       gradientUnits="userSpaceOnUse"
       gradientTransform="translate(145.71379,-238.21429)"
       cx="59.5107"
       cy="124"
       r="125.1714" />
    <linearGradient
       inkscape:collect="always"
       xlink:href="#XMLID_24_"
       id="linearGradient12586"
       gradientUnits="userSpaceOnUse"
       gradientTransform="translate(145.71379,-238.21429)"
       x1="60.0005"
       y1="12.8452"
       x2="60.0005"
       y2="120.2141" />
    <linearGradient
       inkscape:collect="always"
       xlink:href="#XMLID_25_"
       id="linearGradient12588"
       gradientUnits="userSpaceOnUse"
       gradientTransform="translate(145.71379,-238.21429)"
       x1="60.0015"
       y1="94"
       x2="60.0015"
       y2="26.0005" />
    <linearGradient
       inkscape:collect="always"
       xlink:href="#XMLID_26_"
       id="linearGradient12590"
       gradientUnits="userSpaceOnUse"
       gradientTransform="translate(145.71379,-238.21429)"
       x1="60.0015"
       y1="92"
       x2="60.0015"
       y2="28.0005" />
    <linearGradient
       inkscape:collect="always"
       xlink:href="#XMLID_27_"
       id="linearGradient12592"
       gradientUnits="userSpaceOnUse"
       gradientTransform="translate(145.71379,-238.21429)"
       x1="60.0015"
       y1="86"
       x2="60.0015"
       y2="34.0005" />
  </defs>
  <sodipodi:namedview
     stroke="#ef2929"
     fill="#eeeeec"
     id="base"
     pagecolor="#ffffff"
     bordercolor="#666666"
     borderopacity="0.25490196"
     inkscape:pageopacity="0.0"
     inkscape:pageshadow="2"
     inkscape:zoom="3.9999998"
     inkscape:cx="46.39151"
     inkscape:cy="39.105231"
     inkscape:current-layer="layer1"
     showgrid="false"
     inkscape:grid-bbox="true"
     inkscape:document-units="px"
     inkscape:showpageshadow="false"
     inkscape:window-width="1280"
     inkscape:window-height="978"
     inkscape:window-x="0"
     inkscape:window-y="0"
     showguides="true"
     inkscape:guide-bbox="true">
    <inkscape:grid
       type="xygrid"
       id="grid7913"
       empspacing="5"
       visible="true"
       enabled="true" />
  </sodipodi:namedview>
  <metadata
     id="metadata4">
    <rdf:RDF>
      <cc:Work
         rdf:about="">
        <dc:format>image/svg+xml</dc:format>
        <dc:type
           rdf:resource="http://purl.org/dc/dcmitype/StillImage" />
        <dc:creator>
          <cc:Agent>
            <dc:title>Patrick Niklaus</dc:title>
          </cc:Agent>
        </dc:creator>
        <dc:source />
        <cc:license
           rdf:resource="http://creativecommons.org/licenses/GPL/2.0/" />
        <dc:title>SchemeP</dc:title>
        <dc:subject>
          <rdf:Bag />
        </dc:subject>
      </cc:Work>
      <cc:License
         rdf:about="http://creativecommons.org/licenses/GPL/2.0/">
        <cc:permits
           rdf:resource="http://web.resource.org/cc/Reproduction" />
        <cc:permits
           rdf:resource="http://web.resource.org/cc/Distribution" />
        <cc:requires
           rdf:resource="http://web.resource.org/cc/Notice" />
        <cc:permits
           rdf:resource="http://web.resource.org/cc/DerivativeWorks" />
        <cc:requires
           rdf:resource="http://web.resource.org/cc/ShareAlike" />
        <cc:requires
           rdf:resource="http://web.resource.org/cc/SourceCode" />
      </cc:License>
    </rdf:RDF>
  </metadata>
  <g
     id="layer1"
     inkscape:label="Layer 1"
     inkscape:groupmode="layer"
     transform="translate(-7.1410607e-2,40.032166)">
    <g
       id="g12552"
       transform="matrix(1.0087612,0,0,1.0087612,3.9763734,-0.2800765)">
      <path
         transform="matrix(2.1718737,0,0,1.8254298,35.972259,-38.083035)"
         d="M 4.1249998,35.4375 A 8,2.9375002 0 1 1 -11.875,35.4375 A 8,2.9375002 0 1 1 4.1249998,35.4375 z"
         sodipodi:ry="2.9375002"
         sodipodi:rx="8"
         sodipodi:cy="35.4375"
         sodipodi:cx="-3.8750002"
         id="path8698"
         style="opacity:0.32231409;fill:url(#radialGradient12576);fill-opacity:1;stroke:none"
         sodipodi:type="arc" />
      <path
         style="fill:url(#radialGradient12578);fill-opacity:1;stroke:#00316e;stroke-width:1;stroke-miterlimit:4;stroke-dasharray:none;stroke-opacity:1"
         id="path8"
         d="M 44.564014,-38.906839 C 32.741559,-38.906839 30.524791,-19.675085 37.175579,-19.675085 C 43.825411,-19.675085 56.386945,-38.906839 44.564014,-38.906839 z M 26.288158,-36.556482 C 26.100424,-36.557221 25.910489,-36.535844 25.702486,-36.505014 C 19.049298,-35.518482 21.394012,-22.306801 24.936625,-22.059754 C 28.36712,-21.820429 32.107854,-36.533578 26.288158,-36.556482 z M 14.980261,-31.323936 C 14.573681,-31.354264 14.114937,-31.251418 13.61371,-31.015128 C 8.2661572,-28.494173 12.795452,-18.100724 15.79119,-18.800136 C 18.508249,-19.432984 18.910504,-31.030757 14.980261,-31.323936 z M 6.240291,-23.157732 C 5.7753491,-23.175608 5.2739079,-23.013897 4.7385824,-22.591587 C 0.45784295,-19.212565 6.1845473,-11.049241 8.7031044,-12.315206 C 10.906836,-13.42341 9.4948797,-23.032602 6.240291,-23.157732 z M 29.291589,-16.912985 C 20.325761,-16.565272 9.3128842,-11.301226 7.3515571,-1.2668157 C 5.1155614,10.163675 16.543849,26.011053 28.48066,26.011053 C 34.352966,26.011053 41.134336,19.9601 42.401544,12.286338 C 43.369372,6.4346717 31.010034,8.7745947 31.454061,12.646612 C 31.986023,17.287762 28.466495,19.584455 25.026729,16.592466 C 14.076463,7.0680685 43.162137,2.3095689 41.245226,-10.702555 C 40.598838,-15.090379 35.426097,-17.150901 29.291589,-16.912985 z" />
      <path
         style="opacity:0.75619836;fill:url(#radialGradient12580);fill-opacity:1;stroke:none;stroke-width:1;stroke-miterlimit:4;stroke-dasharray:none;stroke-opacity:1"
         id="path3501"
         d="M 44.563687,-38.907058 C 32.741233,-38.907058 30.524465,-19.675304 37.175253,-19.675304 C 43.825084,-19.675304 56.386618,-38.907058 44.563687,-38.907058 z M 26.287832,-36.556701 C 26.100098,-36.55744 25.910163,-36.536063 25.70216,-36.505233 C 19.048971,-35.518701 21.393685,-22.30702 24.936299,-22.059973 C 28.366794,-21.820648 32.107528,-36.533797 26.287832,-36.556701 z M 14.979934,-31.324155 C 14.573354,-31.354483 14.11461,-31.251637 13.613383,-31.015347 C 8.2658303,-28.494392 12.795125,-18.100943 15.790863,-18.800355 C 18.507922,-19.433203 18.910177,-31.030976 14.979934,-31.324155 z M 6.2399643,-23.157951 C 5.7750223,-23.175827 5.2735813,-23.014116 4.7382563,-22.591806 C 0.45751628,-19.212784 6.1842203,-11.04946 8.7027783,-12.315425 C 10.906509,-13.423629 9.4945533,-23.032821 6.2399643,-23.157951 z M 29.291263,-16.913204 C 20.325434,-16.565491 9.3125573,-11.301445 7.3512303,-1.2670344 C 5.1152353,10.163456 16.543522,26.010834 28.480334,26.010834 C 34.35264,26.010834 41.13401,19.959881 42.401217,12.286119 C 43.369045,6.434453 31.009708,8.774376 31.453735,12.646393 C 31.985697,17.287543 28.466169,19.584236 25.026403,16.592247 C 14.076136,7.06785 43.16181,2.3093503 41.2449,-10.702774 C 40.598512,-15.090598 35.425771,-17.15112 29.291263,-16.913204 z" />
      <path
         style="opacity:0.75619836;fill:url(#radialGradient12582);fill-opacity:1;stroke:none;stroke-width:1;stroke-miterlimit:4;stroke-dasharray:none;stroke-opacity:1"
         id="path3513"
         d="M 44.563687,-38.907058 C 32.741233,-38.907058 30.524465,-19.675304 37.175253,-19.675304 C 43.825084,-19.675304 56.386618,-38.907058 44.563687,-38.907058 z M 26.287832,-36.556701 C 26.100098,-36.55744 25.910163,-36.536063 25.70216,-36.505233 C 19.048971,-35.518701 21.393685,-22.30702 24.936299,-22.059973 C 28.366794,-21.820648 32.107528,-36.533797 26.287832,-36.556701 z M 14.979934,-31.324155 C 14.573354,-31.354483 14.11461,-31.251637 13.613383,-31.015347 C 8.2658301,-28.494392 12.795125,-18.100943 15.790863,-18.800355 C 18.507922,-19.433203 18.910177,-31.030976 14.979934,-31.324155 z M 6.2399651,-23.157951 C 5.7750231,-23.175827 5.2735821,-23.014116 4.7382561,-22.591806 C 0.45751613,-19.212784 6.1842211,-11.04946 8.7027781,-12.315425 C 10.906509,-13.423629 9.4945531,-23.032821 6.2399651,-23.157951 z M 29.291263,-16.913204 C 20.325434,-16.565491 9.3125571,-11.301445 7.3512301,-1.2670341 C 5.1152361,10.163456 16.543522,26.010834 28.480334,26.010834 C 34.35264,26.010834 41.13401,19.959881 42.401217,12.286119 C 43.369045,6.434453 31.009708,8.774376 31.453735,12.646393 C 31.985697,17.287543 28.466169,19.584236 25.026403,16.592247 C 14.076136,7.06785 43.16181,2.3093508 41.2449,-10.702774 C 40.598512,-15.090598 35.425771,-17.15112 29.291263,-16.913204 z" />
      <g
         id="g2611"
         inkscape:label="Livello 1"
         transform="matrix(0.2961047,0,0,0.2961047,24.397569,-10.630921)">
        <g
           transform="matrix(0.9999917,0,0,1,-141.71258,242.21429)"
           id="g2876">
          <path
             d="M 265.71479,-171.21229 L 265.71479,-183.21429 L 253.27579,-183.62929 C 252.72379,-187.75629 251.65379,-191.71829 250.12279,-195.44529 L 260.67779,-202.01729 L 254.67779,-212.41129 L 243.69679,-206.55029 C 241.19379,-209.78629 238.28879,-212.69229 235.05179,-215.19529 L 240.91279,-226.17629 L 230.51979,-232.17529 L 223.94779,-221.62029 C 220.21979,-223.15229 216.25879,-224.22329 212.13079,-224.77529 L 211.71479,-237.21429 L 199.71479,-237.21429 L 199.29979,-224.77529 C 195.17179,-224.22329 191.20979,-223.15229 187.48279,-221.62129 L 180.91079,-232.17529 L 170.51779,-226.17529 L 176.37879,-215.19429 C 173.14279,-212.69129 170.23679,-209.78529 167.73279,-206.54829 L 156.75179,-212.40929 L 150.75179,-202.01729 L 161.30779,-195.44429 C 159.77579,-191.71729 158.70479,-187.75529 158.15379,-183.62729 L 145.71479,-183.21429 L 145.71379,-171.21429 L 158.15379,-170.79929 C 158.70579,-166.67129 159.77679,-162.70929 161.30779,-158.98229 L 150.75279,-152.40929 L 156.75179,-142.01629 L 167.73479,-147.87829 C 170.23779,-144.64229 173.14379,-141.73529 176.38079,-139.23229 L 170.51879,-128.25029 L 180.91079,-122.25029 L 187.48379,-132.80729 C 191.21079,-131.27629 195.17279,-130.20429 199.30079,-129.65329 L 199.71479,-117.21429 L 211.71479,-117.21429 L 212.12979,-129.65329 C 216.25779,-130.20529 220.21979,-131.27529 223.94579,-132.80729 L 230.51779,-122.25129 L 240.91079,-128.25129 L 235.04979,-139.23429 C 238.28479,-141.73729 241.19179,-144.64329 243.69479,-147.87929 L 254.67579,-142.01829 L 260.67679,-152.41129 L 250.12079,-158.98329 C 251.65179,-162.71029 252.72379,-166.67129 253.27479,-170.79929 L 265.71479,-171.21229 z M 205.71479,-147.21429 C 189.17279,-147.21429 175.71479,-160.67229 175.71479,-177.21429 C 175.71479,-193.75629 189.17279,-207.21429 205.71479,-207.21429 C 222.25679,-207.21429 235.71479,-193.75629 235.71479,-177.21429 C 235.71479,-160.67229 222.25679,-147.21429 205.71479,-147.21429 z"
             id="path6"
             style="filter:url(#filter2826)" />
          <path
             d="M 265.71479,-172.21229 L 265.71479,-184.21429 L 253.27579,-184.62929 C 252.72379,-188.75629 251.65379,-192.71829 250.12279,-196.44529 L 260.67779,-203.01729 L 254.67779,-213.41129 L 243.69679,-207.55029 C 241.19379,-210.78629 238.28879,-213.69229 235.05179,-216.19529 L 240.91279,-227.17629 L 230.51979,-233.17529 L 223.94779,-222.62029 C 220.21979,-224.15229 216.25879,-225.22329 212.13079,-225.77529 L 211.71479,-238.21429 L 199.71479,-238.21429 L 199.29979,-225.77529 C 195.17179,-225.22329 191.20979,-224.15229 187.48279,-222.62129 L 180.91079,-233.17529 L 170.51779,-227.17529 L 176.37879,-216.19429 C 173.14279,-213.69129 170.23679,-210.78529 167.73279,-207.54829 L 156.75179,-213.40929 L 150.75179,-203.01729 L 161.30779,-196.44429 C 159.77579,-192.71729 158.70479,-188.75529 158.15379,-184.62729 L 145.71479,-184.21429 L 145.71379,-172.21429 L 158.15379,-171.79929 C 158.70579,-167.67129 159.77679,-163.70929 161.30779,-159.98229 L 150.75279,-153.40929 L 156.75179,-143.01629 L 167.73479,-148.87829 C 170.23779,-145.64229 173.14379,-142.73529 176.38079,-140.23229 L 170.51879,-129.25029 L 180.91079,-123.25029 L 187.48379,-133.80729 C 191.21079,-132.27629 195.17279,-131.20429 199.30079,-130.65329 L 199.71479,-118.21429 L 211.71479,-118.21429 L 212.12979,-130.65329 C 216.25779,-131.20529 220.21979,-132.27529 223.94579,-133.80729 L 230.51779,-123.25129 L 240.91079,-129.25129 L 235.04979,-140.23429 C 238.28479,-142.73729 241.19179,-145.64329 243.69479,-148.87929 L 254.67579,-143.01829 L 260.67679,-153.41129 L 250.12079,-159.98329 C 251.65179,-163.71029 252.72379,-167.67129 253.27479,-171.79929 L 265.71479,-172.21229 z M 205.71479,-148.21429 C 189.17279,-148.21429 175.71479,-161.67229 175.71479,-178.21429 C 175.71479,-194.75629 189.17279,-208.21429 205.71479,-208.21429 C 222.25679,-208.21429 235.71479,-194.75629 235.71479,-178.21429 C 235.71479,-161.67229 222.25679,-148.21429 205.71479,-148.21429 z"
             id="path13"
             style="fill:url(#radialGradient12584)" />
          <path
             d="M 200.68179,-237.21429 C 200.62679,-235.56929 200.29979,-225.74129 200.29979,-225.74129 C 200.28379,-225.25329 199.91679,-224.84829 199.43279,-224.78329 C 195.44379,-224.25029 191.55179,-223.21129 187.86379,-221.69529 C 187.41179,-221.50929 186.89179,-221.67729 186.63479,-222.09129 C 186.63479,-222.09129 181.44379,-230.42929 180.57379,-231.82529 C 179.28179,-231.07929 173.14879,-227.53829 171.85679,-226.79229 C 172.63179,-225.34029 177.26279,-216.66429 177.26279,-216.66429 C 177.34279,-216.51529 177.38079,-216.35329 177.38079,-216.19429 C 177.38079,-215.89329 177.24479,-215.59729 176.99279,-215.40229 C 173.82579,-212.95229 170.97679,-210.10329 168.52679,-206.93629 C 168.22879,-206.55029 167.69479,-206.43629 167.26479,-206.66529 C 167.26479,-206.66529 158.58779,-211.29629 157.13679,-212.07129 C 156.39079,-210.77929 152.84979,-204.64629 152.10379,-203.35429 C 153.49979,-202.48429 161.83779,-197.29329 161.83779,-197.29329 C 162.13879,-197.10529 162.30979,-196.78029 162.30979,-196.44329 C 162.30979,-196.31629 162.28579,-196.18729 162.23479,-196.06329 C 160.71779,-192.37429 159.67879,-188.48129 159.14679,-184.49429 C 159.08279,-184.01029 158.67679,-183.64329 158.18879,-183.62729 C 158.18879,-183.62729 148.36079,-183.29929 146.71579,-183.24529 C 146.71579,-182.25129 146.71579,-180.95629 146.71579,-180.07429 C 155.59579,-178.28529 165.04779,-176.91229 174.84379,-175.97929 C 174.78379,-177.00329 174.71479,-178.21429 174.71479,-178.21429 C 174.71479,-195.30729 188.62179,-209.21429 205.71479,-209.21429 C 222.80879,-209.21429 236.71479,-195.30729 236.71479,-178.21429 C 236.71479,-178.21429 236.64479,-176.99129 236.58579,-175.96329 C 246.37479,-176.88829 255.82579,-178.25529 264.71479,-180.03729 C 264.71479,-180.92429 264.71479,-182.24529 264.71479,-183.24629 C 263.06979,-183.30129 253.24179,-183.62829 253.24179,-183.62829 C 252.75379,-183.64429 252.34779,-184.01129 252.28379,-184.49529 C 251.75079,-188.48329 250.71179,-192.37529 249.19679,-196.06329 C 249.14579,-196.18729 249.12179,-196.31529 249.12179,-196.44229 C 249.12179,-196.77929 249.29279,-197.10429 249.59379,-197.29229 C 249.59379,-197.29229 257.93079,-202.48329 259.32679,-203.35329 C 258.58079,-204.64529 255.03979,-210.77929 254.29379,-212.07129 C 252.84279,-211.29729 244.16579,-206.66529 244.16579,-206.66529 C 243.73579,-206.43629 243.20279,-206.55029 242.90379,-206.93629 C 240.45379,-210.10429 237.60479,-212.95329 234.43879,-215.40229 C 234.18579,-215.59729 234.04979,-215.89229 234.04979,-216.19429 C 234.04979,-216.35429 234.08779,-216.51529 234.16779,-216.66429 C 234.16779,-216.66429 238.79879,-225.34029 239.57279,-226.79229 C 238.28079,-227.53829 232.14779,-231.08029 230.85579,-231.82629 C 229.98579,-230.43029 224.79379,-222.09229 224.79379,-222.09229 C 224.53579,-221.67829 224.01679,-221.51029 223.56479,-221.69629 C 219.87579,-223.21229 215.98279,-224.25129 211.99479,-224.78429 C 211.51179,-224.84929 211.14379,-225.25429 211.12879,-225.74229 C 211.12879,-225.74229 210.80079,-235.57029 210.74579,-237.21529 C 209.25579,-237.21429 202.17379,-237.21429 200.68179,-237.21429 z"
             id="path20"
             style="fill:url(#linearGradient12586)" />
          <path
             d="M 205.71479,-212.21429 C 186.93779,-212.21429 171.71479,-196.99129 171.71479,-178.21429 C 171.71479,-159.43629 186.93779,-144.21429 205.71479,-144.21429 C 224.49279,-144.21429 239.71479,-159.43629 239.71479,-178.21429 C 239.71479,-196.99129 224.49279,-212.21429 205.71479,-212.21429 z M 205.71479,-153.21429 C 191.92979,-153.21429 180.71479,-164.42929 180.71479,-178.21429 C 180.71479,-191.99929 191.92979,-203.21429 205.71479,-203.21429 C 219.49979,-203.21429 230.71479,-191.99929 230.71479,-178.21429 C 230.71479,-164.42929 219.49979,-153.21429 205.71479,-153.21429 z"
             id="path27"
             style="fill:url(#linearGradient12588)" />
          <path
             d="M 205.71479,-210.21429 C 188.06979,-210.21429 173.71479,-195.85929 173.71479,-178.21429 C 173.71479,-160.56929 188.06979,-146.21429 205.71479,-146.21429 C 223.35979,-146.21429 237.71479,-160.56929 237.71479,-178.21429 C 237.71479,-195.85929 223.35979,-210.21429 205.71479,-210.21429 z M 205.71479,-153.21429 C 191.92979,-153.21429 180.71479,-164.42929 180.71479,-178.21429 C 180.71479,-191.99929 191.92979,-203.21429 205.71479,-203.21429 C 219.49979,-203.21429 230.71479,-191.99929 230.71479,-178.21429 C 230.71479,-164.42929 219.49979,-153.21429 205.71479,-153.21429 z"
             id="path44"
             style="fill:url(#linearGradient12590)" />
          <path
             d="M 205.71479,-204.21429 C 191.37879,-204.21429 179.71479,-192.55029 179.71479,-178.21429 C 179.71479,-163.87729 191.37879,-152.21429 205.71479,-152.21429 C 220.05179,-152.21429 231.71479,-163.87729 231.71479,-178.21429 C 231.71479,-192.55029 220.05179,-204.21429 205.71479,-204.21429 z M 205.71479,-154.21429 C 192.48179,-154.21429 181.71479,-164.98129 181.71479,-178.21429 C 181.71479,-191.44729 192.48179,-202.21429 205.71479,-202.21429 C 218.94779,-202.21429 229.71479,-191.44729 229.71479,-178.21429 C 229.71479,-164.98129 218.94779,-154.21429 205.71479,-154.21429 z"
             id="path51"
             style="fill:url(#linearGradient12592)" />
          <path
             d="M 161.00579,-159.79329 L 150.75279,-153.40929 L 151.17779,-152.67429 L 161.30879,-158.98229 C 161.19879,-159.24829 161.10979,-159.52529 161.00579,-159.79329 z"
             id="path53"
             style="fill:#ffffff" />
          <path
             d="M 180.91079,-232.17529 L 187.48279,-221.62029 C 191.20979,-223.15229 195.17179,-224.22329 199.29979,-224.77429 L 199.71479,-237.21429 L 211.71479,-237.21429 L 212.12979,-224.77529 C 216.25779,-224.22329 220.21979,-223.15229 223.94679,-221.62029 L 230.51879,-232.17529 L 240.50279,-226.40929 L 240.91079,-227.17429 L 230.51979,-233.17529 L 223.94779,-222.62029 C 220.21979,-224.15229 216.25879,-225.22329 212.13079,-225.77529 L 211.71479,-238.21429 L 199.71479,-238.21429 L 199.29979,-225.77529 C 195.17179,-225.22329 191.20979,-224.15229 187.48279,-222.62129 L 180.91079,-233.17529 L 170.51779,-227.17529 L 170.92579,-226.41029 L 180.91079,-232.17529 z"
             id="path55"
             style="fill:#ffffff" />
          <path
             d="M 235.42079,-215.88729 L 235.05079,-215.19329 C 238.28679,-212.69029 241.19279,-209.78429 243.69579,-206.54829 L 254.67679,-212.40929 L 260.25179,-202.75129 L 260.67679,-203.01629 L 254.67679,-213.41029 L 243.69579,-207.54929 C 241.28979,-210.65729 238.50579,-213.45229 235.42079,-215.88729 z"
             id="path57"
             style="fill:#ffffff" />
          <path
             d="M 176.00979,-139.53929 L 170.51879,-129.25129 L 170.92679,-129.01629 L 176.38079,-139.23429 C 176.25379,-139.33129 176.13579,-139.44129 176.00979,-139.53929 z"
             id="path59"
             style="fill:#ffffff" />
          <path
             d="M 249.69579,-176.83029 C 249.30179,-152.90729 229.72979,-133.56329 205.71479,-133.56329 C 181.69879,-133.56329 162.12779,-152.90729 161.73379,-176.83029 C 161.72979,-176.58629 161.71479,-176.34329 161.71479,-176.09829 C 161.71479,-151.83629 181.45279,-132.09829 205.71479,-132.09829 C 229.97679,-132.09829 249.71479,-151.83629 249.71479,-176.09829 C 249.71479,-176.34329 249.69979,-176.58629 249.69579,-176.83029 z"
             id="path61"
             style="opacity:0.5;fill:#ffffff" />
          <path
             d="M 253.27579,-184.62829 C 252.76279,-188.46129 251.78679,-192.14229 250.42579,-195.63329 L 250.12179,-195.44429 C 251.65279,-191.71729 252.72379,-187.75629 253.27479,-183.62829 L 265.71479,-183.21429 L 265.71479,-184.21429 L 253.27579,-184.62829 z"
             id="path63"
             style="fill:#ffffff" />
          <path
             d="M 250.12079,-158.98229 L 260.25179,-152.67429 L 260.67679,-153.40929 L 250.42479,-159.79329 C 250.31879,-159.52529 250.23079,-159.24829 250.12079,-158.98229 z"
             id="path65"
             style="fill:#ffffff" />
          <path
             d="M 156.75279,-212.41029 L 167.73379,-206.54929 C 170.23679,-209.78529 173.14279,-212.69129 176.37979,-215.19529 L 176.00879,-215.88929 C 172.92479,-213.45429 170.13879,-210.65929 167.73379,-207.55029 L 156.75279,-213.41129 L 150.75279,-203.01929 L 151.17779,-202.75429 L 156.75279,-212.41029 z"
             id="path67"
             style="fill:#ffffff" />
          <path
             d="M 235.04979,-139.23429 L 240.50279,-129.01729 L 240.91079,-129.25229 L 235.41979,-139.53929 C 235.29479,-139.44129 235.17679,-139.33129 235.04979,-139.23429 z"
             id="path69"
             style="fill:#ffffff" />
          <path
             d="M 145.71479,-183.21429 L 158.15379,-183.62929 C 158.70479,-187.75729 159.77679,-191.71929 161.30779,-195.44629 L 161.00479,-195.63529 C 159.64379,-192.14429 158.66579,-188.46229 158.15379,-184.62929 L 145.71479,-184.21429 L 145.71379,-172.21429 L 145.71379,-172.21429 L 145.71479,-183.21429 z"
             id="path71"
             style="fill:#ffffff" />
        </g>
      </g>
    </g>
  </g>
</svg>
