<?xml version="1.0" encoding="UTF-8" standalone="no"?>
<!-- Created with Inkscape (http://www.inkscape.org/) -->
<svg
   xmlns:ns="http://creativecommons.org/ns#"
   xmlns:dc="http://purl.org/dc/elements/1.1/"
   xmlns:cc="http://web.resource.org/cc/"
   xmlns:rdf="http://www.w3.org/1999/02/22-rdf-syntax-ns#"
   xmlns:svg="http://www.w3.org/2000/svg"
   xmlns="http://www.w3.org/2000/svg"
   xmlns:xlink="http://www.w3.org/1999/xlink"
   xmlns:sodipodi="http://sodipodi.sourceforge.net/DTD/sodipodi-0.dtd"
   xmlns:inkscape="http://www.inkscape.org/namespaces/inkscape"
   inkscape:export-ydpi="90.000000"
   inkscape:export-xdpi="90.000000"
   inkscape:export-filename="/home/jimmac/Desktop/wi-fi.png"
   width="72"
   height="72"
   id="svg11300"
   sodipodi:version="0.32"
   inkscape:version="0.45.1"
   sodipodi:docbase="/home/Sam/Desktop/unofficial icons"
   sodipodi:docname="plugin-cubedbus.svg"
   inkscape:output_extension="org.inkscape.output.svg.inkscape"
   version="1.0">
  <defs
     id="defs3">
    <linearGradient
       id="linearGradient3153">
      <stop
         style="stop-color:#f9f9f8;stop-opacity:0.39215687;"
         offset="0"
         id="stop3155" />
      <stop
         style="stop-color:#cdcfca;stop-opacity:0.39215687;"
         offset="1"
         id="stop3157" />
    </linearGradient>
    <linearGradient
       inkscape:collect="always"
       id="linearGradient6482">
      <stop
         style="stop-color:#000000;stop-opacity:1;"
         offset="0"
         id="stop6484" />
      <stop
         style="stop-color:#000000;stop-opacity:0;"
         offset="1"
         id="stop6486" />
    </linearGradient>
    <radialGradient
       inkscape:collect="always"
       xlink:href="#linearGradient6482"
       id="radialGradient6488"
       cx="13.030141"
       cy="-7.0069871"
       fx="13.030141"
       fy="-7.0069871"
       r="18.143234"
       gradientTransform="matrix(1,0,0,0.3954545,0,-4.2360423)"
       gradientUnits="userSpaceOnUse" />
    <linearGradient
       id="linearGradient2338">
      <stop
         id="stop2340"
         offset="0"
         style="stop-color:#3465a4;stop-opacity:1" />
      <stop
         id="stop2342"
         offset="1"
         style="stop-color:#3465a4;stop-opacity:0" />
    </linearGradient>
    <linearGradient
       inkscape:collect="always"
       xlink:href="#linearGradient2338"
       id="linearGradient12425"
       x1="23.1875"
       y1="33.6875"
       x2="23.1875"
       y2="19.278358"
       gradientUnits="userSpaceOnUse"
       gradientTransform="matrix(1.732915,0,0,-1.7060078,-4.3620874,79.912407)" />
    <radialGradient
       inkscape:collect="always"
       xlink:href="#linearGradient3153"
       id="radialGradient3159"
       cx="8.0419788"
       cy="13.534249"
       fx="8.0419788"
       fy="13.534249"
       r="19.677486"
       gradientTransform="matrix(0.4610414,3.1815116,-3.065892,0.4305967,47.360847,-11.667243)"
       gradientUnits="userSpaceOnUse" />
    <linearGradient
       id="linearGradient8121">
      <stop
         id="stop8123"
         offset="0"
         style="stop-color:#c2f491;stop-opacity:1;" />
      <stop
         id="stop8125"
         offset="1"
         style="stop-color:#73d216;stop-opacity:1;" />
    </linearGradient>
    <linearGradient
       id="linearGradient8132">
      <stop
         id="stop8134"
         offset="0"
         style="stop-color:#ff6666;stop-opacity:1;" />
      <stop
         id="stop8136"
         offset="1"
         style="stop-color:#cc0000;stop-opacity:1;" />
    </linearGradient>
    <linearGradient
       id="linearGradient8140">
      <stop
         id="stop8142"
         offset="0"
         style="stop-color:#95b5de;stop-opacity:1;" />
      <stop
         id="stop8144"
         offset="1"
         style="stop-color:#3465a4;stop-opacity:1;" />
    </linearGradient>
    <radialGradient
       inkscape:collect="always"
       xlink:href="#linearGradient8121"
       id="radialGradient2311"
       gradientUnits="userSpaceOnUse"
       gradientTransform="matrix(-0.22329,0.9778116,-1.1143742,-0.2541614,35.018493,124.98666)"
       cx="-92.794113"
       cy="38.769665"
       fx="-92.794113"
       fy="38.769665"
       r="7.6694655" />
    <radialGradient
       inkscape:collect="always"
       xlink:href="#linearGradient8132"
       id="radialGradient2313"
       gradientUnits="userSpaceOnUse"
       gradientTransform="matrix(-0.1173972,1.1602213,-1.2566549,-0.1269981,59.064191,115.27716)"
       cx="-77.731216"
       cy="34.36335"
       fx="-77.731216"
       fy="34.36335"
       r="10.409584" />
    <radialGradient
       inkscape:collect="always"
       xlink:href="#linearGradient8140"
       id="radialGradient2315"
       gradientUnits="userSpaceOnUse"
       gradientTransform="matrix(-0.1550246,1.0915169,-1.0932846,-0.1550843,37.755765,99.168425)"
       cx="-77.583"
       cy="22.550001"
       fx="-77.583"
       fy="22.550001"
       r="6.2093911" />
    <radialGradient
       gradientUnits="userSpaceOnUse"
       gradientTransform="matrix(1,0,0,0.184,0,33.97501)"
       r="22.097088"
       fy="41.63604"
       fx="24.218407"
       cy="41.63604"
       cx="24.218407"
       id="radialGradient12135"
       xlink:href="#linearGradient12129"
       inkscape:collect="always" />
    <linearGradient
       id="aigrd3"
       gradientUnits="userSpaceOnUse"
       x1="21.9326"
       y1="24.627399"
       x2="21.9326"
       y2="7.1090999"
       style="stroke-dasharray:none;stroke-miterlimit:4.0000000;stroke-width:1.2166667">
      <stop
         offset="0"
         style="stop-color:#D0D6E5;stroke-dasharray:none;stroke-miterlimit:4.0000000;stroke-width:1.2166667"
         id="stop16199" />
      <stop
         offset="1"
         style="stop-color:#093A80;stroke-dasharray:none;stroke-miterlimit:4.0000000;stroke-width:1.2166667"
         id="stop16201" />
    </linearGradient>
    <linearGradient
       id="aigrd2"
       gradientUnits="userSpaceOnUse"
       x1="21.877001"
       y1="30.341299"
       x2="21.9168"
       y2="22.5769"
       style="stroke-dasharray:none;stroke-miterlimit:4.0000000;stroke-width:1.2166667">
      <stop
         offset="0.0000000"
         style="stop-color:#5e4f07;stop-opacity:1.0000000;"
         id="stop16184" />
      <stop
         offset="1.0000000"
         style="stop-color:#348a31;stop-opacity:1.0000000;"
         id="stop16186" />
    </linearGradient>
    <linearGradient
       id="aigrd1"
       gradientUnits="userSpaceOnUse"
       x1="12.4873"
       y1="3.7319"
       x2="31.081301"
       y2="36.032799"
       style="stroke-dasharray:none;stroke-miterlimit:4.0000000;stroke-width:1.2166667">
      <stop
         offset="0"
         style="stop-color:#D2D2D2;stroke-dasharray:none;stroke-miterlimit:4.0000000;stroke-width:1.2166667"
         id="stop16177" />
      <stop
         offset="1"
         style="stop-color:#EDEDED;stroke-dasharray:none;stroke-miterlimit:4.0000000;stroke-width:1.2166667"
         id="stop16179" />
    </linearGradient>
    <linearGradient
       id="linearGradient12129"
       inkscape:collect="always">
      <stop
         id="stop12131"
         offset="0"
         style="stop-color:#000000;stop-opacity:1;" />
      <stop
         id="stop12133"
         offset="1"
         style="stop-color:#000000;stop-opacity:0;" />
    </linearGradient>
    <linearGradient
       id="linearGradient2392">
      <stop
         style="stop-color:#715b26;stop-opacity:1.0000000;"
         offset="0.0000000"
         id="stop2394" />
      <stop
         style="stop-color:#312710;stop-opacity:1.0000000;"
         offset="1.0000000"
         id="stop2396" />
    </linearGradient>
    <linearGradient
       style="stroke-dasharray:none;stroke-miterlimit:4.0000000;stroke-width:1.2166667"
       y2="7.1090999"
       x2="21.9326"
       y1="24.627399"
       x1="21.9326"
       gradientUnits="userSpaceOnUse"
       id="linearGradient7648">
      <stop
         id="stop7650"
         style="stop-color:#8595bc;stop-opacity:1;"
         offset="0" />
      <stop
         id="stop7652"
         style="stop-color:#041a3b;stop-opacity:1;"
         offset="1" />
    </linearGradient>
    <linearGradient
       id="linearGradient2224">
      <stop
         id="stop2226"
         offset="0"
         style="stop-color:#7c7c7c;stop-opacity:1;" />
      <stop
         id="stop2228"
         offset="1"
         style="stop-color:#b8b8b8;stop-opacity:1;" />
    </linearGradient>
    <linearGradient
       id="linearGradient8171">
      <stop
         id="stop8173"
         offset="0"
         style="stop-color:#bbbdba;stop-opacity:1;" />
      <stop
         id="stop8175"
         offset="1"
         style="stop-color:#70746e;stop-opacity:1;" />
    </linearGradient>
    <linearGradient
       id="linearGradient5048">
      <stop
         id="stop5050"
         offset="0"
         style="stop-color:black;stop-opacity:0;" />
      <stop
         style="stop-color:black;stop-opacity:1;"
         offset="0.5"
         id="stop5056" />
      <stop
         id="stop5052"
         offset="1"
         style="stop-color:black;stop-opacity:0;" />
    </linearGradient>
    <radialGradient
       gradientUnits="userSpaceOnUse"
       gradientTransform="matrix(0.928681,0,0,0.102029,1.804722,37.76401)"
       r="21.535715"
       fy="44.051216"
       fx="25.304846"
       cy="44.051216"
       cx="25.304846"
       id="radialGradient2195"
       xlink:href="#linearGradient2189"
       inkscape:collect="always" />
    <radialGradient
       gradientUnits="userSpaceOnUse"
       gradientTransform="matrix(-1.50631,4.232823e-3,3.006144e-3,1.069777,54.81232,-0.459221)"
       r="20.978409"
       fy="15.445013"
       fx="16.981855"
       cy="15.445013"
       cx="16.981855"
       id="radialGradient2103"
       xlink:href="#linearGradient2097"
       inkscape:collect="always" />
    <linearGradient
       id="linearGradient2097"
       inkscape:collect="always">
      <stop
         id="stop2099"
         offset="0"
         style="stop-color:#ffffff;stop-opacity:1.0000000" />
      <stop
         id="stop2101"
         offset="1"
         style="stop-color:#e7e7e3;stop-opacity:1.0000000" />
    </linearGradient>
    <linearGradient
       id="linearGradient2189"
       inkscape:collect="always">
      <stop
         id="stop2191"
         offset="0"
         style="stop-color:#000000;stop-opacity:1;" />
      <stop
         id="stop2193"
         offset="1"
         style="stop-color:#000000;stop-opacity:0;" />
    </linearGradient>
  </defs>
  <sodipodi:namedview
     stroke="#ef2929"
     fill="#eeeeec"
     id="base"
     pagecolor="#ffffff"
     bordercolor="#666666"
     borderopacity="0.25490196"
     inkscape:pageopacity="0.0"
     inkscape:pageshadow="2"
     inkscape:zoom="4"
     inkscape:cx="0.35495693"
     inkscape:cy="20.84594"
     inkscape:current-layer="layer1"
     showgrid="false"
     inkscape:grid-bbox="true"
     inkscape:document-units="px"
     inkscape:showpageshadow="false"
     inkscape:window-width="906"
     inkscape:window-height="680"
     inkscape:window-x="134"
     inkscape:window-y="60"
     showguides="true"
     inkscape:guide-bbox="true"
     width="72px"
     height="72px">
    <inkscape:grid
       type="xygrid"
       id="grid7887" />
  </sodipodi:namedview>
  <metadata
     id="metadata4">
    <rdf:RDF>
      <ns:Work
         rdf:about="">
        <dc:format>image/svg+xml</dc:format>
        <dc:type
           rdf:resource="http://purl.org/dc/dcmitype/StillImage" />
        <dc:creator>
          <ns:Agent>
            <dc:title>Patrick Niklaus</dc:title>
          </ns:Agent>
        </dc:creator>
        <dc:source />
        <ns:license
           rdf:resource="http://creativecommons.org/licenses/GPL/2.0/" />
        <dc:title>Cube</dc:title>
        <dc:subject>
          <rdf:Bag />
        </dc:subject>
      </ns:Work>
      <ns:License
         rdf:about="http://creativecommons.org/licenses/GPL/2.0/">
        <ns:permits
           rdf:resource="http://web.resource.org/cc/Reproduction" />
        <ns:permits
           rdf:resource="http://web.resource.org/cc/Distribution" />
        <ns:requires
           rdf:resource="http://web.resource.org/cc/Notice" />
        <ns:permits
           rdf:resource="http://web.resource.org/cc/DerivativeWorks" />
        <ns:requires
           rdf:resource="http://web.resource.org/cc/ShareAlike" />
        <ns:requires
           rdf:resource="http://web.resource.org/cc/SourceCode" />
      </ns:License>
      <cc:Work
         rdf:about="">
        <dc:format>image/svg+xml</dc:format>
        <dc:type
           rdf:resource="http://purl.org/dc/dcmitype/StillImage" />
      </cc:Work>
    </rdf:RDF>
  </metadata>
  <g
     id="layer1"
     inkscape:label="Layer 1"
     inkscape:groupmode="layer">
    <g
       inkscape:label="Layer 1"
       id="g2415"
       transform="matrix(0.8801307,0,0,0.8801307,16.603209,17.579151)">
      <path
         sodipodi:nodetypes="cscccsc"
         id="path2079"
         d="M 22.978023,4.5 C 34.295483,4.5 43.576067,12.122561 43.478023,21.5 C 43.335166,35.306522 25.903786,40.272257 18.228023,37.96875 C 13.478023,39.526786 12.306015,41.494575 5.3417293,41.481182 C 9.3774433,38.824932 9.2962983,37.204832 9.3290383,34.334296 C 5.2028083,31.225857 2.4780243,26.481404 2.4780233,21.5 C 2.4780233,12.122049 11.660562,4.5000002 22.978023,4.5 z "
         style="opacity:1;fill:url(#radialGradient2103);fill-opacity:1;stroke:#888a85;stroke-width:0.95604855;stroke-linecap:round;stroke-linejoin:round;stroke-miterlimit:4;stroke-dasharray:none;stroke-dashoffset:0;stroke-opacity:1" />
      <path
         sodipodi:nodetypes="cscccsc"
         id="path2095"
         d="M 22.983361,5.4547703 C 33.770055,5.4547703 42.6154,12.706539 42.521954,21.627822 C 42.385797,34.76274 25.468865,39.183875 18.153079,36.99242 C 13.996233,38.554252 13.641818,39.167206 8.5145603,40.162686 C 10.271863,38.11031 10.36985,36.326316 10.383282,33.953563 C 6.4505643,30.996331 3.4447683,26.366911 3.4447673,21.627822 C 3.4447673,12.706052 12.196664,5.4547703 22.983361,5.4547703 z "
         style="opacity:1;fill:none;fill-opacity:1;stroke:#ffffff;stroke-width:0.95625001;stroke-linecap:round;stroke-linejoin:miter;stroke-miterlimit:4;stroke-dasharray:none;stroke-dashoffset:0;stroke-opacity:1" />
      <path
         style="color:#000000;fill:#2e3436;fill-opacity:1;fill-rule:nonzero;stroke:#808080;stroke-width:0.440359;stroke-linecap:butt;stroke-linejoin:miter;marker:none;marker-start:none;marker-mid:none;marker-end:none;stroke-miterlimit:4;stroke-dasharray:none;stroke-dashoffset:0;stroke-opacity:1;visibility:visible;display:inline;overflow:visible"
         d="M 17.630527,8.4361254 C 17.425566,8.4501494 17.22635,8.4818944 17.025033,8.5049314 L 17.011272,8.5049314 L 16.529629,11.133324 C 15.74459,11.312105 15.006027,11.615514 14.341595,12.027803 L 12.181084,10.472786 C 11.597041,10.926219 11.065567,11.455048 10.598544,12.027803 L 12.098517,14.215837 C 11.643083,14.911831 11.3006,15.706551 11.107709,16.541483 C 11.107676,16.54543 11.107682,16.554557 11.107709,16.555244 L 8.493077,16.968081 C 8.445275,17.358518 8.424271,17.762021 8.424271,18.165307 C 8.424271,18.495268 8.433382,18.820821 8.465555,19.142353 L 11.080187,19.610235 C 11.266141,20.518208 11.619388,21.366172 12.112278,22.114777 L 10.55726,24.247766 C 11.002607,24.800644 11.516755,25.304018 12.070994,25.747738 L 14.272789,24.234004 C 15.042287,24.72488 15.901274,25.06909 16.832376,25.238573 L 17.245213,27.839444 C 17.538572,27.866147 17.839411,27.866966 18.139692,27.866966 C 18.563619,27.866966 18.968552,27.850901 19.378202,27.79816 L 19.873605,25.142245 C 20.757653,24.922241 21.58813,24.540587 22.309341,24.027586 L 24.428569,25.568843 C 24.978149,25.101271 25.480708,24.563831 25.91478,23.986302 L 24.373524,21.756985 C 24.79092,21.036122 25.080137,20.240767 25.22672,19.390055 L 27.82759,18.977219 C 27.850398,18.705805 27.855112,18.442585 27.855112,18.165307 C 27.855112,17.68346 27.799107,17.211012 27.731261,16.747901 L 25.089107,16.266259 C 24.882053,15.501697 24.542324,14.788369 24.112061,14.147031 L 25.667079,12.014042 C 25.185073,11.424574 24.635239,10.880038 24.029493,10.417741 L 21.786415,11.958997 C 21.141731,11.577718 20.44796,11.285168 19.69471,11.119563 L 19.281873,8.5049314 C 18.906115,8.4607304 18.527265,8.4361254 18.139692,8.4361254 C 18.034943,8.4361254 17.927138,8.4328294 17.823184,8.4361254 C 17.772506,8.4377324 17.722357,8.4331774 17.67181,8.4361254 C 17.658121,8.4369244 17.644191,8.4351904 17.630527,8.4361254 z M 17.988318,15.124078 C 18.038592,15.121527 18.088787,15.124078 18.139692,15.124078 C 19.768636,15.124078 21.098354,16.453796 21.098354,18.08274 C 21.098354,19.711683 19.768635,21.02764 18.139692,21.02764 C 16.510749,21.027641 15.194791,19.711683 15.194791,18.08274 C 15.194791,16.504701 16.429822,15.203163 17.988318,15.124078 z "
         id="path3243" />
      <path
         transform="matrix(-0.92869,0,0,1.289475,47.76409,-10.65794)"
         d="M 46.07143 42 A 21.535715 2.7142856 0 1 1  3,42 A 21.535715 2.7142856 0 1 1  46.07143 42 z"
         sodipodi:ry="2.7142856"
         sodipodi:rx="21.535715"
         sodipodi:cy="42"
         sodipodi:cx="24.535715"
         id="path1314"
         style="opacity:0.2;fill:url(#radialGradient2195);fill-opacity:1;stroke:none;stroke-width:1;stroke-linecap:round;stroke-linejoin:round;stroke-miterlimit:4;stroke-dasharray:none;stroke-dashoffset:0;stroke-opacity:1"
         sodipodi:type="arc" />
      <path
         style="color:#000000;fill:#2e3436;fill-opacity:1;fill-rule:nonzero;stroke:#808080;stroke-width:0.27574903;stroke-linecap:butt;stroke-linejoin:miter;marker:none;marker-start:none;marker-mid:none;marker-end:none;stroke-miterlimit:4;stroke-dasharray:none;stroke-dashoffset:0;stroke-opacity:1;visibility:visible;display:inline;overflow:visible"
         d="M 30.713677,22.045434 C 30.587509,22.020311 30.461908,22.006838 30.336465,21.987759 L 30.328148,21.985503 L 29.60619,23.495022 C 29.102441,23.474375 28.60635,23.536667 28.137211,23.676913 L 27.086417,22.382959 C 26.659118,22.561248 26.251227,22.793724 25.87509,23.063309 L 26.422913,24.631546 C 26.033574,24.977512 25.696315,25.40166 25.442869,25.874632 C 25.442202,25.877011 25.44071,25.882529 25.440613,25.882949 L 23.792776,25.703826 C 23.699882,25.931951 23.621041,26.172367 23.554929,26.416093 C 23.500838,26.615507 23.452977,26.813749 23.41971,27.013342 L 24.923169,27.724728 C 24.886706,28.303949 24.961183,28.874327 25.136343,29.407548 L 23.846899,30.441709 C 24.025411,30.848848 24.253619,31.237349 24.515835,31.596369 L 26.094644,31.042484 C 26.479223,31.465292 26.941926,31.81413 27.476857,32.069195 L 27.299991,33.708716 C 27.472906,33.772946 27.654584,33.822757 27.836059,33.871983 C 28.092261,33.941478 28.339616,33.998151 28.595836,34.033431 L 29.330623,32.509534 C 29.900965,32.521498 30.465432,32.426984 30.985394,32.235181 L 32.013495,33.514053 C 32.422285,33.321568 32.814112,33.07915 33.171118,32.801277 L 32.605112,31.201323 C 32.975539,30.834092 33.280713,30.400829 33.508759,29.910727 L 35.148279,30.087595 C 35.206556,29.927304 35.252555,29.768999 35.29801,29.601425 C 35.377,29.31022 35.420601,29.015514 35.455518,28.724509 L 33.937681,28.000294 C 33.937883,27.504288 33.849504,27.017493 33.69461,26.559365 L 34.984054,25.525205 C 34.789385,25.089941 34.546357,24.670714 34.256059,24.292023 L 32.647788,24.855774 C 32.320675,24.519662 31.949352,24.229127 31.521271,24.005562 L 31.700391,22.357726 C 31.480548,22.269414 31.255623,22.192438 31.021391,22.128902 C 30.958087,22.111731 30.893474,22.092067 30.830109,22.077017 C 30.799218,22.069682 30.769657,22.058707 30.738626,22.052202 C 30.730221,22.050442 30.722087,22.047109 30.713677,22.045434 z M 29.833541,26.145969 C 29.864342,26.152669 29.89426,26.16244 29.925023,26.170784 C 30.909481,26.43782 31.495115,27.459421 31.22808,28.443879 C 30.961044,29.428335 29.941698,30.005653 28.957242,29.738617 C 27.972786,29.471583 27.39321,28.460553 27.660245,27.476098 C 27.918936,26.522405 28.878695,25.938277 29.833541,26.145969 z "
         id="path1940" />
    </g>
    <path
       sodipodi:type="arc"
       style="opacity:0.3;fill:url(#radialGradient6488);fill-opacity:1;fill-rule:evenodd;stroke:none;stroke-width:1;stroke-linecap:round;stroke-linejoin:round;stroke-miterlimit:4;stroke-dasharray:none;stroke-dashoffset:0;stroke-opacity:1"
       id="path5511"
       sodipodi:cx="13.030141"
       sodipodi:cy="-7.0069871"
       sodipodi:rx="18.143234"
       sodipodi:ry="7.1748242"
       d="M 31.173375 -7.0069871 A 18.143234 7.1748242 0 1 1  -5.1130934,-7.0069871 A 18.143234 7.1748242 0 1 1  31.173375 -7.0069871 z"
       transform="matrix(1.7880533,0,0,2.2337556,12.355387,73.880847)" />
    <path
       style="fill:url(#radialGradient3159);fill-opacity:1;fill-rule:evenodd;stroke:#888a85;stroke-width:1.54531538;stroke-linecap:butt;stroke-linejoin:miter;stroke-miterlimit:4;stroke-dasharray:none;stroke-dashoffset:0;stroke-opacity:1"
       d="M 35.900113,2.457371 L 2.5513637,16.47892 L 2.5513637,56.605624 L 35.822915,69.449209 L 69.017272,56.605624 L 68.978675,16.47892 L 35.900113,2.457371 z "
       id="rect2370"
       sodipodi:nodetypes="ccccccc" />
    <path
       style="fill:url(#linearGradient12425);fill-opacity:1;fill-rule:evenodd;stroke:none;stroke-width:1px;stroke-linecap:butt;stroke-linejoin:miter;stroke-opacity:1"
       d="M 7.1184744,22.441266 L 7.1184744,28.625544 L 32.245742,38.968217 L 32.137435,32.624 L 7.1184744,22.441266 z M 64.521284,22.654517 L 40.802011,32.570687 L 40.910316,38.808278 L 64.521284,29.052045 L 64.521284,22.654517 z "
       id="path11448"
       sodipodi:nodetypes="cccccccccc" />
    <path
       id="path18255"
       d="M 36.502132,29.754693 L 36.488523,67.033357"
       style="fill:none;fill-rule:evenodd;stroke:#ffffff;stroke-width:1.54531538;stroke-linecap:butt;stroke-linejoin:miter;stroke-miterlimit:4;stroke-dasharray:none;stroke-opacity:1"
       sodipodi:nodetypes="cc" />
    <path
       sodipodi:type="inkscape:offset"
       inkscape:radius="-1.2953277"
       inkscape:original="M 128.53125 -62.96875 L 101.53125 -51.4375 L 101.53125 -18.4375 L 128.46875 -7.875 L 155.34375 -18.4375 L 155.3125 -51.4375 L 128.53125 -62.96875 z "
       style="fill:none;fill-opacity:1;fill-rule:evenodd;stroke:#ffffff;stroke-width:1.26071537;stroke-linecap:butt;stroke-linejoin:miter;stroke-miterlimit:4;stroke-dasharray:none;stroke-dashoffset:0;stroke-opacity:1"
       id="path8463"
       d="M 128.53125,-61.5625 L 102.8125,-50.59375 L 102.8125,-19.34375 L 128.46875,-9.28125 L 154.0625,-19.34375 L 154.03125,-50.59375 L 128.53125,-61.5625 z "
       transform="matrix(1.2351388,0,0,1.2164226,-122.85382,78.666998)" />
    <path
       style="fill:none;fill-rule:evenodd;stroke:#888a85;stroke-width:1.54531538;stroke-linecap:butt;stroke-linejoin:miter;stroke-miterlimit:4;stroke-dasharray:none;stroke-opacity:1"
       d="M 34.963369,29.5683 L 35.002272,68.700415"
       id="path9436"
       sodipodi:nodetypes="cc" />
    <path
       id="path17284"
       d="M 6.4560784,16.140266 L 35.883944,28.05744 L 65.051695,16.312794"
       style="fill:none;fill-rule:evenodd;stroke:#ffffff;stroke-width:1.54531538;stroke-linecap:butt;stroke-linejoin:miter;stroke-miterlimit:4;stroke-dasharray:none;stroke-opacity:1"
       sodipodi:nodetypes="ccc" />
    <path
       style="fill:none;fill-rule:evenodd;stroke:#888a85;stroke-width:1.54531538;stroke-linecap:butt;stroke-linejoin:miter;stroke-miterlimit:4;stroke-dasharray:none;stroke-opacity:1"
       d="M 3.0377918,16.899008 L 35.668348,30.158476 L 68.540108,16.919013"
       id="path8465"
       sodipodi:nodetypes="ccc" />
  </g>
</svg>
