<?xml version="1.0" encoding="UTF-8" standalone="no"?>
<svg
   xmlns:dc="http://purl.org/dc/elements/1.1/"
   xmlns:cc="http://web.resource.org/cc/"
   xmlns:rdf="http://www.w3.org/1999/02/22-rdf-syntax-ns#"
   xmlns:svg="http://www.w3.org/2000/svg"
   xmlns="http://www.w3.org/2000/svg"
   xmlns:sodipodi="http://sodipodi.sourceforge.net/DTD/sodipodi-0.dtd"
   xmlns:inkscape="http://www.inkscape.org/namespaces/inkscape"
   width="72"
   height="72"
   viewBox="0 0 300 300"
   version="1.0"
   id="svg2"
   sodipodi:version="0.32"
   inkscape:version="0.45.1"
   sodipodi:docname="plugin-autumn.svg"
   sodipodi:docbase="/home/Sam/Desktop/unofficial icons"
   inkscape:output_extension="org.inkscape.output.svg.inkscape">
  <metadata
     id="metadata195">
    <rdf:RDF>
      <cc:Work
         rdf:about="">
        <dc:format>image/svg+xml</dc:format>
        <dc:type
           rdf:resource="http://purl.org/dc/dcmitype/StillImage" />
      </cc:Work>
    </rdf:RDF>
  </metadata>
  <sodipodi:namedview
     inkscape:window-height="623"
     inkscape:window-width="872"
     inkscape:pageshadow="2"
     inkscape:pageopacity="0.0"
     guidetolerance="10.0"
     gridtolerance="10.0"
     objecttolerance="10.0"
     borderopacity="1.0"
     bordercolor="#666666"
     pagecolor="#ffffff"
     id="base"
     width="72px"
     height="72px"
     inkscape:zoom="1.0853333"
     inkscape:cx="187.5"
     inkscape:cy="113.78992"
     inkscape:window-x="64"
     inkscape:window-y="102"
     inkscape:current-layer="svg2" />
  <defs
     id="defs4">
    <clipPath
       id="clip0">
      <rect
         width="300"
         height="300"
         id="rect7"
         x="0"
         y="0" />
    </clipPath>
  </defs>
  <g
     id="surface0"
     clip-path="url(#clip0)">
<!--<path style="fill: none; stroke-width: 0.1; stroke-linecap: butt; stroke-linejoin: miter; stroke: rgb(100%,100%,99.607849%); opacity: 1;stroke-miterlimit: 10;" d="M 0 0 L 300 0 L 300 300 L 0 300 L 0 0 Z M 0 0 " transform="matrix(1,0,0,1,0,0)"/>
<path style="stroke: none; fill-rule: nonzero; fill: rgb(100%,100%,99.607849%); opacity: 1;" d="M 0 0 L 300 0 L 300 300 L 0 300 L 0 0 Z M 0 0 "/> -->    <path
       style="opacity:1;fill:none;stroke:#fae6b5;stroke-width:0.1;stroke-linecap:butt;stroke-linejoin:miter;stroke-miterlimit:10"
       d="M 194.2346,12.125534 C 200.85318,11.466705 200.385,20.479004 201.18213,24.89122 C 202.69325,29.615906 207.11902,32.363205 209.9341,36.033264 C 212.99078,50.180466 221.29585,62.41066 225.82628,76.068832 C 223.18791,83.99707 228.08157,92.449432 223.91965,99.96788 C 219.6891,107.55896 221.4142,117.69452 215.36192,124.35616 C 214.69705,125.86377 214.29074,129.13956 216.93149,127.92454 C 225.43558,122.73389 235.8672,121.90489 244.0967,116.05977 C 253.09854,117.33312 262.10432,115.7419 271.01068,117.99504 C 274.60091,118.82616 285.38803,114.08411 282.68506,121.6915 C 275.54649,132.87816 271.03105,145.43625 263.39058,156.34482 C 259.44038,164.85211 257.6252,177.21669 246.99156,180.00612 C 242.67337,181.66509 242.82129,188.69879 237.60608,188.4892 C 223.33812,188.06853 216.08688,202.76094 206.10794,210.09642 C 211.64479,214.84598 215.91455,221.66952 219.64629,228.3181 C 222.63535,235.57104 219.92215,244.36118 225.2318,250.75322 C 226.39333,252.51463 228.28012,255.40437 225.74184,256.91046 C 219.81619,258.96901 216.52882,252.70616 211.35687,251.57835 C 201.6418,249.33182 191.5247,254.16702 182.09229,249.90831 C 174.65834,250.54381 167.91492,242.72556 160.89313,247.92502 C 154.54691,246.18358 151.90176,237.84366 148.04617,232.99646 C 143.8427,227.996 146.88158,220.80774 143.53624,215.51642 C 142.30566,212.35234 144.57059,206.20583 140.1382,204.76929 C 143.09869,202.23912 144.89723,205.19957 144.1283,208.29993 C 145.03377,221.81564 148.7919,235.36083 159.22003,244.86192 C 173.47073,242.69215 187.06224,253.28957 201.47359,249.57642 C 209.59578,246.91805 216.22317,252.62866 222.93442,255.92719 C 226.58513,251.71767 219.47438,247.60641 221.02399,242.96027 C 220.22797,230.17671 213.99617,217.67323 202.98531,210.73213 C 211.68311,203.85048 217.70113,193.97044 228.02901,189.04263 C 232.0533,185.76468 239.20898,189.24283 241.43784,183.53758 C 243.10556,177.86043 250.49206,178.21939 253.59428,173.66847 C 258.08157,167.76271 259.11934,160.09743 262.79018,153.74991 C 269.37552,144.88066 272.94395,134.2892 279.21176,125.20554 C 280.31509,123.51485 282.38534,120.47389 279.69803,119.20569 C 267.5786,118.90648 255.41362,118.22388 243.31877,118.32852 C 233.92642,123.15901 223.70305,126.07701 214.18935,130.67013 C 208.21901,127.91023 216.48836,121.71222 217.6259,117.65353 C 219.0031,111.31313 219.79773,104.84677 222.99171,99.01059 C 224.99966,91.17659 222.1539,82.955292 223.935,75.00946 C 219.63896,61.633026 210.8923,49.775116 207.93704,36.051468 C 201.17427,32.006897 199.83478,24.690735 198.32277,17.663498 C 198.06753,15.499893 195.38023,13.805222 193.92758,15.897888 C 190.17827,21.069519 189.53104,28.160492 184.28819,32.249329 C 183.75708,30.274078 185.1602,28.71431 186.27653,27.272949 C 190.08758,22.892044 189.90294,16.153778 194.2346,12.125534 z "
       id="path10" />
    <path
       style="opacity:1;fill:#fae6b5;fill-rule:nonzero;stroke:none"
       d="M 194.2346,12.125534 C 200.85318,11.466705 200.385,20.479004 201.18213,24.89122 C 202.69325,29.615906 207.11902,32.363205 209.9341,36.033264 C 212.99078,50.180466 221.29585,62.41066 225.82628,76.068832 C 223.18791,83.99707 228.08157,92.449432 223.91965,99.96788 C 219.6891,107.55896 221.4142,117.69452 215.36192,124.35616 C 214.69705,125.86377 214.29074,129.13956 216.93149,127.92454 C 225.43558,122.73389 235.8672,121.90489 244.0967,116.05977 C 253.09854,117.33312 262.10432,115.7419 271.01068,117.99504 C 274.60091,118.82616 285.38803,114.08411 282.68506,121.6915 C 275.54649,132.87816 271.03105,145.43625 263.39058,156.34482 C 259.44038,164.85211 257.6252,177.21669 246.99156,180.00612 C 242.67337,181.66509 242.82129,188.69879 237.60608,188.4892 C 223.33812,188.06853 216.08688,202.76094 206.10794,210.09642 C 211.64479,214.84598 215.91455,221.66952 219.64629,228.3181 C 222.63535,235.57104 219.92215,244.36118 225.2318,250.75322 C 226.39333,252.51463 228.28012,255.40437 225.74184,256.91046 C 219.81619,258.96901 216.52882,252.70616 211.35687,251.57835 C 201.6418,249.33182 191.5247,254.16702 182.09229,249.90831 C 174.65834,250.54381 167.91492,242.72556 160.89313,247.92502 C 154.54691,246.18358 151.90176,237.84366 148.04617,232.99646 C 143.8427,227.996 146.88158,220.80774 143.53624,215.51642 C 142.30566,212.35234 144.57059,206.20583 140.1382,204.76929 C 143.09869,202.23912 144.89723,205.19957 144.1283,208.29993 C 145.03377,221.81564 148.7919,235.36083 159.22003,244.86192 C 173.47073,242.69215 187.06224,253.28957 201.47359,249.57642 C 209.59578,246.91805 216.22317,252.62866 222.93442,255.92719 C 226.58513,251.71767 219.47438,247.60641 221.02399,242.96027 C 220.22797,230.17671 213.99617,217.67323 202.98531,210.73213 C 211.68311,203.85048 217.70113,193.97044 228.02901,189.04263 C 232.0533,185.76468 239.20898,189.24283 241.43784,183.53758 C 243.10556,177.86043 250.49206,178.21939 253.59428,173.66847 C 258.08157,167.76271 259.11934,160.09743 262.79018,153.74991 C 269.37552,144.88066 272.94395,134.2892 279.21176,125.20554 C 280.31509,123.51485 282.38534,120.47389 279.69803,119.20569 C 267.5786,118.90648 255.41362,118.22388 243.31877,118.32852 C 233.92642,123.15901 223.70305,126.07701 214.18935,130.67013 C 208.21901,127.91023 216.48836,121.71222 217.6259,117.65353 C 219.0031,111.31313 219.79773,104.84677 222.99171,99.01059 C 224.99966,91.17659 222.1539,82.955292 223.935,75.00946 C 219.63896,61.633026 210.8923,49.775116 207.93704,36.051468 C 201.17427,32.006897 199.83478,24.690735 198.32277,17.663498 C 198.06753,15.499893 195.38023,13.805222 193.92758,15.897888 C 190.17827,21.069519 189.53104,28.160492 184.28819,32.249329 C 183.75708,30.274078 185.1602,28.71431 186.27653,27.272949 C 190.08758,22.892044 189.90294,16.153778 194.2346,12.125534 z "
       id="path12" />
    <path
       style="opacity:1;fill:none;stroke:#facf66;stroke-width:0.1;stroke-linecap:butt;stroke-linejoin:miter;stroke-miterlimit:10"
       d="M 193.92758,15.897888 C 195.38023,13.805222 198.06753,15.499893 198.32277,17.663498 C 199.83478,24.690735 201.17427,32.006897 207.93704,36.051468 C 210.8923,49.775116 219.63896,61.633026 223.935,75.00946 C 222.1539,82.955292 224.99966,91.17659 222.99171,99.01059 C 219.79773,104.84677 219.0031,111.31313 217.6259,117.65353 C 216.48836,121.71222 208.21901,127.91023 214.18935,130.67013 C 223.70305,126.07701 233.92642,123.15901 243.31877,118.32852 C 255.41362,118.22388 267.5786,118.90648 279.69803,119.20569 C 282.38534,120.47389 280.31509,123.51485 279.21176,125.20554 C 272.94395,134.2892 269.37552,144.88066 262.79018,153.74991 C 259.11934,160.09743 258.08157,167.76271 253.59428,173.66847 C 250.49206,178.21939 243.10556,177.86043 241.43784,183.53758 C 239.20898,189.24283 232.0533,185.76468 228.02901,189.04263 C 217.70113,193.97044 211.68311,203.85048 202.98531,210.73213 C 213.99617,217.67323 220.22797,230.17671 221.02399,242.96027 C 219.47438,247.60641 226.58513,251.71767 222.93442,255.92719 C 216.22317,252.62866 209.59578,246.91805 201.47359,249.57642 C 187.06224,253.28957 173.47073,242.69215 159.22003,244.86192 C 148.7919,235.36083 145.03377,221.81564 144.1283,208.29993 C 147.81509,205.90268 144.48401,201.76562 140.82927,202.69591 C 142.38928,201.81071 143.91746,200.86903 145.39961,199.85805 C 150.57803,201.08568 146.17387,207.64975 146.75114,210.88321 C 144.70102,223.22176 152.78476,232.5453 159.28696,241.80104 C 160.77,241.80611 163.73612,241.81622 165.21916,241.82129 C 168.86372,242.61487 172.37662,243.90004 175.79674,245.37749 C 184.25707,247.95361 193.34802,249.3866 202.02496,246.99004 C 209.26558,245.25288 214.90793,250.49136 221.04842,253.1575 C 217.34817,243.77324 220.32448,232.06772 213.1405,224.03258 C 210.85089,217.62251 197.86024,214.48549 203.77226,206.74101 C 205.6243,205.61388 207.7533,204.80951 209.20633,203.13339 C 216.29417,194.4144 226.22037,185.62224 237.63756,184.68515 C 241.28554,176.28705 252.7774,176.19336 255.02525,167.02212 C 260.16679,153.7894 267.77425,141.72157 274.23105,129.1328 C 275.53325,126.83373 280.17201,123.49533 276.69331,121.19537 C 274.10391,121.11543 268.92511,120.95558 266.33571,120.87566 C 258.65742,119.34126 250.85307,120.75201 243.11502,120.16252 C 238.37682,122.40517 233.72452,124.89677 228.77043,126.69298 C 222.11517,126.67168 215.91284,135.59665 209.87254,130.9973 C 210.03448,129.26431 210.48112,127.57901 210.90817,125.89923 C 217.73288,117.93469 217.34834,107.28018 221.5761,98.183624 C 225.03789,91.53566 218.54692,84.262405 222.80502,77.829926 C 222.63705,71.822739 217.43747,66.899521 215.96303,61.023987 C 214.47084,53.464584 207.40477,48.193542 207.77902,40.132324 C 206.11014,35.617477 201.11249,33.332443 199.23908,28.81752 C 198.54506,25.50499 197.75729,22.216278 196.87579,18.951385 C 193.26321,17.99501 192.54823,22.140656 191.61798,24.643188 C 190.36496,30.08197 185.25066,33.136978 182.7388,37.886612 C 172.3762,43.587723 173.43848,57.275223 163.7341,63.843124 C 155.99162,69.268875 152.6808,78.606522 148.60806,86.793182 C 147.65214,88.777527 146.64787,90.739044 145.75241,92.752335 C 144.71941,94.810516 143.83592,96.937775 142.99533,99.080872 C 139.95152,100.91333 136.37303,100.94122 132.92215,101.13518 C 128.85083,99.002747 125.95668,95.345016 123.14218,91.822556 C 119.04155,85.720139 116.03653,78.947647 111.87068,72.900375 C 110.73604,71.311035 109.51639,69.711594 109.12662,67.750168 C 118.61468,75.968201 121.72395,90.155365 131.35957,98.641144 C 135.27736,101.26442 140.38415,99.620331 142.61087,95.633453 C 148.1537,84.548416 152.09041,72.022598 161.29828,63.303116 C 167.23796,58.885406 171.69151,52.577942 173.50056,45.382996 C 174.87097,39.356293 182.3428,38.036438 184.28819,32.249329 C 189.53104,28.160492 190.17827,21.069519 193.92758,15.897888 z "
       id="path14" />
    <path
       style="opacity:1;fill:#facf66;fill-rule:nonzero;stroke:none"
       d="M 193.92758,15.897888 C 195.38023,13.805222 198.06753,15.499893 198.32277,17.663498 C 199.83478,24.690735 201.17427,32.006897 207.93704,36.051468 C 210.8923,49.775116 219.63896,61.633026 223.935,75.00946 C 222.1539,82.955292 224.99966,91.17659 222.99171,99.01059 C 219.79773,104.84677 219.0031,111.31313 217.6259,117.65353 C 216.48836,121.71222 208.21901,127.91023 214.18935,130.67013 C 223.70305,126.07701 233.92642,123.15901 243.31877,118.32852 C 255.41362,118.22388 267.5786,118.90648 279.69803,119.20569 C 282.38534,120.47389 280.31509,123.51485 279.21176,125.20554 C 272.94395,134.2892 269.37552,144.88066 262.79018,153.74991 C 259.11934,160.09743 258.08157,167.76271 253.59428,173.66847 C 250.49206,178.21939 243.10556,177.86043 241.43784,183.53758 C 239.20898,189.24283 232.0533,185.76468 228.02901,189.04263 C 217.70113,193.97044 211.68311,203.85048 202.98531,210.73213 C 213.99617,217.67323 220.22797,230.17671 221.02399,242.96027 C 219.47438,247.60641 226.58513,251.71767 222.93442,255.92719 C 216.22317,252.62866 209.59578,246.91805 201.47359,249.57642 C 187.06224,253.28957 173.47073,242.69215 159.22003,244.86192 C 148.7919,235.36083 145.03377,221.81564 144.1283,208.29993 C 147.81509,205.90268 144.48401,201.76562 140.82927,202.69591 C 142.38928,201.81071 143.91746,200.86903 145.39961,199.85805 C 150.57803,201.08568 146.17387,207.64975 146.75114,210.88321 C 144.70102,223.22176 152.78476,232.5453 159.28696,241.80104 C 160.77,241.80611 163.73612,241.81622 165.21916,241.82129 C 168.86372,242.61487 172.37662,243.90004 175.79674,245.37749 C 184.25707,247.95361 193.34802,249.3866 202.02496,246.99004 C 209.26558,245.25288 214.90793,250.49136 221.04842,253.1575 C 217.34817,243.77324 220.32448,232.06772 213.1405,224.03258 C 210.85089,217.62251 197.86024,214.48549 203.77226,206.74101 C 205.6243,205.61388 207.7533,204.80951 209.20633,203.13339 C 216.29417,194.4144 226.22037,185.62224 237.63756,184.68515 C 241.28554,176.28705 252.7774,176.19336 255.02525,167.02212 C 260.16679,153.7894 267.77425,141.72157 274.23105,129.1328 C 275.53325,126.83373 280.17201,123.49533 276.69331,121.19537 C 274.10391,121.11543 268.92511,120.95558 266.33571,120.87566 C 258.65742,119.34126 250.85307,120.75201 243.11502,120.16252 C 238.37682,122.40517 233.72452,124.89677 228.77043,126.69298 C 222.11517,126.67168 215.91284,135.59665 209.87254,130.9973 C 210.03448,129.26431 210.48112,127.57901 210.90817,125.89923 C 217.73288,117.93469 217.34834,107.28018 221.5761,98.183624 C 225.03789,91.53566 218.54692,84.262405 222.80502,77.829926 C 222.63705,71.822739 217.43747,66.899521 215.96303,61.023987 C 214.47084,53.464584 207.40477,48.193542 207.77902,40.132324 C 206.11014,35.617477 201.11249,33.332443 199.23908,28.81752 C 198.54506,25.50499 197.75729,22.216278 196.87579,18.951385 C 193.26321,17.99501 192.54823,22.140656 191.61798,24.643188 C 190.36496,30.08197 185.25066,33.136978 182.7388,37.886612 C 172.3762,43.587723 173.43848,57.275223 163.7341,63.843124 C 155.99162,69.268875 152.6808,78.606522 148.60806,86.793182 C 147.65214,88.777527 146.64787,90.739044 145.75241,92.752335 C 144.71941,94.810516 143.83592,96.937775 142.99533,99.080872 C 139.95152,100.91333 136.37303,100.94122 132.92215,101.13518 C 128.85083,99.002747 125.95668,95.345016 123.14218,91.822556 C 119.04155,85.720139 116.03653,78.947647 111.87068,72.900375 C 110.73604,71.311035 109.51639,69.711594 109.12662,67.750168 C 118.61468,75.968201 121.72395,90.155365 131.35957,98.641144 C 135.27736,101.26442 140.38415,99.620331 142.61087,95.633453 C 148.1537,84.548416 152.09041,72.022598 161.29828,63.303116 C 167.23796,58.885406 171.69151,52.577942 173.50056,45.382996 C 174.87097,39.356293 182.3428,38.036438 184.28819,32.249329 C 189.53104,28.160492 190.17827,21.069519 193.92758,15.897888 z "
       id="path16" />
    <path
       style="opacity:1;fill:none;stroke:#faa817;stroke-width:0.1;stroke-linecap:butt;stroke-linejoin:miter;stroke-miterlimit:10"
       d="M 191.61798,24.643188 C 192.54823,22.140656 193.26321,17.99501 196.87579,18.951385 C 197.75729,22.216278 198.54506,25.50499 199.23908,28.81752 C 198.3412,33.729584 198.03348,38.690689 198.57597,43.66011 C 196.18988,50.838242 192.36922,58.095505 194.9523,65.836136 C 189.94127,68.634293 191.85336,75.320557 187.65335,78.655975 C 185.48541,80.048096 185.39394,85.969269 182.07204,82.982361 C 186.33846,79.709259 184.16011,75.471329 183.02463,71.278076 C 191.90179,69.399551 188.11446,59.65657 189.82881,52.957611 C 189.87701,47.011032 181.39522,43.966934 182.7388,37.886612 C 185.25066,33.136978 190.36496,30.08197 191.61798,24.643188 z "
       id="path18" />
    <path
       style="opacity:1;fill:#faa817;fill-rule:nonzero;stroke:none"
       d="M 191.61798,24.643188 C 192.54823,22.140656 193.26321,17.99501 196.87579,18.951385 C 197.75729,22.216278 198.54506,25.50499 199.23908,28.81752 C 198.3412,33.729584 198.03348,38.690689 198.57597,43.66011 C 196.18988,50.838242 192.36922,58.095505 194.9523,65.836136 C 189.94127,68.634293 191.85336,75.320557 187.65335,78.655975 C 185.48541,80.048096 185.39394,85.969269 182.07204,82.982361 C 186.33846,79.709259 184.16011,75.471329 183.02463,71.278076 C 191.90179,69.399551 188.11446,59.65657 189.82881,52.957611 C 189.87701,47.011032 181.39522,43.966934 182.7388,37.886612 C 185.25066,33.136978 190.36496,30.08197 191.61798,24.643188 z "
       id="path20" />
    <path
       style="opacity:1;fill:none;stroke:#faba1c;stroke-width:0.1;stroke-linecap:butt;stroke-linejoin:miter;stroke-miterlimit:10"
       d="M 199.23908,28.81752 C 201.11249,33.332443 206.11014,35.617477 207.77902,40.132324 C 207.40477,48.193542 214.47084,53.464584 215.96303,61.023987 C 217.43747,66.899521 222.63705,71.822739 222.80502,77.829926 C 218.54692,84.262405 225.03789,91.53566 221.5761,98.183624 C 219.31274,90.686813 210.00105,100.08575 211.29248,105.21167 C 212.52119,111.66962 204.78932,115.10254 200.1844,111.00291 C 196.43358,121.62866 184.05624,125.69392 179.06346,135.92464 C 184.99696,138.3804 190.86662,134.98036 195.44246,131.45337 C 197.89371,128.04733 199.89719,123.01363 204.78654,122.84338 C 202.29002,132.00072 207.40971,130.22189 210.90817,125.89923 C 210.48112,127.57901 210.03448,129.26431 209.87254,130.9973 C 208.99152,133.62956 213.89905,135.7484 212.00177,137.60255 C 208.3105,136.42828 203.7095,134.5358 200.42331,137.42127 C 196.79474,141.75154 196.48906,148.18861 190.99333,150.98825 C 184.87062,155.73868 196.96117,154.18424 199.11774,158.07806 C 203.32117,154.52553 205.4109,149.04668 209.29146,145.14442 C 211.9458,144.55458 216.11379,149.5146 217.44801,145.53798 C 216.96458,139.94786 220.85852,138.19473 225.25879,137.24283 C 226.54283,133.77081 227.3082,130.11118 228.77043,126.69298 C 233.72452,124.89677 238.37682,122.40517 243.11502,120.16252 C 250.85307,120.75201 258.65742,119.34126 266.33571,120.87566 C 263.67912,121.47301 260.91228,121.42969 258.30008,122.22844 C 253.83948,126.8036 258.91,136.29567 252.38898,139.44704 C 245.645,141.99976 240.12122,150.00322 232.29997,147.17081 C 228.94101,155.26994 220.19569,157.9612 213.48235,162.50406 C 204.66808,165.63347 209.57434,155.15306 209.04019,150.87529 C 205.17569,152.75403 201.39986,157.76106 203.99158,162.02828 C 206.57819,165.29625 200.07854,173.3141 208.77788,169.81499 C 213.46668,167.02098 220.43219,160.37033 225.90036,165.14439 C 224.89557,168.64918 215.99472,169.22211 220.64755,175.27727 C 228.7558,179.30812 240.19246,178.83559 245.20471,169.95488 C 241.94896,164.69467 236.31818,162.35757 231.02914,159.78996 C 232.41986,156.18012 237.48471,153.68259 241.01469,151.9257 C 246.37198,151.70679 243.06624,157.85692 246.25397,159.88986 C 253.28436,160.79071 261.34056,154.53836 260.10423,147.02634 C 262.67136,139.81828 265.79733,130.95344 274.23105,129.1328 C 267.77425,141.72157 260.16679,153.7894 255.02525,167.02212 C 252.7774,176.19336 241.28554,176.28705 237.63756,184.68515 C 226.22037,185.62224 216.29417,194.4144 209.20633,203.13339 C 209.49838,201.5556 209.84901,199.97641 209.85852,198.36769 C 200.49046,196.71867 194.43182,187.80414 184.69496,187.25357 C 179.77623,186.76717 183.38196,176.54445 176.42812,180.53653 C 170.34975,182.7599 164.04483,184.8401 158.94586,188.96088 C 156.812,191.36909 152.04275,188.38676 154.66472,185.69556 C 163.9556,178.32573 176.02689,174.8829 184.7677,166.83154 C 187.41408,163.91916 187.09833,158.60307 183.10319,157.00461 C 176.63986,160.90225 170.3653,165.13438 163.85103,168.93675 C 160.89661,170.09932 158.92392,166.8279 160.36191,164.34842 C 164.22163,155.48802 165.8927,145.19351 173.64725,138.63792 C 170.98091,129.61546 180.36528,124.04485 179.28642,115.15149 C 179.28451,108.83862 188.6452,101.09328 182.00371,96.759247 C 179.85458,98.122864 179.0618,102.18384 176.23151,101.88371 C 168.95641,95.305481 183.43837,84.050201 174.99838,78.991623 C 168.10091,78.017242 176.24321,72.870483 172.21492,70.841949 C 169.1474,69.018494 170.9612,64.805801 168.97996,62.260788 C 167.21562,62.738678 165.49068,63.347488 163.7341,63.843124 C 173.43848,57.275223 172.3762,43.587723 182.7388,37.886612 C 181.39522,43.966934 189.87701,47.011032 189.82881,52.957611 C 188.11446,59.65657 191.90179,69.399551 183.02463,71.278076 C 184.16011,75.471329 186.33846,79.709259 182.07204,82.982361 C 185.39394,85.969269 185.48541,80.048096 187.65335,78.655975 C 191.85336,75.320557 189.94127,68.634293 194.9523,65.836136 C 192.36922,58.095505 196.18988,50.838242 198.57597,43.66011 C 198.03348,38.690689 198.3412,33.729584 199.23908,28.81752 z "
       id="path22" />
    <path
       style="opacity:1;fill:#faba1c;fill-rule:nonzero;stroke:none"
       d="M 199.23908,28.81752 C 201.11249,33.332443 206.11014,35.617477 207.77902,40.132324 C 207.40477,48.193542 214.47084,53.464584 215.96303,61.023987 C 217.43747,66.899521 222.63705,71.822739 222.80502,77.829926 C 218.54692,84.262405 225.03789,91.53566 221.5761,98.183624 C 219.31274,90.686813 210.00105,100.08575 211.29248,105.21167 C 212.52119,111.66962 204.78932,115.10254 200.1844,111.00291 C 196.43358,121.62866 184.05624,125.69392 179.06346,135.92464 C 184.99696,138.3804 190.86662,134.98036 195.44246,131.45337 C 197.89371,128.04733 199.89719,123.01363 204.78654,122.84338 C 202.29002,132.00072 207.40971,130.22189 210.90817,125.89923 C 210.48112,127.57901 210.03448,129.26431 209.87254,130.9973 C 208.99152,133.62956 213.89905,135.7484 212.00177,137.60255 C 208.3105,136.42828 203.7095,134.5358 200.42331,137.42127 C 196.79474,141.75154 196.48906,148.18861 190.99333,150.98825 C 184.87062,155.73868 196.96117,154.18424 199.11774,158.07806 C 203.32117,154.52553 205.4109,149.04668 209.29146,145.14442 C 211.9458,144.55458 216.11379,149.5146 217.44801,145.53798 C 216.96458,139.94786 220.85852,138.19473 225.25879,137.24283 C 226.54283,133.77081 227.3082,130.11118 228.77043,126.69298 C 233.72452,124.89677 238.37682,122.40517 243.11502,120.16252 C 250.85307,120.75201 258.65742,119.34126 266.33571,120.87566 C 263.67912,121.47301 260.91228,121.42969 258.30008,122.22844 C 253.83948,126.8036 258.91,136.29567 252.38898,139.44704 C 245.645,141.99976 240.12122,150.00322 232.29997,147.17081 C 228.94101,155.26994 220.19569,157.9612 213.48235,162.50406 C 204.66808,165.63347 209.57434,155.15306 209.04019,150.87529 C 205.17569,152.75403 201.39986,157.76106 203.99158,162.02828 C 206.57819,165.29625 200.07854,173.3141 208.77788,169.81499 C 213.46668,167.02098 220.43219,160.37033 225.90036,165.14439 C 224.89557,168.64918 215.99472,169.22211 220.64755,175.27727 C 228.7558,179.30812 240.19246,178.83559 245.20471,169.95488 C 241.94896,164.69467 236.31818,162.35757 231.02914,159.78996 C 232.41986,156.18012 237.48471,153.68259 241.01469,151.9257 C 246.37198,151.70679 243.06624,157.85692 246.25397,159.88986 C 253.28436,160.79071 261.34056,154.53836 260.10423,147.02634 C 262.67136,139.81828 265.79733,130.95344 274.23105,129.1328 C 267.77425,141.72157 260.16679,153.7894 255.02525,167.02212 C 252.7774,176.19336 241.28554,176.28705 237.63756,184.68515 C 226.22037,185.62224 216.29417,194.4144 209.20633,203.13339 C 209.49838,201.5556 209.84901,199.97641 209.85852,198.36769 C 200.49046,196.71867 194.43182,187.80414 184.69496,187.25357 C 179.77623,186.76717 183.38196,176.54445 176.42812,180.53653 C 170.34975,182.7599 164.04483,184.8401 158.94586,188.96088 C 156.812,191.36909 152.04275,188.38676 154.66472,185.69556 C 163.9556,178.32573 176.02689,174.8829 184.7677,166.83154 C 187.41408,163.91916 187.09833,158.60307 183.10319,157.00461 C 176.63986,160.90225 170.3653,165.13438 163.85103,168.93675 C 160.89661,170.09932 158.92392,166.8279 160.36191,164.34842 C 164.22163,155.48802 165.8927,145.19351 173.64725,138.63792 C 170.98091,129.61546 180.36528,124.04485 179.28642,115.15149 C 179.28451,108.83862 188.6452,101.09328 182.00371,96.759247 C 179.85458,98.122864 179.0618,102.18384 176.23151,101.88371 C 168.95641,95.305481 183.43837,84.050201 174.99838,78.991623 C 168.10091,78.017242 176.24321,72.870483 172.21492,70.841949 C 169.1474,69.018494 170.9612,64.805801 168.97996,62.260788 C 167.21562,62.738678 165.49068,63.347488 163.7341,63.843124 C 173.43848,57.275223 172.3762,43.587723 182.7388,37.886612 C 181.39522,43.966934 189.87701,47.011032 189.82881,52.957611 C 188.11446,59.65657 191.90179,69.399551 183.02463,71.278076 C 184.16011,75.471329 186.33846,79.709259 182.07204,82.982361 C 185.39394,85.969269 185.48541,80.048096 187.65335,78.655975 C 191.85336,75.320557 189.94127,68.634293 194.9523,65.836136 C 192.36922,58.095505 196.18988,50.838242 198.57597,43.66011 C 198.03348,38.690689 198.3412,33.729584 199.23908,28.81752 z "
       id="path24" />
    <path
       style="opacity:1;fill:none;stroke:#fae8b3;stroke-width:0.1;stroke-linecap:butt;stroke-linejoin:miter;stroke-miterlimit:10"
       d="M 179.92781,35.972031 C 181.51924,34.935547 182.16087,32.245743 184.28819,32.249329 C 182.3428,38.036438 174.87097,39.356293 173.50056,45.382996 C 171.69151,52.577942 167.23796,58.885406 161.29828,63.303116 C 152.09041,72.022598 148.1537,84.548416 142.61087,95.633453 C 140.38415,99.620331 135.27736,101.26442 131.35957,98.641144 C 121.72395,90.155365 118.61468,75.968201 109.12662,67.750168 C 98.453918,63.163834 96.44989,48.850769 88.169632,42.992844 C 83.91098,58.13884 83.00827,74.208008 77.289749,89.003342 C 79.187637,95.48761 81.829971,102.56952 76.020996,107.94571 C 85.303497,119.41342 84.343552,135.17496 81.96109,148.94675 C 81.209579,149.60797 80.467987,150.2809 79.736328,150.96555 C 74.226974,152.44922 68.532837,152.89786 62.911194,153.74915 C 55.861588,154.33945 49.744919,158.56833 43.873489,162.12671 C 44.424911,165.37293 47.177399,167.50526 49.070084,169.99242 C 45.877914,168.62547 41.631042,165.82782 41.120758,162.20763 C 50.471985,152.11383 64.908127,152.19806 77.364273,149.38325 C 82.365814,147.90636 80.580368,142.30641 81.333405,138.30586 C 83.907272,127.76028 80.810242,116.42415 73.332047,108.63585 C 72.246597,104.41655 81.143768,102.25313 78.338593,97.684982 C 75.934113,93.25032 75.220581,87.863861 77.234848,83.14975 C 81.167297,76.233566 80.099167,67.790436 82.416489,60.328125 C 84.925095,52.127441 85.990753,43.5858 86.106323,35.013641 C 88.776199,34.330246 91.187073,35.486542 91.554947,38.35994 C 91.238968,46.217041 97.648422,51.531052 101.12923,57.898621 C 103.69568,61.069672 105.29407,66.62915 110.73062,65.31424 C 118.4162,75.848404 123.79234,88.524292 133.31128,97.809494 C 136.93341,98.899689 141.06364,96.793564 142.3289,93.323761 C 147.86827,80.472809 153.27727,66.537994 164.80969,57.795975 C 172.99277,52.148514 169.94273,39.595825 179.92781,35.972031 z "
       id="path26" />
    <path
       style="opacity:1;fill:#fae8b3;fill-rule:nonzero;stroke:none"
       d="M 179.92781,35.972031 C 181.51924,34.935547 182.16087,32.245743 184.28819,32.249329 C 182.3428,38.036438 174.87097,39.356293 173.50056,45.382996 C 171.69151,52.577942 167.23796,58.885406 161.29828,63.303116 C 152.09041,72.022598 148.1537,84.548416 142.61087,95.633453 C 140.38415,99.620331 135.27736,101.26442 131.35957,98.641144 C 121.72395,90.155365 118.61468,75.968201 109.12662,67.750168 C 98.453918,63.163834 96.44989,48.850769 88.169632,42.992844 C 83.91098,58.13884 83.00827,74.208008 77.289749,89.003342 C 79.187637,95.48761 81.829971,102.56952 76.020996,107.94571 C 85.303497,119.41342 84.343552,135.17496 81.96109,148.94675 C 81.209579,149.60797 80.467987,150.2809 79.736328,150.96555 C 74.226974,152.44922 68.532837,152.89786 62.911194,153.74915 C 55.861588,154.33945 49.744919,158.56833 43.873489,162.12671 C 44.424911,165.37293 47.177399,167.50526 49.070084,169.99242 C 45.877914,168.62547 41.631042,165.82782 41.120758,162.20763 C 50.471985,152.11383 64.908127,152.19806 77.364273,149.38325 C 82.365814,147.90636 80.580368,142.30641 81.333405,138.30586 C 83.907272,127.76028 80.810242,116.42415 73.332047,108.63585 C 72.246597,104.41655 81.143768,102.25313 78.338593,97.684982 C 75.934113,93.25032 75.220581,87.863861 77.234848,83.14975 C 81.167297,76.233566 80.099167,67.790436 82.416489,60.328125 C 84.925095,52.127441 85.990753,43.5858 86.106323,35.013641 C 88.776199,34.330246 91.187073,35.486542 91.554947,38.35994 C 91.238968,46.217041 97.648422,51.531052 101.12923,57.898621 C 103.69568,61.069672 105.29407,66.62915 110.73062,65.31424 C 118.4162,75.848404 123.79234,88.524292 133.31128,97.809494 C 136.93341,98.899689 141.06364,96.793564 142.3289,93.323761 C 147.86827,80.472809 153.27727,66.537994 164.80969,57.795975 C 172.99277,52.148514 169.94273,39.595825 179.92781,35.972031 z "
       id="path28" />
    <path
       style="opacity:1;fill:none;stroke:#fad966;stroke-width:0.1;stroke-linecap:butt;stroke-linejoin:miter;stroke-miterlimit:10"
       d="M 88.169632,42.992844 C 96.44989,48.850769 98.453918,63.163834 109.12662,67.750168 C 100.96393,69.406967 99.627792,59.407654 95.173569,54.779175 C 93.22934,52.638336 92.480576,48.483368 89.345016,48.051071 C 86.670532,58.27388 83.538361,68.490738 83.021561,79.116653 C 80.744354,83.699097 77.226791,89.381424 80.942612,94.027145 C 81.235382,96.935593 81.746109,99.882431 81.174576,102.7935 C 74.934814,107.79894 82.025208,112.82192 83.877289,118.12311 C 84.056244,122.42306 84.001801,126.73576 84.013977,131.04376 C 83.935272,136.63542 84.23642,142.24643 83.827332,147.83414 C 83.360779,148.11229 82.427658,148.66859 81.96109,148.94675 C 84.343552,135.17496 85.303497,119.41342 76.020996,107.94571 C 81.829971,102.56952 79.187637,95.48761 77.289749,89.003342 C 83.00827,74.208008 83.91098,58.13884 88.169632,42.992844 z "
       id="path30" />
    <path
       style="opacity:1;fill:#fad966;fill-rule:nonzero;stroke:none"
       d="M 88.169632,42.992844 C 96.44989,48.850769 98.453918,63.163834 109.12662,67.750168 C 100.96393,69.406967 99.627792,59.407654 95.173569,54.779175 C 93.22934,52.638336 92.480576,48.483368 89.345016,48.051071 C 86.670532,58.27388 83.538361,68.490738 83.021561,79.116653 C 80.744354,83.699097 77.226791,89.381424 80.942612,94.027145 C 81.235382,96.935593 81.746109,99.882431 81.174576,102.7935 C 74.934814,107.79894 82.025208,112.82192 83.877289,118.12311 C 84.056244,122.42306 84.001801,126.73576 84.013977,131.04376 C 83.935272,136.63542 84.23642,142.24643 83.827332,147.83414 C 83.360779,148.11229 82.427658,148.66859 81.96109,148.94675 C 84.343552,135.17496 85.303497,119.41342 76.020996,107.94571 C 81.829971,102.56952 79.187637,95.48761 77.289749,89.003342 C 83.00827,74.208008 83.91098,58.13884 88.169632,42.992844 z "
       id="path32" />
    <path
       style="opacity:1;fill:none;stroke:#fabd1c;stroke-width:0.1;stroke-linecap:butt;stroke-linejoin:miter;stroke-miterlimit:10"
       d="M 89.345016,48.051071 C 92.480576,48.483368 93.22934,52.638336 95.173569,54.779175 C 94.498947,63.776978 101.81911,70.292526 101.71574,79.137787 C 102.3288,82.109253 99.099487,88.425949 103.85387,87.990402 C 106.50305,83.684662 105.67494,73.599808 111.87068,72.900375 C 116.03653,78.947647 119.04155,85.720139 123.14218,91.822556 C 121.80667,91.552979 120.47696,91.24855 119.12309,91.109024 C 114.28107,99.408691 111.10139,108.50876 109.93759,118.02502 C 112.88188,118.23242 117.87437,115.14038 118.13506,119.97226 C 121.64006,126.13354 110.43649,131.68466 114.12712,136.41254 C 118.08525,134.77039 122.28102,140.53758 125.3237,136.30495 C 131.35553,126.04649 135.51303,113.86664 134.23012,101.85097 C 136.49937,102.42423 138.73961,103.15503 140.82806,104.22931 C 137.01628,111.51775 144.20541,120.56137 137.87383,126.86594 C 135.79958,129.94919 132.5108,136.93263 137.31067,138.72386 C 142.01675,140.75794 137.56523,148.2178 143.00006,150.00537 C 149.65184,153.56746 144.43776,164.07677 149.97141,167.79965 C 153.80547,164.57796 155.19571,158.35857 158.25502,154.28529 C 161.74126,146.00125 151.93887,140.21649 152.07329,132.22664 C 157.24985,127.9371 159.4317,137.31972 160.33876,141.02986 C 164.53427,138.91635 162.90704,133.68523 159.99069,131.09325 C 158.98691,126.0484 156.3923,121.64989 152.59131,118.14436 C 151.55724,121.59108 146.68938,122.23068 145.42221,118.61031 C 145.64665,111.94406 141.71101,105.73538 142.99533,99.080872 C 143.83592,96.937775 144.71941,94.810516 145.75241,92.752335 C 145.45046,98.085022 143.03008,104.7821 148.95743,108.04192 C 153.82544,111.73146 154.82909,118.66913 160.13713,121.89273 C 163.41075,123.31651 161.27597,128.12913 164.9404,129.03752 C 169.09634,130.57745 165.65712,135.2717 165.05916,138.15654 C 163.91742,140.59172 162.49008,142.90399 161.59992,145.45052 C 161.27647,160.4218 147.89523,171.03694 146.83527,185.868 C 146.12236,190.00337 141.62054,188.94498 138.96774,187.11717 C 133.09523,186.99156 134.23936,179.18312 129.33087,177.70131 C 122.08661,174.6375 115.0419,170.32172 107.23071,169.03497 C 102.90359,173.72041 110.72928,177.59248 112.19421,181.72643 C 112.88419,187.10284 117.0661,190.73644 120.41087,194.60808 C 124.06795,197.894 128.60603,193.82263 132.72171,194.14092 C 135.1329,195.41846 135.24309,197.9546 134.23698,200.23146 C 133.28487,200.55428 132.33192,200.87228 131.37817,201.18549 C 131.23239,200.4211 130.94083,198.89232 130.79506,198.12793 C 120.14203,198.59024 109.54623,200.21524 98.862976,198.9606 C 100.58525,197.7105 102.29289,196.41701 103.75732,194.86513 C 99.574097,190.90221 103.42082,183.32849 97.041397,181.01334 C 87.445496,179.16977 77.612137,175.69449 69.693329,169.34645 C 64.371704,171.53337 54.411621,163.87772 53.62616,172.12662 C 52.566238,171.05777 51.59787,169.90352 50.667252,168.72644 C 50.57309,168.60457 50.384766,168.36083 50.290604,168.23895 L 49.763397,167.54642 C 52.52301,164.32059 56.594101,166.32608 60.035614,164.96298 C 55.573364,162.94942 57.00679,156.77872 61.918106,157.02884 C 69.497055,161.63945 72.488037,173.06349 82.082306,174.96616 C 84.552643,175.43872 87.93071,178.51504 89.904343,175.76143 C 90.905792,169.99704 79.66922,170.09927 83.034454,163.23233 C 86.103577,161.49597 93.059677,159.49101 86.023651,156.00099 C 81.378174,154.85043 83.605057,150.75896 83.827332,147.83414 C 84.23642,142.24643 83.935272,136.63542 84.013977,131.04376 C 85.478134,130.07236 86.910767,128.4742 88.85907,128.97061 C 94.884384,133.67151 100.79678,140.86787 109.01222,141.03728 C 112.45647,130.70155 100.06883,129.04684 96.469299,122.25854 C 90.362549,116.89055 85.509216,109.72107 81.174576,102.7935 C 81.746109,99.882431 81.235382,96.935593 80.942612,94.027145 C 83.831039,98.168213 81.593124,104.63362 86.618805,107.4391 C 93.376297,110.75243 100.23082,113.97386 105.96524,118.97965 C 108.80563,111.81859 101.10262,104.04187 103.43497,96.342606 C 105.45123,90.051712 94.784271,87.788925 97.055145,80.949203 C 97.43338,77.171188 93.694473,74.535309 90.227188,75.802521 C 88.381912,68.359741 84.494904,75.482544 83.021561,79.116653 C 83.538361,68.490738 86.670532,58.27388 89.345016,48.051071 z "
       id="path34" />
    <path
       style="opacity:1;fill:#fabd1c;fill-rule:nonzero;stroke:none"
       d="M 89.345016,48.051071 C 92.480576,48.483368 93.22934,52.638336 95.173569,54.779175 C 94.498947,63.776978 101.81911,70.292526 101.71574,79.137787 C 102.3288,82.109253 99.099487,88.425949 103.85387,87.990402 C 106.50305,83.684662 105.67494,73.599808 111.87068,72.900375 C 116.03653,78.947647 119.04155,85.720139 123.14218,91.822556 C 121.80667,91.552979 120.47696,91.24855 119.12309,91.109024 C 114.28107,99.408691 111.10139,108.50876 109.93759,118.02502 C 112.88188,118.23242 117.87437,115.14038 118.13506,119.97226 C 121.64006,126.13354 110.43649,131.68466 114.12712,136.41254 C 118.08525,134.77039 122.28102,140.53758 125.3237,136.30495 C 131.35553,126.04649 135.51303,113.86664 134.23012,101.85097 C 136.49937,102.42423 138.73961,103.15503 140.82806,104.22931 C 137.01628,111.51775 144.20541,120.56137 137.87383,126.86594 C 135.79958,129.94919 132.5108,136.93263 137.31067,138.72386 C 142.01675,140.75794 137.56523,148.2178 143.00006,150.00537 C 149.65184,153.56746 144.43776,164.07677 149.97141,167.79965 C 153.80547,164.57796 155.19571,158.35857 158.25502,154.28529 C 161.74126,146.00125 151.93887,140.21649 152.07329,132.22664 C 157.24985,127.9371 159.4317,137.31972 160.33876,141.02986 C 164.53427,138.91635 162.90704,133.68523 159.99069,131.09325 C 158.98691,126.0484 156.3923,121.64989 152.59131,118.14436 C 151.55724,121.59108 146.68938,122.23068 145.42221,118.61031 C 145.64665,111.94406 141.71101,105.73538 142.99533,99.080872 C 143.83592,96.937775 144.71941,94.810516 145.75241,92.752335 C 145.45046,98.085022 143.03008,104.7821 148.95743,108.04192 C 153.82544,111.73146 154.82909,118.66913 160.13713,121.89273 C 163.41075,123.31651 161.27597,128.12913 164.9404,129.03752 C 169.09634,130.57745 165.65712,135.2717 165.05916,138.15654 C 163.91742,140.59172 162.49008,142.90399 161.59992,145.45052 C 161.27647,160.4218 147.89523,171.03694 146.83527,185.868 C 146.12236,190.00337 141.62054,188.94498 138.96774,187.11717 C 133.09523,186.99156 134.23936,179.18312 129.33087,177.70131 C 122.08661,174.6375 115.0419,170.32172 107.23071,169.03497 C 102.90359,173.72041 110.72928,177.59248 112.19421,181.72643 C 112.88419,187.10284 117.0661,190.73644 120.41087,194.60808 C 124.06795,197.894 128.60603,193.82263 132.72171,194.14092 C 135.1329,195.41846 135.24309,197.9546 134.23698,200.23146 C 133.28487,200.55428 132.33192,200.87228 131.37817,201.18549 C 131.23239,200.4211 130.94083,198.89232 130.79506,198.12793 C 120.14203,198.59024 109.54623,200.21524 98.862976,198.9606 C 100.58525,197.7105 102.29289,196.41701 103.75732,194.86513 C 99.574097,190.90221 103.42082,183.32849 97.041397,181.01334 C 87.445496,179.16977 77.612137,175.69449 69.693329,169.34645 C 64.371704,171.53337 54.411621,163.87772 53.62616,172.12662 C 52.566238,171.05777 51.59787,169.90352 50.667252,168.72644 C 50.57309,168.60457 50.384766,168.36083 50.290604,168.23895 L 49.763397,167.54642 C 52.52301,164.32059 56.594101,166.32608 60.035614,164.96298 C 55.573364,162.94942 57.00679,156.77872 61.918106,157.02884 C 69.497055,161.63945 72.488037,173.06349 82.082306,174.96616 C 84.552643,175.43872 87.93071,178.51504 89.904343,175.76143 C 90.905792,169.99704 79.66922,170.09927 83.034454,163.23233 C 86.103577,161.49597 93.059677,159.49101 86.023651,156.00099 C 81.378174,154.85043 83.605057,150.75896 83.827332,147.83414 C 84.23642,142.24643 83.935272,136.63542 84.013977,131.04376 C 85.478134,130.07236 86.910767,128.4742 88.85907,128.97061 C 94.884384,133.67151 100.79678,140.86787 109.01222,141.03728 C 112.45647,130.70155 100.06883,129.04684 96.469299,122.25854 C 90.362549,116.89055 85.509216,109.72107 81.174576,102.7935 C 81.746109,99.882431 81.235382,96.935593 80.942612,94.027145 C 83.831039,98.168213 81.593124,104.63362 86.618805,107.4391 C 93.376297,110.75243 100.23082,113.97386 105.96524,118.97965 C 108.80563,111.81859 101.10262,104.04187 103.43497,96.342606 C 105.45123,90.051712 94.784271,87.788925 97.055145,80.949203 C 97.43338,77.171188 93.694473,74.535309 90.227188,75.802521 C 88.381912,68.359741 84.494904,75.482544 83.021561,79.116653 C 83.538361,68.490738 86.670532,58.27388 89.345016,48.051071 z "
       id="path36" />
    <path
       style="opacity:1;fill:none;stroke:#fad723;stroke-width:0.1;stroke-linecap:butt;stroke-linejoin:miter;stroke-miterlimit:10"
       d="M 95.173569,54.779175 C 99.627792,59.407654 100.96393,69.406967 109.12662,67.750168 C 109.51639,69.711594 110.73604,71.311035 111.87068,72.900375 C 105.67494,73.599808 106.50305,83.684662 103.85387,87.990402 C 99.099487,88.425949 102.3288,82.109253 101.71574,79.137787 C 101.81911,70.292526 94.498947,63.776978 95.173569,54.779175 z "
       id="path38" />
    <path
       style="opacity:1;fill:#fad723;fill-rule:nonzero;stroke:none"
       d="M 95.173569,54.779175 C 99.627792,59.407654 100.96393,69.406967 109.12662,67.750168 C 109.51639,69.711594 110.73604,71.311035 111.87068,72.900375 C 105.67494,73.599808 106.50305,83.684662 103.85387,87.990402 C 99.099487,88.425949 102.3288,82.109253 101.71574,79.137787 C 101.81911,70.292526 94.498947,63.776978 95.173569,54.779175 z "
       id="path40" />
    <path
       style="opacity:1;fill:none;stroke:#fa9e11;stroke-width:0.1;stroke-linecap:butt;stroke-linejoin:miter;stroke-miterlimit:10"
       d="M 163.7341,63.843124 C 165.49068,63.347488 167.21562,62.738678 168.97996,62.260788 C 170.9612,64.805801 169.1474,69.018494 172.21492,70.841949 C 176.24321,72.870483 168.10091,78.017242 174.99838,78.991623 C 183.43837,84.050201 168.95641,95.305481 176.23151,101.88371 C 179.0618,102.18384 179.85458,98.122864 182.00371,96.759247 C 188.6452,101.09328 179.28451,108.83862 179.28642,115.15149 C 180.36528,124.04485 170.98091,129.61546 173.64725,138.63792 C 165.8927,145.19351 164.22163,155.48802 160.36191,164.34842 C 158.92392,166.8279 160.89661,170.09932 163.85103,168.93675 C 170.3653,165.13438 176.63986,160.90225 183.10319,157.00461 C 187.09833,158.60307 187.41408,163.91916 184.7677,166.83154 C 176.02689,174.8829 163.9556,178.32573 154.66472,185.69556 C 152.04275,188.38676 156.812,191.36909 158.94586,188.96088 C 164.04483,184.8401 170.34975,182.7599 176.42812,180.53653 C 183.38196,176.54445 179.77623,186.76717 184.69496,187.25357 C 194.43182,187.80414 200.49046,196.71867 209.85852,198.36769 C 209.84901,199.97641 209.49838,201.5556 209.20633,203.13339 C 207.7533,204.80951 205.6243,205.61388 203.77226,206.74101 C 202.05948,207.6465 200.48344,208.78636 199.0403,210.07481 C 189.7263,210.70387 175.29222,205.88664 174.76216,195.07243 C 169.248,195.27962 160.41547,198.26245 163.22543,205.71208 C 164.33202,210.22757 174.14996,209.55949 170.99498,214.98648 C 167.6769,220.67973 176.69167,223.40485 180.86624,224.9677 C 185.49394,221.27454 192.60585,218.7618 197.9745,221.15407 C 195.83841,226.53598 186.89261,225.53194 185.71948,231.98 C 181.24263,232.15671 177.59712,226.58469 173.19871,229.05287 C 174.35759,234.35956 177.24797,239.74095 182.70695,241.52495 C 184.11156,245.37752 178.08247,244.38925 175.79674,245.37749 C 172.37662,243.90004 168.86372,242.61487 165.21916,241.82129 C 151.55714,232.61287 144.46979,210.5748 152.8136,196.27524 C 150.29123,191.82616 144.87874,194.28178 145.48454,199.07024 C 142.56667,194.53049 137.75932,199.08437 134.23698,200.23146 C 135.24309,197.9546 135.1329,195.41846 132.72171,194.14092 C 128.60603,193.82263 124.06795,197.894 120.41087,194.60808 C 117.0661,190.73644 112.88419,187.10284 112.19421,181.72643 C 110.72928,177.59248 102.90359,173.72041 107.23071,169.03497 C 115.0419,170.32172 122.08661,174.6375 129.33087,177.70131 C 134.23936,179.18312 133.09523,186.99156 138.96774,187.11717 C 141.62054,188.94498 146.12236,190.00337 146.83527,185.868 C 147.89523,171.03694 161.27647,160.4218 161.59992,145.45052 C 162.49008,142.90399 163.91742,140.59172 165.05916,138.15654 C 166.44482,136.84624 168.21861,135.65189 168.49854,133.60339 C 168.69663,124.58997 172.82487,116.15619 172.93633,107.16042 C 170.0737,105.94437 165.4931,105.64488 163.76294,108.77957 C 161.20393,110.3809 161.22266,116.10152 157.3033,114.84621 C 153.86316,108.10866 152.5979,97.951492 158.68033,92.52858 C 158.76149,90.879257 158.9238,87.580627 159.00494,85.93132 C 155.14879,85.654129 156.19037,92.663925 151.99986,92.07132 C 148.89888,92.667435 148.87044,88.87587 148.60806,86.793182 C 152.6808,78.606522 155.99162,69.268875 163.7341,63.843124 z "
       id="path42" />
    <path
       style="opacity:1;fill:#fa9e11;fill-rule:nonzero;stroke:none"
       d="M 163.7341,63.843124 C 165.49068,63.347488 167.21562,62.738678 168.97996,62.260788 C 170.9612,64.805801 169.1474,69.018494 172.21492,70.841949 C 176.24321,72.870483 168.10091,78.017242 174.99838,78.991623 C 183.43837,84.050201 168.95641,95.305481 176.23151,101.88371 C 179.0618,102.18384 179.85458,98.122864 182.00371,96.759247 C 188.6452,101.09328 179.28451,108.83862 179.28642,115.15149 C 180.36528,124.04485 170.98091,129.61546 173.64725,138.63792 C 165.8927,145.19351 164.22163,155.48802 160.36191,164.34842 C 158.92392,166.8279 160.89661,170.09932 163.85103,168.93675 C 170.3653,165.13438 176.63986,160.90225 183.10319,157.00461 C 187.09833,158.60307 187.41408,163.91916 184.7677,166.83154 C 176.02689,174.8829 163.9556,178.32573 154.66472,185.69556 C 152.04275,188.38676 156.812,191.36909 158.94586,188.96088 C 164.04483,184.8401 170.34975,182.7599 176.42812,180.53653 C 183.38196,176.54445 179.77623,186.76717 184.69496,187.25357 C 194.43182,187.80414 200.49046,196.71867 209.85852,198.36769 C 209.84901,199.97641 209.49838,201.5556 209.20633,203.13339 C 207.7533,204.80951 205.6243,205.61388 203.77226,206.74101 C 202.05948,207.6465 200.48344,208.78636 199.0403,210.07481 C 189.7263,210.70387 175.29222,205.88664 174.76216,195.07243 C 169.248,195.27962 160.41547,198.26245 163.22543,205.71208 C 164.33202,210.22757 174.14996,209.55949 170.99498,214.98648 C 167.6769,220.67973 176.69167,223.40485 180.86624,224.9677 C 185.49394,221.27454 192.60585,218.7618 197.9745,221.15407 C 195.83841,226.53598 186.89261,225.53194 185.71948,231.98 C 181.24263,232.15671 177.59712,226.58469 173.19871,229.05287 C 174.35759,234.35956 177.24797,239.74095 182.70695,241.52495 C 184.11156,245.37752 178.08247,244.38925 175.79674,245.37749 C 172.37662,243.90004 168.86372,242.61487 165.21916,241.82129 C 151.55714,232.61287 144.46979,210.5748 152.8136,196.27524 C 150.29123,191.82616 144.87874,194.28178 145.48454,199.07024 C 142.56667,194.53049 137.75932,199.08437 134.23698,200.23146 C 135.24309,197.9546 135.1329,195.41846 132.72171,194.14092 C 128.60603,193.82263 124.06795,197.894 120.41087,194.60808 C 117.0661,190.73644 112.88419,187.10284 112.19421,181.72643 C 110.72928,177.59248 102.90359,173.72041 107.23071,169.03497 C 115.0419,170.32172 122.08661,174.6375 129.33087,177.70131 C 134.23936,179.18312 133.09523,186.99156 138.96774,187.11717 C 141.62054,188.94498 146.12236,190.00337 146.83527,185.868 C 147.89523,171.03694 161.27647,160.4218 161.59992,145.45052 C 162.49008,142.90399 163.91742,140.59172 165.05916,138.15654 C 166.44482,136.84624 168.21861,135.65189 168.49854,133.60339 C 168.69663,124.58997 172.82487,116.15619 172.93633,107.16042 C 170.0737,105.94437 165.4931,105.64488 163.76294,108.77957 C 161.20393,110.3809 161.22266,116.10152 157.3033,114.84621 C 153.86316,108.10866 152.5979,97.951492 158.68033,92.52858 C 158.76149,90.879257 158.9238,87.580627 159.00494,85.93132 C 155.14879,85.654129 156.19037,92.663925 151.99986,92.07132 C 148.89888,92.667435 148.87044,88.87587 148.60806,86.793182 C 152.6808,78.606522 155.99162,69.268875 163.7341,63.843124 z "
       id="path44" />
    <path
       style="opacity:1;fill:none;stroke:#faa817;stroke-width:0.1;stroke-linecap:butt;stroke-linejoin:miter;stroke-miterlimit:10"
       d="M 83.021561,79.116653 C 84.494904,75.482544 88.381912,68.359741 90.227188,75.802521 C 93.694473,74.535309 97.43338,77.171188 97.055145,80.949203 C 94.784271,87.788925 105.45123,90.051712 103.43497,96.342606 C 101.10262,104.04187 108.80563,111.81859 105.96524,118.97965 C 100.23082,113.97386 93.376297,110.75243 86.618805,107.4391 C 81.593124,104.63362 83.831039,98.168213 80.942612,94.027145 C 77.226791,89.381424 80.744354,83.699097 83.021561,79.116653 z "
       id="path46" />
    <path
       style="opacity:1;fill:#faa817;fill-rule:nonzero;stroke:none"
       d="M 83.021561,79.116653 C 84.494904,75.482544 88.381912,68.359741 90.227188,75.802521 C 93.694473,74.535309 97.43338,77.171188 97.055145,80.949203 C 94.784271,87.788925 105.45123,90.051712 103.43497,96.342606 C 101.10262,104.04187 108.80563,111.81859 105.96524,118.97965 C 100.23082,113.97386 93.376297,110.75243 86.618805,107.4391 C 81.593124,104.63362 83.831039,98.168213 80.942612,94.027145 C 77.226791,89.381424 80.744354,83.699097 83.021561,79.116653 z "
       id="path48" />
    <path
       style="opacity:1;fill:none;stroke:#fdab17;stroke-width:0.1;stroke-linecap:butt;stroke-linejoin:miter;stroke-miterlimit:10"
       d="M 151.99986,92.07132 C 156.19037,92.663925 155.14879,85.654129 159.00494,85.93132 C 158.9238,87.580627 158.76149,90.879257 158.68033,92.52858 C 152.5979,97.951492 153.86316,108.10866 157.3033,114.84621 C 161.22266,116.10152 161.20393,110.3809 163.76294,108.77957 C 165.4931,105.64488 170.0737,105.94437 172.93633,107.16042 C 172.82487,116.15619 168.69663,124.58997 168.49854,133.60339 C 168.21861,135.65189 166.44482,136.84624 165.05916,138.15654 C 165.65712,135.2717 169.09634,130.57745 164.9404,129.03752 C 161.27597,128.12913 163.41075,123.31651 160.13713,121.89273 C 154.82909,118.66913 153.82544,111.73146 148.95743,108.04192 C 143.03008,104.7821 145.45046,98.085022 145.75241,92.752335 C 146.64787,90.739044 147.65214,88.777527 148.60806,86.793182 C 148.87044,88.87587 148.89888,92.667435 151.99986,92.07132 z "
       id="path50" />
    <path
       style="opacity:1;fill:#fdab17;fill-rule:nonzero;stroke:none"
       d="M 151.99986,92.07132 C 156.19037,92.663925 155.14879,85.654129 159.00494,85.93132 C 158.9238,87.580627 158.76149,90.879257 158.68033,92.52858 C 152.5979,97.951492 153.86316,108.10866 157.3033,114.84621 C 161.22266,116.10152 161.20393,110.3809 163.76294,108.77957 C 165.4931,105.64488 170.0737,105.94437 172.93633,107.16042 C 172.82487,116.15619 168.69663,124.58997 168.49854,133.60339 C 168.21861,135.65189 166.44482,136.84624 165.05916,138.15654 C 165.65712,135.2717 169.09634,130.57745 164.9404,129.03752 C 161.27597,128.12913 163.41075,123.31651 160.13713,121.89273 C 154.82909,118.66913 153.82544,111.73146 148.95743,108.04192 C 143.03008,104.7821 145.45046,98.085022 145.75241,92.752335 C 146.64787,90.739044 147.65214,88.777527 148.60806,86.793182 C 148.87044,88.87587 148.89888,92.667435 151.99986,92.07132 z "
       id="path52" />
    <path
       style="opacity:1;fill:none;stroke:#fdab19;stroke-width:0.1;stroke-linecap:butt;stroke-linejoin:miter;stroke-miterlimit:10"
       d="M 119.12309,91.109024 C 120.47696,91.24855 121.80667,91.552979 123.14218,91.822556 C 125.95668,95.345016 128.85083,99.002747 132.92215,101.13518 C 133.24915,101.31412 133.90312,101.67203 134.23012,101.85097 C 135.51303,113.86664 131.35553,126.04649 125.3237,136.30495 C 122.28102,140.53758 118.08525,134.77039 114.12712,136.41254 C 110.43649,131.68466 121.64006,126.13354 118.13506,119.97226 C 117.87437,115.14038 112.88188,118.23242 109.93759,118.02502 C 111.10139,108.50876 114.28107,99.408691 119.12309,91.109024 z "
       id="path54" />
    <path
       style="opacity:1;fill:#fdab19;fill-rule:nonzero;stroke:none"
       d="M 119.12309,91.109024 C 120.47696,91.24855 121.80667,91.552979 123.14218,91.822556 C 125.95668,95.345016 128.85083,99.002747 132.92215,101.13518 C 133.24915,101.31412 133.90312,101.67203 134.23012,101.85097 C 135.51303,113.86664 131.35553,126.04649 125.3237,136.30495 C 122.28102,140.53758 118.08525,134.77039 114.12712,136.41254 C 110.43649,131.68466 121.64006,126.13354 118.13506,119.97226 C 117.87437,115.14038 112.88188,118.23242 109.93759,118.02502 C 111.10139,108.50876 114.28107,99.408691 119.12309,91.109024 z "
       id="path56" />
    <path
       style="opacity:1;fill:none;stroke:#fda319;stroke-width:0.1;stroke-linecap:butt;stroke-linejoin:miter;stroke-miterlimit:10"
       d="M 211.29248,105.21167 C 210.00105,100.08575 219.31274,90.686813 221.5761,98.183624 C 217.34834,107.28018 217.73288,117.93469 210.90817,125.89923 C 207.40971,130.22189 202.29002,132.00072 204.78654,122.84338 C 199.89719,123.01363 197.89371,128.04733 195.44246,131.45337 C 190.86662,134.98036 184.99696,138.3804 179.06346,135.92464 C 184.05624,125.69392 196.43358,121.62866 200.1844,111.00291 C 204.78932,115.10254 212.52119,111.66962 211.29248,105.21167 z "
       id="path58" />
    <path
       style="opacity:1;fill:#fda319;fill-rule:nonzero;stroke:none"
       d="M 211.29248,105.21167 C 210.00105,100.08575 219.31274,90.686813 221.5761,98.183624 C 217.34834,107.28018 217.73288,117.93469 210.90817,125.89923 C 207.40971,130.22189 202.29002,132.00072 204.78654,122.84338 C 199.89719,123.01363 197.89371,128.04733 195.44246,131.45337 C 190.86662,134.98036 184.99696,138.3804 179.06346,135.92464 C 184.05624,125.69392 196.43358,121.62866 200.1844,111.00291 C 204.78932,115.10254 212.52119,111.66962 211.29248,105.21167 z "
       id="path60" />
    <path
       style="opacity:1;fill:none;stroke:#fdc723;stroke-width:0.1;stroke-linecap:butt;stroke-linejoin:miter;stroke-miterlimit:10"
       d="M 132.92215,101.13518 C 136.37303,100.94122 139.95152,100.91333 142.99533,99.080872 C 141.71101,105.73538 145.64665,111.94406 145.42221,118.61031 C 146.68938,122.23068 151.55724,121.59108 152.59131,118.14436 C 156.3923,121.64989 158.98691,126.0484 159.99069,131.09325 C 162.90704,133.68523 164.53427,138.91635 160.33876,141.02986 C 159.4317,137.31972 157.24985,127.9371 152.07329,132.22664 C 151.93887,140.21649 161.74126,146.00125 158.25502,154.28529 C 155.19571,158.35857 153.80547,164.57796 149.97141,167.79965 C 144.43776,164.07677 149.65184,153.56746 143.00006,150.00537 C 137.56523,148.2178 142.01675,140.75794 137.31067,138.72386 C 132.5108,136.93263 135.79958,129.94919 137.87383,126.86594 C 144.20541,120.56137 137.01628,111.51775 140.82806,104.22931 C 138.73961,103.15503 136.49937,102.42423 134.23012,101.85097 C 133.90312,101.67203 133.24915,101.31412 132.92215,101.13518 z "
       id="path62" />
    <path
       style="opacity:1;fill:#fdc723;fill-rule:nonzero;stroke:none"
       d="M 132.92215,101.13518 C 136.37303,100.94122 139.95152,100.91333 142.99533,99.080872 C 141.71101,105.73538 145.64665,111.94406 145.42221,118.61031 C 146.68938,122.23068 151.55724,121.59108 152.59131,118.14436 C 156.3923,121.64989 158.98691,126.0484 159.99069,131.09325 C 162.90704,133.68523 164.53427,138.91635 160.33876,141.02986 C 159.4317,137.31972 157.24985,127.9371 152.07329,132.22664 C 151.93887,140.21649 161.74126,146.00125 158.25502,154.28529 C 155.19571,158.35857 153.80547,164.57796 149.97141,167.79965 C 144.43776,164.07677 149.65184,153.56746 143.00006,150.00537 C 137.56523,148.2178 142.01675,140.75794 137.31067,138.72386 C 132.5108,136.93263 135.79958,129.94919 137.87383,126.86594 C 144.20541,120.56137 137.01628,111.51775 140.82806,104.22931 C 138.73961,103.15503 136.49937,102.42423 134.23012,101.85097 C 133.90312,101.67203 133.24915,101.31412 132.92215,101.13518 z "
       id="path64" />
    <path
       style="opacity:1;fill:none;stroke:#fad926;stroke-width:0.1;stroke-linecap:butt;stroke-linejoin:miter;stroke-miterlimit:10"
       d="M 81.174576,102.7935 C 85.509216,109.72107 90.362549,116.89055 96.469299,122.25854 C 100.06883,129.04684 112.45647,130.70155 109.01222,141.03728 C 100.79678,140.86787 94.884384,133.67151 88.85907,128.97061 C 86.910767,128.4742 85.478134,130.07236 84.013977,131.04376 C 84.001801,126.73576 84.056244,122.42306 83.877289,118.12311 C 82.025208,112.82192 74.934814,107.79894 81.174576,102.7935 z "
       id="path66" />
    <path
       style="opacity:1;fill:#fad926;fill-rule:nonzero;stroke:none"
       d="M 81.174576,102.7935 C 85.509216,109.72107 90.362549,116.89055 96.469299,122.25854 C 100.06883,129.04684 112.45647,130.70155 109.01222,141.03728 C 100.79678,140.86787 94.884384,133.67151 88.85907,128.97061 C 86.910767,128.4742 85.478134,130.07236 84.013977,131.04376 C 84.001801,126.73576 84.056244,122.42306 83.877289,118.12311 C 82.025208,112.82192 74.934814,107.79894 81.174576,102.7935 z "
       id="path68" />
    <path
       style="opacity:1;fill:none;stroke:#faa314;stroke-width:0.1;stroke-linecap:butt;stroke-linejoin:miter;stroke-miterlimit:10"
       d="M 258.30008,122.22844 C 260.91228,121.42969 263.67912,121.47301 266.33571,120.87566 C 268.92511,120.95558 274.10391,121.11543 276.69331,121.19537 C 280.17201,123.49533 275.53325,126.83373 274.23105,129.1328 C 265.79733,130.95344 262.67136,139.81828 260.10423,147.02634 C 261.34056,154.53836 253.28436,160.79071 246.25397,159.88986 C 243.06624,157.85692 246.37198,151.70679 241.01469,151.9257 C 237.48471,153.68259 232.41986,156.18012 231.02914,159.78996 C 236.31818,162.35757 241.94896,164.69467 245.20471,169.95488 C 240.19246,178.83559 228.7558,179.30812 220.64755,175.27727 C 215.99472,169.22211 224.89557,168.64918 225.90036,165.14439 C 220.43219,160.37033 213.46668,167.02098 208.77788,169.81499 C 200.07854,173.3141 206.57819,165.29625 203.99158,162.02828 C 201.39986,157.76106 205.17569,152.75403 209.04019,150.87529 C 209.57434,155.15306 204.66808,165.63347 213.48235,162.50406 C 220.19569,157.9612 228.94101,155.26994 232.29997,147.17081 C 240.12122,150.00322 245.645,141.99976 252.38898,139.44704 C 258.91,136.29567 253.83948,126.8036 258.30008,122.22844 z "
       id="path70" />
    <path
       style="opacity:1;fill:#faa314;fill-rule:nonzero;stroke:none"
       d="M 258.30008,122.22844 C 260.91228,121.42969 263.67912,121.47301 266.33571,120.87566 C 268.92511,120.95558 274.10391,121.11543 276.69331,121.19537 C 280.17201,123.49533 275.53325,126.83373 274.23105,129.1328 C 265.79733,130.95344 262.67136,139.81828 260.10423,147.02634 C 261.34056,154.53836 253.28436,160.79071 246.25397,159.88986 C 243.06624,157.85692 246.37198,151.70679 241.01469,151.9257 C 237.48471,153.68259 232.41986,156.18012 231.02914,159.78996 C 236.31818,162.35757 241.94896,164.69467 245.20471,169.95488 C 240.19246,178.83559 228.7558,179.30812 220.64755,175.27727 C 215.99472,169.22211 224.89557,168.64918 225.90036,165.14439 C 220.43219,160.37033 213.46668,167.02098 208.77788,169.81499 C 200.07854,173.3141 206.57819,165.29625 203.99158,162.02828 C 201.39986,157.76106 205.17569,152.75403 209.04019,150.87529 C 209.57434,155.15306 204.66808,165.63347 213.48235,162.50406 C 220.19569,157.9612 228.94101,155.26994 232.29997,147.17081 C 240.12122,150.00322 245.645,141.99976 252.38898,139.44704 C 258.91,136.29567 253.83948,126.8036 258.30008,122.22844 z "
       id="path72" />
    <path
       style="opacity:1;fill:none;stroke:#faca23;stroke-width:0.1;stroke-linecap:butt;stroke-linejoin:miter;stroke-miterlimit:10"
       d="M 209.87254,130.9973 C 215.91284,135.59665 222.11517,126.67168 228.77043,126.69298 C 227.3082,130.11118 226.54283,133.77081 225.25879,137.24283 C 220.85852,138.19473 216.96458,139.94786 217.44801,145.53798 C 216.11379,149.5146 211.9458,144.55458 209.29146,145.14442 C 205.4109,149.04668 203.32117,154.52553 199.11774,158.07806 C 196.96117,154.18424 184.87062,155.73868 190.99333,150.98825 C 196.48906,148.18861 196.79474,141.75154 200.42331,137.42127 C 203.7095,134.5358 208.3105,136.42828 212.00177,137.60255 C 213.89905,135.7484 208.99152,133.62956 209.87254,130.9973 z "
       id="path74" />
    <path
       style="opacity:1;fill:#faca23;fill-rule:nonzero;stroke:none"
       d="M 209.87254,130.9973 C 215.91284,135.59665 222.11517,126.67168 228.77043,126.69298 C 227.3082,130.11118 226.54283,133.77081 225.25879,137.24283 C 220.85852,138.19473 216.96458,139.94786 217.44801,145.53798 C 216.11379,149.5146 211.9458,144.55458 209.29146,145.14442 C 205.4109,149.04668 203.32117,154.52553 199.11774,158.07806 C 196.96117,154.18424 184.87062,155.73868 190.99333,150.98825 C 196.48906,148.18861 196.79474,141.75154 200.42331,137.42127 C 203.7095,134.5358 208.3105,136.42828 212.00177,137.60255 C 213.89905,135.7484 208.99152,133.62956 209.87254,130.9973 z "
       id="path76" />
    <path
       style="opacity:1;fill:none;stroke:#fad133;stroke-width:0.1;stroke-linecap:butt;stroke-linejoin:miter;stroke-miterlimit:10"
       d="M 81.96109,148.94675 C 82.427658,148.66859 83.360779,148.11229 83.827332,147.83414 C 83.605057,150.75896 81.378174,154.85043 86.023651,156.00099 C 93.059677,159.49101 86.103577,161.49597 83.034454,163.23233 C 79.66922,170.09927 90.905792,169.99704 89.904343,175.76143 C 87.93071,178.51504 84.552643,175.43872 82.082306,174.96616 C 72.488037,173.06349 69.497055,161.63945 61.918106,157.02884 C 57.00679,156.77872 55.573364,162.94942 60.035614,164.96298 C 56.594101,166.32608 52.52301,164.32059 49.763397,167.54642 C 48.492325,165.98845 46.574982,164.49597 46.988297,162.22855 C 52.49527,159.93243 57.09758,155.35907 63.170959,154.55086 C 67.903137,156.01421 67.637421,162.44876 72.362091,163.72224 C 76.947861,165.11673 81.467514,161.50494 82.725952,157.31547 C 81.062637,155.45723 78.524536,153.80586 79.736328,150.96555 C 80.467987,150.2809 81.209579,149.60797 81.96109,148.94675 z "
       id="path78" />
    <path
       style="opacity:1;fill:#fad133;fill-rule:nonzero;stroke:none"
       d="M 81.96109,148.94675 C 82.427658,148.66859 83.360779,148.11229 83.827332,147.83414 C 83.605057,150.75896 81.378174,154.85043 86.023651,156.00099 C 93.059677,159.49101 86.103577,161.49597 83.034454,163.23233 C 79.66922,170.09927 90.905792,169.99704 89.904343,175.76143 C 87.93071,178.51504 84.552643,175.43872 82.082306,174.96616 C 72.488037,173.06349 69.497055,161.63945 61.918106,157.02884 C 57.00679,156.77872 55.573364,162.94942 60.035614,164.96298 C 56.594101,166.32608 52.52301,164.32059 49.763397,167.54642 C 48.492325,165.98845 46.574982,164.49597 46.988297,162.22855 C 52.49527,159.93243 57.09758,155.35907 63.170959,154.55086 C 67.903137,156.01421 67.637421,162.44876 72.362091,163.72224 C 76.947861,165.11673 81.467514,161.50494 82.725952,157.31547 C 81.062637,155.45723 78.524536,153.80586 79.736328,150.96555 C 80.467987,150.2809 81.209579,149.60797 81.96109,148.94675 z "
       id="path80" />
    <path
       style="opacity:1;fill:none;stroke:#fae651;stroke-width:0.1;stroke-linecap:butt;stroke-linejoin:miter;stroke-miterlimit:10"
       d="M 62.911194,153.74915 C 68.532837,152.89786 74.226974,152.44922 79.736328,150.96555 C 78.524536,153.80586 81.062637,155.45723 82.725952,157.31547 C 81.467514,161.50494 76.947861,165.11673 72.362091,163.72224 C 67.637421,162.44876 67.903137,156.01421 63.170959,154.55086 L 62.911194,153.74915 z "
       id="path82" />
    <path
       style="opacity:1;fill:#fae651;fill-rule:nonzero;stroke:none"
       d="M 62.911194,153.74915 C 68.532837,152.89786 74.226974,152.44922 79.736328,150.96555 C 78.524536,153.80586 81.062637,155.45723 82.725952,157.31547 C 81.467514,161.50494 76.947861,165.11673 72.362091,163.72224 C 67.637421,162.44876 67.903137,156.01421 63.170959,154.55086 L 62.911194,153.74915 z "
       id="path84" />
    <path
       style="opacity:1;fill:none;stroke:#fad166;stroke-width:0.1;stroke-linecap:butt;stroke-linejoin:miter;stroke-miterlimit:10"
       d="M 43.873489,162.12671 C 49.744919,158.56833 55.861588,154.33945 62.911194,153.74915 L 63.170959,154.55086 C 57.09758,155.35907 52.49527,159.93243 46.988297,162.22855 C 46.574982,164.49597 48.492325,165.98845 49.763397,167.54642 L 50.290604,168.23895 C 50.384766,168.36083 50.57309,168.60457 50.667252,168.72644 C 51.59787,169.90352 52.566238,171.05777 53.62616,172.12662 C 58.371674,175.03346 59.955444,180.8363 63.691376,184.23106 C 71.063736,185.09563 76.861557,189.98334 81.664276,195.27043 C 84.730911,201.58208 93.157028,198.36635 98.862976,198.9606 C 109.54623,200.21524 120.14203,198.59024 130.79506,198.12793 C 130.94083,198.89232 131.23239,200.4211 131.37817,201.18549 C 130.89461,201.3959 129.92747,201.81674 129.44392,202.02716 C 117.23239,197.34958 101.84297,203.52454 88.509125,200.62942 C 83.929565,201.45276 80.992737,198.35078 78.987381,194.94356 C 78.398148,194.24268 77.773544,193.57747 77.113541,192.94789 C 73.040421,188.23041 66.60672,187.34468 61.324005,184.63145 C 58.802414,180.85571 56.935669,176.50458 52.898163,174.04912 C 51.393753,172.92503 50.237289,171.44012 49.070084,169.99242 C 47.177399,167.50526 44.424911,165.37293 43.873489,162.12671 z "
       id="path86" />
    <path
       style="opacity:1;fill:#fad166;fill-rule:nonzero;stroke:none"
       d="M 43.873489,162.12671 C 49.744919,158.56833 55.861588,154.33945 62.911194,153.74915 L 63.170959,154.55086 C 57.09758,155.35907 52.49527,159.93243 46.988297,162.22855 C 46.574982,164.49597 48.492325,165.98845 49.763397,167.54642 L 50.290604,168.23895 C 50.384766,168.36083 50.57309,168.60457 50.667252,168.72644 C 51.59787,169.90352 52.566238,171.05777 53.62616,172.12662 C 58.371674,175.03346 59.955444,180.8363 63.691376,184.23106 C 71.063736,185.09563 76.861557,189.98334 81.664276,195.27043 C 84.730911,201.58208 93.157028,198.36635 98.862976,198.9606 C 109.54623,200.21524 120.14203,198.59024 130.79506,198.12793 C 130.94083,198.89232 131.23239,200.4211 131.37817,201.18549 C 130.89461,201.3959 129.92747,201.81674 129.44392,202.02716 C 117.23239,197.34958 101.84297,203.52454 88.509125,200.62942 C 83.929565,201.45276 80.992737,198.35078 78.987381,194.94356 C 78.398148,194.24268 77.773544,193.57747 77.113541,192.94789 C 73.040421,188.23041 66.60672,187.34468 61.324005,184.63145 C 58.802414,180.85571 56.935669,176.50458 52.898163,174.04912 C 51.393753,172.92503 50.237289,171.44012 49.070084,169.99242 C 47.177399,167.50526 44.424911,165.37293 43.873489,162.12671 z "
       id="path88" />
    <path
       style="opacity:1;fill:none;stroke:#f5c7ae;stroke-width:0.1;stroke-linecap:butt;stroke-linejoin:miter;stroke-miterlimit:10"
       d="M 7.282669,172.69734 C 6.004333,164.96493 17.411697,162.7487 19.90802,170.1534 C 19.418732,170.1106 18.44014,170.02501 17.950851,169.98221 L 17.042221,169.87318 C 16.749832,169.36774 16.165039,168.35683 15.872635,167.85138 C 10.702957,163.68802 6.563309,171.69659 10.739319,175.15352 C 18.968384,185.68904 27.419678,196.05486 34.875763,207.20201 C 38.52153,226.4167 41.678787,246.03259 41.117554,265.80934 C 43.815659,269.54567 45.998108,261.34279 45.203247,260.0342 C 46.378845,244.63046 43.007614,229.2365 41.048248,213.98422 C 38.567429,209.23291 43.201981,207.57176 46.155014,206.01152 C 48.029068,205.92747 49.903015,206.0784 51.769775,206.2424 C 58.244476,209.56906 65.833481,210.01114 72.762909,212.21062 C 86.362228,214.49625 100.58617,216.38126 114.00336,212.00768 C 118.97057,212.7341 123.98837,211.86536 128.05861,208.9239 C 132.03311,206.28659 136.72801,205.11153 140.82927,202.69591 C 144.48401,201.76562 147.81509,205.90268 144.1283,208.29993 C 144.89723,205.19957 143.09869,202.23912 140.1382,204.76929 C 125.38536,214.99518 106.23068,215.02385 88.988571,216.02254 C 75.338593,214.62991 61.52655,212.6684 48.782379,207.41647 C 44.257416,207.70514 39.101379,211.01283 42.665649,216.32033 C 45.739456,232.72417 47.135376,249.10039 46.952347,265.85648 C 45.960007,268.23097 42.873932,270.47957 40.708038,268.30667 C 37.566284,259.07997 41.700043,248.95558 38.433273,239.67619 C 35.596039,225.93556 38.102631,208.90517 26.298798,198.70421 C 21.713486,188.78067 12.267639,182.42665 7.282669,172.69734 z "
       id="path90" />
    <path
       style="opacity:1;fill:#f5c7ae;fill-rule:nonzero;stroke:none"
       d="M 7.282669,172.69734 C 6.004333,164.96493 17.411697,162.7487 19.90802,170.1534 C 19.418732,170.1106 18.44014,170.02501 17.950851,169.98221 L 17.042221,169.87318 C 16.749832,169.36774 16.165039,168.35683 15.872635,167.85138 C 10.702957,163.68802 6.563309,171.69659 10.739319,175.15352 C 18.968384,185.68904 27.419678,196.05486 34.875763,207.20201 C 38.52153,226.4167 41.678787,246.03259 41.117554,265.80934 C 43.815659,269.54567 45.998108,261.34279 45.203247,260.0342 C 46.378845,244.63046 43.007614,229.2365 41.048248,213.98422 C 38.567429,209.23291 43.201981,207.57176 46.155014,206.01152 C 48.029068,205.92747 49.903015,206.0784 51.769775,206.2424 C 58.244476,209.56906 65.833481,210.01114 72.762909,212.21062 C 86.362228,214.49625 100.58617,216.38126 114.00336,212.00768 C 118.97057,212.7341 123.98837,211.86536 128.05861,208.9239 C 132.03311,206.28659 136.72801,205.11153 140.82927,202.69591 C 144.48401,201.76562 147.81509,205.90268 144.1283,208.29993 C 144.89723,205.19957 143.09869,202.23912 140.1382,204.76929 C 125.38536,214.99518 106.23068,215.02385 88.988571,216.02254 C 75.338593,214.62991 61.52655,212.6684 48.782379,207.41647 C 44.257416,207.70514 39.101379,211.01283 42.665649,216.32033 C 45.739456,232.72417 47.135376,249.10039 46.952347,265.85648 C 45.960007,268.23097 42.873932,270.47957 40.708038,268.30667 C 37.566284,259.07997 41.700043,248.95558 38.433273,239.67619 C 35.596039,225.93556 38.102631,208.90517 26.298798,198.70421 C 21.713486,188.78067 12.267639,182.42665 7.282669,172.69734 z "
       id="path92" />
    <path
       style="opacity:1;fill:none;stroke:#e69766;stroke-width:0.1;stroke-linecap:butt;stroke-linejoin:miter;stroke-miterlimit:10"
       d="M 10.739319,175.15352 C 6.563309,171.69659 10.702957,163.68802 15.872635,167.85138 C 11.464767,167.08174 9.46608,170.73894 10.739319,175.15352 z "
       id="path94" />
    <path
       style="opacity:1;fill:#e69766;fill-rule:nonzero;stroke:none"
       d="M 10.739319,175.15352 C 6.563309,171.69659 10.702957,163.68802 15.872635,167.85138 C 11.464767,167.08174 9.46608,170.73894 10.739319,175.15352 z "
       id="path96" />
    <path
       style="opacity:1;fill:none;stroke:#b56857;stroke-width:0.1;stroke-linecap:butt;stroke-linejoin:miter;stroke-miterlimit:10"
       d="M 10.739319,175.15352 C 9.46608,170.73894 11.464767,167.08174 15.872635,167.85138 C 16.165039,168.35683 16.749832,169.36774 17.042221,169.87318 L 15.969604,169.95085 C 13.68811,169.51166 12.388626,170.89313 12.009033,173.02122 C 14.647766,177.75638 17.976578,182.21573 21.811157,186.07014 C 26.697662,192.87022 32.877777,199.32687 35.990616,207.12782 L 34.875763,207.20201 C 27.419678,196.05486 18.968384,185.68904 10.739319,175.15352 z "
       id="path98" />
    <path
       style="opacity:1;fill:#b56857;fill-rule:nonzero;stroke:none"
       d="M 10.739319,175.15352 C 9.46608,170.73894 11.464767,167.08174 15.872635,167.85138 C 16.165039,168.35683 16.749832,169.36774 17.042221,169.87318 L 15.969604,169.95085 C 13.68811,169.51166 12.388626,170.89313 12.009033,173.02122 C 14.647766,177.75638 17.976578,182.21573 21.811157,186.07014 C 26.697662,192.87022 32.877777,199.32687 35.990616,207.12782 L 34.875763,207.20201 C 27.419678,196.05486 18.968384,185.68904 10.739319,175.15352 z "
       id="path100" />
    <path
       style="opacity:1;fill:none;stroke:#f5c533;stroke-width:0.1;stroke-linecap:butt;stroke-linejoin:miter;stroke-miterlimit:10"
       d="M 50.290604,168.23895 C 50.384766,168.36083 50.57309,168.60457 50.667252,168.72644 C 50.57309,168.60457 50.384766,168.36083 50.290604,168.23895 z "
       id="path102" />
    <path
       style="opacity:1;fill:#f5c533;fill-rule:nonzero;stroke:none"
       d="M 50.290604,168.23895 C 50.384766,168.36083 50.57309,168.60457 50.667252,168.72644 C 50.57309,168.60457 50.384766,168.36083 50.290604,168.23895 z "
       id="path104" />
    <path
       style="opacity:1;fill:none;stroke:#f8a314;stroke-width:0.1;stroke-linecap:butt;stroke-linejoin:miter;stroke-miterlimit:10"
       d="M 53.62616,172.12662 C 54.411621,163.87772 64.371704,171.53337 69.693329,169.34645 C 77.612137,175.69449 87.445496,179.16977 97.041397,181.01334 C 103.42082,183.32849 99.574097,190.90221 103.75732,194.86513 C 102.29289,196.41701 100.58525,197.7105 98.862976,198.9606 C 93.157028,198.36635 84.730911,201.58208 81.664276,195.27043 C 87.113647,198.22064 97.939407,197.3615 96.780838,188.70293 C 98.833054,182.02173 89.604263,185.17793 86.315048,184.68672 C 82.241119,184.11351 82.00032,179.79698 79.616745,177.44161 C 73.898651,175.38939 68.295441,172.39415 61.994797,172.97015 C 62.024963,176.78061 62.896072,180.51648 63.691376,184.23106 C 59.955444,180.8363 58.371674,175.03346 53.62616,172.12662 z "
       id="path106" />
    <path
       style="opacity:1;fill:#f8a314;fill-rule:nonzero;stroke:none"
       d="M 53.62616,172.12662 C 54.411621,163.87772 64.371704,171.53337 69.693329,169.34645 C 77.612137,175.69449 87.445496,179.16977 97.041397,181.01334 C 103.42082,183.32849 99.574097,190.90221 103.75732,194.86513 C 102.29289,196.41701 100.58525,197.7105 98.862976,198.9606 C 93.157028,198.36635 84.730911,201.58208 81.664276,195.27043 C 87.113647,198.22064 97.939407,197.3615 96.780838,188.70293 C 98.833054,182.02173 89.604263,185.17793 86.315048,184.68672 C 82.241119,184.11351 82.00032,179.79698 79.616745,177.44161 C 73.898651,175.38939 68.295441,172.39415 61.994797,172.97015 C 62.024963,176.78061 62.896072,180.51648 63.691376,184.23106 C 59.955444,180.8363 58.371674,175.03346 53.62616,172.12662 z "
       id="path108" />
    <path
       style="opacity:1;fill:none;stroke:#5c232b;stroke-width:0.1;stroke-linecap:butt;stroke-linejoin:miter;stroke-miterlimit:10"
       d="M 12.009033,173.02122 C 12.388626,170.89313 13.68811,169.51166 15.969604,169.95085 C 21.336655,176.74553 26.970932,183.45691 31.033386,191.14995 C 27.957718,189.19917 26.105072,184.97731 21.811157,186.07014 C 17.976578,182.21573 14.647766,177.75638 12.009033,173.02122 z "
       id="path110" />
    <path
       style="opacity:1;fill:#5c232b;fill-rule:nonzero;stroke:none"
       d="M 12.009033,173.02122 C 12.388626,170.89313 13.68811,169.51166 15.969604,169.95085 C 21.336655,176.74553 26.970932,183.45691 31.033386,191.14995 C 27.957718,189.19917 26.105072,184.97731 21.811157,186.07014 C 17.976578,182.21573 14.647766,177.75638 12.009033,173.02122 z "
       id="path112" />
    <path
       style="opacity:1;fill:none;stroke:#877375;stroke-width:0.1;stroke-linecap:butt;stroke-linejoin:miter;stroke-miterlimit:10"
       d="M 15.969604,169.95085 L 17.042221,169.87318 L 17.950851,169.98221 C 22.631714,174.50449 25.258698,180.61615 29.757645,185.25915 C 32.549164,188.8145 35.637299,192.16286 37.972076,196.05771 L 36.988007,195.9411 C 35.001083,194.34204 33.026642,192.73262 31.033386,191.14995 C 26.970932,183.45691 21.336655,176.74553 15.969604,169.95085 z "
       id="path114" />
    <path
       style="opacity:1;fill:#877375;fill-rule:nonzero;stroke:none"
       d="M 15.969604,169.95085 L 17.042221,169.87318 L 17.950851,169.98221 C 22.631714,174.50449 25.258698,180.61615 29.757645,185.25915 C 32.549164,188.8145 35.637299,192.16286 37.972076,196.05771 L 36.988007,195.9411 C 35.001083,194.34204 33.026642,192.73262 31.033386,191.14995 C 26.970932,183.45691 21.336655,176.74553 15.969604,169.95085 z "
       id="path116" />
    <path
       style="opacity:1;fill:none;stroke:#bfbaba;stroke-width:0.1;stroke-linecap:butt;stroke-linejoin:miter;stroke-miterlimit:10"
       d="M 17.950851,169.98221 C 18.44014,170.02501 19.418732,170.1106 19.90802,170.1534 C 24.210587,173.8067 27.514359,179.97342 29.757645,185.25915 C 25.258698,180.61615 22.631714,174.50449 17.950851,169.98221 z "
       id="path118" />
    <path
       style="opacity:1;fill:#bfbaba;fill-rule:nonzero;stroke:none"
       d="M 17.950851,169.98221 C 18.44014,170.02501 19.418732,170.1106 19.90802,170.1534 C 24.210587,173.8067 27.514359,179.97342 29.757645,185.25915 C 25.258698,180.61615 22.631714,174.50449 17.950851,169.98221 z "
       id="path120" />
    <path
       style="opacity:1;fill:none;stroke:#fa9e11;stroke-width:0.1;stroke-linecap:butt;stroke-linejoin:miter;stroke-miterlimit:10"
       d="M 198.31,171.32303 C 199.99301,170.37138 200.67775,172.39659 201.58844,173.38951 C 205.68834,179.25941 215.3699,179.76161 217.94865,186.88214 C 213.62627,191.30376 208.06838,186.11369 202.99979,187.12099 C 198.59474,187.17007 193.15222,187.75737 190.12363,183.75201 C 189.99826,178.71762 192.68097,172.19047 198.31,171.32303 z "
       id="path122" />
    <path
       style="opacity:1;fill:#fa9e11;fill-rule:nonzero;stroke:none"
       d="M 198.31,171.32303 C 199.99301,170.37138 200.67775,172.39659 201.58844,173.38951 C 205.68834,179.25941 215.3699,179.76161 217.94865,186.88214 C 213.62627,191.30376 208.06838,186.11369 202.99979,187.12099 C 198.59474,187.17007 193.15222,187.75737 190.12363,183.75201 C 189.99826,178.71762 192.68097,172.19047 198.31,171.32303 z "
       id="path124" />
    <path
       style="opacity:1;fill:none;stroke:#fa8c11;stroke-width:0.1;stroke-linecap:butt;stroke-linejoin:miter;stroke-miterlimit:10"
       d="M 61.994797,172.97015 C 68.295441,172.39415 73.898651,175.38939 79.616745,177.44161 C 82.00032,179.79698 82.241119,184.11351 86.315048,184.68672 C 89.604263,185.17793 98.833054,182.02173 96.780838,188.70293 C 97.939407,197.3615 87.113647,198.22064 81.664276,195.27043 C 76.861557,189.98334 71.063736,185.09563 63.691376,184.23106 C 62.896072,180.51648 62.024963,176.78061 61.994797,172.97015 z "
       id="path126" />
    <path
       style="opacity:1;fill:#fa8c11;fill-rule:nonzero;stroke:none"
       d="M 61.994797,172.97015 C 68.295441,172.39415 73.898651,175.38939 79.616745,177.44161 C 82.00032,179.79698 82.241119,184.11351 86.315048,184.68672 C 89.604263,185.17793 98.833054,182.02173 96.780838,188.70293 C 97.939407,197.3615 87.113647,198.22064 81.664276,195.27043 C 76.861557,189.98334 71.063736,185.09563 63.691376,184.23106 C 62.896072,180.51648 62.024963,176.78061 61.994797,172.97015 z "
       id="path128" />
    <path
       style="opacity:1;fill:none;stroke:#fde6b8;stroke-width:0.1;stroke-linecap:butt;stroke-linejoin:miter;stroke-miterlimit:10"
       d="M 52.898163,174.04912 C 56.935669,176.50458 58.802414,180.85571 61.324005,184.63145 C 66.60672,187.34468 73.040421,188.23041 77.113541,192.94789 C 71.845367,190.83928 66.584702,188.71147 61.278091,186.70785 C 58.289978,182.7503 55.183609,178.45334 52.898163,174.04912 z "
       id="path130" />
    <path
       style="opacity:1;fill:#fde6b8;fill-rule:nonzero;stroke:none"
       d="M 52.898163,174.04912 C 56.935669,176.50458 58.802414,180.85571 61.324005,184.63145 C 66.60672,187.34468 73.040421,188.23041 77.113541,192.94789 C 71.845367,190.83928 66.584702,188.71147 61.278091,186.70785 C 58.289978,182.7503 55.183609,178.45334 52.898163,174.04912 z "
       id="path132" />
    <path
       style="opacity:1;fill:none;stroke:#f0bfb3;stroke-width:0.1;stroke-linecap:butt;stroke-linejoin:miter;stroke-miterlimit:10"
       d="M 29.757645,185.25915 C 34.314682,187.64761 37.312775,192.39644 41.250229,195.73378 C 63.659622,207.03201 89.748627,208.53326 114.28192,204.87196 C 119.44621,204.59535 124.36124,202.81033 129.44392,202.02716 C 124.57558,207.17323 117.34789,205.06844 111.28923,207.2316 C 95.727112,207.61578 80.172714,208.786 64.719543,206.23097 C 61.178131,205.16998 57.655792,204.07785 54.146866,202.93106 C 48.613129,200.9951 43.034927,199.0538 37.972076,196.05771 C 35.637299,192.16286 32.549164,188.8145 29.757645,185.25915 z "
       id="path134" />
    <path
       style="opacity:1;fill:#f0bfb3;fill-rule:nonzero;stroke:none"
       d="M 29.757645,185.25915 C 34.314682,187.64761 37.312775,192.39644 41.250229,195.73378 C 63.659622,207.03201 89.748627,208.53326 114.28192,204.87196 C 119.44621,204.59535 124.36124,202.81033 129.44392,202.02716 C 124.57558,207.17323 117.34789,205.06844 111.28923,207.2316 C 95.727112,207.61578 80.172714,208.786 64.719543,206.23097 C 61.178131,205.16998 57.655792,204.07785 54.146866,202.93106 C 48.613129,200.9951 43.034927,199.0538 37.972076,196.05771 C 35.637299,192.16286 32.549164,188.8145 29.757645,185.25915 z "
       id="path136" />
    <path
       style="opacity:1;fill:none;stroke:#7f1919;stroke-width:0.1;stroke-linecap:butt;stroke-linejoin:miter;stroke-miterlimit:10"
       d="M 21.811157,186.07014 C 26.105072,184.97731 27.957718,189.19917 31.033386,191.14995 C 33.026642,192.73262 35.001083,194.34204 36.988007,195.9411 C 38.266083,198.90764 40.167252,201.51199 42.067078,204.10036 C 41.019775,206.59799 38.482895,207.27646 35.990616,207.12782 C 32.877777,199.32687 26.697662,192.87022 21.811157,186.07014 z "
       id="path138" />
    <path
       style="opacity:1;fill:#7f1919;fill-rule:nonzero;stroke:none"
       d="M 21.811157,186.07014 C 26.105072,184.97731 27.957718,189.19917 31.033386,191.14995 C 33.026642,192.73262 35.001083,194.34204 36.988007,195.9411 C 38.266083,198.90764 40.167252,201.51199 42.067078,204.10036 C 41.019775,206.59799 38.482895,207.27646 35.990616,207.12782 C 32.877777,199.32687 26.697662,192.87022 21.811157,186.07014 z "
       id="path140" />
    <path
       style="opacity:1;fill:none;stroke:#fa8a0c;stroke-width:0.1;stroke-linecap:butt;stroke-linejoin:miter;stroke-miterlimit:10"
       d="M 187.10588,191.22391 C 193.7148,192.86459 203.08568,196.45496 203.9988,203.92102 C 199.57419,212.19815 186.73,207.41992 183.33119,201.2285 C 186.72334,198.28561 186.01166,194.57606 187.10588,191.22391 z "
       id="path142" />
    <path
       style="opacity:1;fill:#fa8a0c;fill-rule:nonzero;stroke:none"
       d="M 187.10588,191.22391 C 193.7148,192.86459 203.08568,196.45496 203.9988,203.92102 C 199.57419,212.19815 186.73,207.41992 183.33119,201.2285 C 186.72334,198.28561 186.01166,194.57606 187.10588,191.22391 z "
       id="path144" />
    <path
       style="opacity:1;fill:none;stroke:#fabd2e;stroke-width:0.1;stroke-linecap:butt;stroke-linejoin:miter;stroke-miterlimit:10"
       d="M 145.48454,199.07024 C 144.87874,194.28178 150.29123,191.82616 152.8136,196.27524 C 144.46979,210.5748 151.55714,232.61287 165.21916,241.82129 C 163.73612,241.81622 160.77,241.80611 159.28696,241.80104 C 152.78476,232.5453 144.70102,223.22176 146.75114,210.88321 C 146.17387,207.64975 150.57803,201.08568 145.39961,199.85805 L 145.48454,199.07024 z "
       id="path146" />
    <path
       style="opacity:1;fill:#fabd2e;fill-rule:nonzero;stroke:none"
       d="M 145.48454,199.07024 C 144.87874,194.28178 150.29123,191.82616 152.8136,196.27524 C 144.46979,210.5748 151.55714,232.61287 165.21916,241.82129 C 163.73612,241.81622 160.77,241.80611 159.28696,241.80104 C 152.78476,232.5453 144.70102,223.22176 146.75114,210.88321 C 146.17387,207.64975 150.57803,201.08568 145.39961,199.85805 L 145.48454,199.07024 z "
       id="path148" />
    <path
       style="opacity:1;fill:none;stroke:#faebb0;stroke-width:0.1;stroke-linecap:butt;stroke-linejoin:miter;stroke-miterlimit:10"
       d="M 78.987381,194.94356 C 80.992737,198.35078 83.929565,201.45276 88.509125,200.62942 C 101.84297,203.52454 117.23239,197.34958 129.44392,202.02716 C 124.36124,202.81033 119.44621,204.59535 114.28192,204.87196 C 106.98787,198.79492 96.469162,205.06624 88.306839,201.74847 C 83.987534,202.25461 77.520432,200.52547 78.987381,194.94356 z "
       id="path150" />
    <path
       style="opacity:1;fill:#faebb0;fill-rule:nonzero;stroke:none"
       d="M 78.987381,194.94356 C 80.992737,198.35078 83.929565,201.45276 88.509125,200.62942 C 101.84297,203.52454 117.23239,197.34958 129.44392,202.02716 C 124.36124,202.81033 119.44621,204.59535 114.28192,204.87196 C 106.98787,198.79492 96.469162,205.06624 88.306839,201.74847 C 83.987534,202.25461 77.520432,200.52547 78.987381,194.94356 z "
       id="path152" />
    <path
       style="opacity:1;fill:none;stroke:#fab01c;stroke-width:0.1;stroke-linecap:butt;stroke-linejoin:miter;stroke-miterlimit:10"
       d="M 163.22543,205.71208 C 160.41547,198.26245 169.248,195.27962 174.76216,195.07243 C 175.29222,205.88664 189.7263,210.70387 199.0403,210.07481 C 193.80873,216.66602 186.03462,211.82083 181.3378,207.63884 C 171.26726,203.44867 179.17563,214.90237 181.43263,218.78676 C 188.88487,218.97232 196.25261,215.9154 203.67747,218.31378 C 207.76332,218.70581 209.05006,223.59575 213.1405,224.03258 C 220.32448,232.06772 217.34817,243.77324 221.04842,253.1575 C 214.90793,250.49136 209.26558,245.25288 202.02496,246.99004 C 193.34802,249.3866 184.25707,247.95361 175.79674,245.37749 C 178.08247,244.38925 184.11156,245.37752 182.70695,241.52495 C 177.24797,239.74095 174.35759,234.35956 173.19871,229.05287 C 177.59712,226.58469 181.24263,232.15671 185.71948,231.98 C 186.89261,225.53194 195.83841,226.53598 197.9745,221.15407 C 192.60585,218.7618 185.49394,221.27454 180.86624,224.9677 C 176.69167,223.40485 167.6769,220.67973 170.99498,214.98648 C 174.14996,209.55949 164.33202,210.22757 163.22543,205.71208 z "
       id="path154" />
    <path
       style="opacity:1;fill:#fab01c;fill-rule:nonzero;stroke:none"
       d="M 163.22543,205.71208 C 160.41547,198.26245 169.248,195.27962 174.76216,195.07243 C 175.29222,205.88664 189.7263,210.70387 199.0403,210.07481 C 193.80873,216.66602 186.03462,211.82083 181.3378,207.63884 C 171.26726,203.44867 179.17563,214.90237 181.43263,218.78676 C 188.88487,218.97232 196.25261,215.9154 203.67747,218.31378 C 207.76332,218.70581 209.05006,223.59575 213.1405,224.03258 C 220.32448,232.06772 217.34817,243.77324 221.04842,253.1575 C 214.90793,250.49136 209.26558,245.25288 202.02496,246.99004 C 193.34802,249.3866 184.25707,247.95361 175.79674,245.37749 C 178.08247,244.38925 184.11156,245.37752 182.70695,241.52495 C 177.24797,239.74095 174.35759,234.35956 173.19871,229.05287 C 177.59712,226.58469 181.24263,232.15671 185.71948,231.98 C 186.89261,225.53194 195.83841,226.53598 197.9745,221.15407 C 192.60585,218.7618 185.49394,221.27454 180.86624,224.9677 C 176.69167,223.40485 167.6769,220.67973 170.99498,214.98648 C 174.14996,209.55949 164.33202,210.22757 163.22543,205.71208 z "
       id="path156" />
    <path
       style="opacity:1;fill:none;stroke:#dc5738;stroke-width:0.1;stroke-linecap:butt;stroke-linejoin:miter;stroke-miterlimit:10"
       d="M 36.988007,195.9411 L 37.972076,196.05771 C 43.034927,199.0538 48.613129,200.9951 54.146866,202.93106 C 55.550613,205.40448 54.661026,206.61745 51.769775,206.2424 C 49.903015,206.0784 48.029068,205.92747 46.155014,206.01152 C 42.244461,204.55837 35.62233,214.2999 35.990616,207.12782 C 38.482895,207.27646 41.019775,206.59799 42.067078,204.10036 C 40.167252,201.51199 38.266083,198.90764 36.988007,195.9411 z "
       id="path158" />
    <path
       style="opacity:1;fill:#dc5738;fill-rule:nonzero;stroke:none"
       d="M 36.988007,195.9411 L 37.972076,196.05771 C 43.034927,199.0538 48.613129,200.9951 54.146866,202.93106 C 55.550613,205.40448 54.661026,206.61745 51.769775,206.2424 C 49.903015,206.0784 48.029068,205.92747 46.155014,206.01152 C 42.244461,204.55837 35.62233,214.2999 35.990616,207.12782 C 38.482895,207.27646 41.019775,206.59799 42.067078,204.10036 C 40.167252,201.51199 38.266083,198.90764 36.988007,195.9411 z "
       id="path160" />
    <path
       style="opacity:1;fill:none;stroke:#e86635;stroke-width:0.1;stroke-linecap:butt;stroke-linejoin:miter;stroke-miterlimit:10"
       d="M 134.23698,200.23146 C 137.75932,199.08437 142.56667,194.53049 145.48454,199.07024 L 145.39961,199.85805 C 143.91746,200.86903 142.38928,201.81071 140.82927,202.69591 C 136.72801,205.11153 132.03311,206.28659 128.05861,208.9239 C 123.381,209.94849 118.4975,210.29913 114.00336,212.00768 C 106.71895,211.82718 99.494659,213.24667 92.213425,212.86638 C 88.24144,213.66103 76.218597,210.17638 88.193909,209.17941 C 95.742615,208.18317 104.26354,210.78986 111.28923,207.2316 C 117.34789,205.06844 124.57558,207.17323 129.44392,202.02716 C 129.92747,201.81674 130.89461,201.3959 131.37817,201.18549 C 132.33192,200.87228 133.28487,200.55428 134.23698,200.23146 z "
       id="path162" />
    <path
       style="opacity:1;fill:#e86635;fill-rule:nonzero;stroke:none"
       d="M 134.23698,200.23146 C 137.75932,199.08437 142.56667,194.53049 145.48454,199.07024 L 145.39961,199.85805 C 143.91746,200.86903 142.38928,201.81071 140.82927,202.69591 C 136.72801,205.11153 132.03311,206.28659 128.05861,208.9239 C 123.381,209.94849 118.4975,210.29913 114.00336,212.00768 C 106.71895,211.82718 99.494659,213.24667 92.213425,212.86638 C 88.24144,213.66103 76.218597,210.17638 88.193909,209.17941 C 95.742615,208.18317 104.26354,210.78986 111.28923,207.2316 C 117.34789,205.06844 124.57558,207.17323 129.44392,202.02716 C 129.92747,201.81674 130.89461,201.3959 131.37817,201.18549 C 132.33192,200.87228 133.28487,200.55428 134.23698,200.23146 z "
       id="path164" />
    <path
       style="opacity:1;fill:none;stroke:#f88a4a;stroke-width:0.1;stroke-linecap:butt;stroke-linejoin:miter;stroke-miterlimit:10"
       d="M 54.146866,202.93106 C 57.655792,204.07785 61.178131,205.16998 64.719543,206.23097 C 72.193481,208.9169 80.39711,208.4885 88.193909,209.17941 C 76.218597,210.17638 88.24144,213.66103 92.213425,212.86638 C 85.722443,212.80458 79.249817,212.32208 72.762909,212.21062 C 65.833481,210.01114 58.244476,209.56906 51.769775,206.2424 C 54.661026,206.61745 55.550613,205.40448 54.146866,202.93106 z "
       id="path166" />
    <path
       style="opacity:1;fill:#f88a4a;fill-rule:nonzero;stroke:none"
       d="M 54.146866,202.93106 C 57.655792,204.07785 61.178131,205.16998 64.719543,206.23097 C 72.193481,208.9169 80.39711,208.4885 88.193909,209.17941 C 76.218597,210.17638 88.24144,213.66103 92.213425,212.86638 C 85.722443,212.80458 79.249817,212.32208 72.762909,212.21062 C 65.833481,210.01114 58.244476,209.56906 51.769775,206.2424 C 54.661026,206.61745 55.550613,205.40448 54.146866,202.93106 z "
       id="path168" />
    <path
       style="opacity:1;fill:none;stroke:#f89961;stroke-width:0.1;stroke-linecap:butt;stroke-linejoin:miter;stroke-miterlimit:10"
       d="M 35.990616,207.12782 C 35.62233,214.2999 42.244461,204.55837 46.155014,206.01152 C 43.201981,207.57176 38.567429,209.23291 41.048248,213.98422 C 43.007614,229.2365 46.378845,244.63046 45.203247,260.0342 C 45.998108,261.34279 43.815659,269.54567 41.117554,265.80934 C 41.678787,246.03259 38.52153,226.4167 34.875763,207.20201 L 35.990616,207.12782 z "
       id="path170" />
    <path
       style="opacity:1;fill:#f89961;fill-rule:nonzero;stroke:none"
       d="M 35.990616,207.12782 C 35.62233,214.2999 42.244461,204.55837 46.155014,206.01152 C 43.201981,207.57176 38.567429,209.23291 41.048248,213.98422 C 43.007614,229.2365 46.378845,244.63046 45.203247,260.0342 C 45.998108,261.34279 43.815659,269.54567 41.117554,265.80934 C 41.678787,246.03259 38.52153,226.4167 34.875763,207.20201 L 35.990616,207.12782 z "
       id="path172" />
    <path
       style="opacity:1;fill:none;stroke:#f5a37d;stroke-width:0.1;stroke-linecap:butt;stroke-linejoin:miter;stroke-miterlimit:10"
       d="M 64.719543,206.23097 C 80.172714,208.786 95.727112,207.61578 111.28923,207.2316 C 104.26354,210.78986 95.742615,208.18317 88.193909,209.17941 C 80.39711,208.4885 72.193481,208.9169 64.719543,206.23097 z "
       id="path174" />
    <path
       style="opacity:1;fill:#f5a37d;fill-rule:nonzero;stroke:none"
       d="M 64.719543,206.23097 C 80.172714,208.786 95.727112,207.61578 111.28923,207.2316 C 104.26354,210.78986 95.742615,208.18317 88.193909,209.17941 C 80.39711,208.4885 72.193481,208.9169 64.719543,206.23097 z "
       id="path176" />
    <path
       style="opacity:1;fill:none;stroke:#fdc523;stroke-width:0.1;stroke-linecap:butt;stroke-linejoin:miter;stroke-miterlimit:10"
       d="M 181.43263,218.78676 C 179.17563,214.90237 171.26726,203.44867 181.3378,207.63884 C 186.03462,211.82083 193.80873,216.66602 199.0403,210.07481 C 200.48344,208.78636 202.05948,207.6465 203.77226,206.74101 C 197.86024,214.48549 210.85089,217.62251 213.1405,224.03258 C 209.05006,223.59575 207.76332,218.70581 203.67747,218.31378 C 196.25261,215.9154 188.88487,218.97232 181.43263,218.78676 z "
       id="path178" />
    <path
       style="opacity:1;fill:#fdc523;fill-rule:nonzero;stroke:none"
       d="M 181.43263,218.78676 C 179.17563,214.90237 171.26726,203.44867 181.3378,207.63884 C 186.03462,211.82083 193.80873,216.66602 199.0403,210.07481 C 200.48344,208.78636 202.05948,207.6465 203.77226,206.74101 C 197.86024,214.48549 210.85089,217.62251 213.1405,224.03258 C 209.05006,223.59575 207.76332,218.70581 203.67747,218.31378 C 196.25261,215.9154 188.88487,218.97232 181.43263,218.78676 z "
       id="path180" />
    <path
       style="opacity:1;fill:none;stroke:#f59473;stroke-width:0.1;stroke-linecap:butt;stroke-linejoin:miter;stroke-miterlimit:10"
       d="M 114.00336,212.00768 C 118.4975,210.29913 123.381,209.94849 128.05861,208.9239 C 123.98837,211.86536 118.97057,212.7341 114.00336,212.00768 z "
       id="path182" />
    <path
       style="opacity:1;fill:#f59473;fill-rule:nonzero;stroke:none"
       d="M 114.00336,212.00768 C 118.4975,210.29913 123.381,209.94849 128.05861,208.9239 C 123.98837,211.86536 118.97057,212.7341 114.00336,212.00768 z "
       id="path184" />
    <path
       style="opacity:1;fill:none;stroke:#faa175;stroke-width:0.1;stroke-linecap:butt;stroke-linejoin:miter;stroke-miterlimit:10"
       d="M 72.762909,212.21062 C 79.249817,212.32208 85.722443,212.80458 92.213425,212.86638 C 99.494659,213.24667 106.71895,211.82718 114.00336,212.00768 C 100.58617,216.38126 86.362228,214.49625 72.762909,212.21062 z "
       id="path186" />
    <path
       style="opacity:1;fill:#faa175;fill-rule:nonzero;stroke:none"
       d="M 72.762909,212.21062 C 79.249817,212.32208 85.722443,212.80458 92.213425,212.86638 C 99.494659,213.24667 106.71895,211.82718 114.00336,212.00768 C 100.58617,216.38126 86.362228,214.49625 72.762909,212.21062 z "
       id="path188" />
    <path
       style="opacity:1;fill:none;stroke:#faebe3;stroke-width:0.1;stroke-linecap:butt;stroke-linejoin:miter;stroke-miterlimit:10"
       d="M 38.433273,239.67619 C 41.700043,248.95558 37.566284,259.07997 40.708038,268.30667 C 42.873932,270.47957 45.960007,268.23097 46.952347,265.85648 C 48.570938,273.18221 34.38298,273.81807 38.00206,265.00851 C 39.995834,256.78125 34.808044,247.12784 38.433273,239.67619 z "
       id="path190" />
    <path
       style="opacity:1;fill:#faebe3;fill-rule:nonzero;stroke:none"
       d="M 38.433273,239.67619 C 41.700043,248.95558 37.566284,259.07997 40.708038,268.30667 C 42.873932,270.47957 45.960007,268.23097 46.952347,265.85648 C 48.570938,273.18221 34.38298,273.81807 38.00206,265.00851 C 39.995834,256.78125 34.808044,247.12784 38.433273,239.67619 z "
       id="path192" />
  </g>
</svg>
